G04 #@! TF.GenerationSoftware,KiCad,Pcbnew,(5.0.1-3-g963ef8bb5)*
G04 #@! TF.CreationDate,2019-12-09T16:28:53+01:00*
G04 #@! TF.ProjectId,Ps1 to Neogeo Adpator,50733120746F204E656F67656F204164,rev?*
G04 #@! TF.SameCoordinates,Original*
G04 #@! TF.FileFunction,Copper,L1,Top,Signal*
G04 #@! TF.FilePolarity,Positive*
%FSLAX46Y46*%
G04 Gerber Fmt 4.6, Leading zero omitted, Abs format (unit mm)*
G04 Created by KiCad (PCBNEW (5.0.1-3-g963ef8bb5)) date Lundi 09 décembre 2019 à 16:28:53*
%MOMM*%
%LPD*%
G01*
G04 APERTURE LIST*
G04 #@! TA.AperFunction,ComponentPad*
%ADD10R,1.600000X1.600000*%
G04 #@! TD*
G04 #@! TA.AperFunction,ComponentPad*
%ADD11O,1.600000X1.600000*%
G04 #@! TD*
G04 #@! TA.AperFunction,ComponentPad*
%ADD12C,1.600000*%
G04 #@! TD*
G04 #@! TA.AperFunction,ComponentPad*
%ADD13C,4.000000*%
G04 #@! TD*
G04 #@! TA.AperFunction,ComponentPad*
%ADD14C,2.000000*%
G04 #@! TD*
G04 #@! TA.AperFunction,ComponentPad*
%ADD15C,3.000000*%
G04 #@! TD*
G04 #@! TA.AperFunction,ViaPad*
%ADD16C,0.800000*%
G04 #@! TD*
G04 #@! TA.AperFunction,Conductor*
%ADD17C,1.200000*%
G04 #@! TD*
G04 #@! TA.AperFunction,Conductor*
%ADD18C,0.250000*%
G04 #@! TD*
G04 #@! TA.AperFunction,Conductor*
%ADD19C,0.254000*%
G04 #@! TD*
G04 APERTURE END LIST*
D10*
G04 #@! TO.P,A1,1*
G04 #@! TO.N,Net-(A1-Pad1)*
X131570000Y-107600000D03*
D11*
G04 #@! TO.P,A1,17*
G04 #@! TO.N,+3V3*
X116330000Y-74580000D03*
G04 #@! TO.P,A1,2*
G04 #@! TO.N,Net-(A1-Pad2)*
X131570000Y-105060000D03*
G04 #@! TO.P,A1,18*
G04 #@! TO.N,Net-(A1-Pad18)*
X116330000Y-77120000D03*
G04 #@! TO.P,A1,3*
G04 #@! TO.N,Net-(A1-Pad3)*
X131570000Y-102520000D03*
G04 #@! TO.P,A1,19*
G04 #@! TO.N,/PAD_D*
X116330000Y-79660000D03*
G04 #@! TO.P,A1,4*
G04 #@! TO.N,GND*
X131570000Y-99980000D03*
G04 #@! TO.P,A1,20*
G04 #@! TO.N,/PAD_C*
X116330000Y-82200000D03*
G04 #@! TO.P,A1,5*
G04 #@! TO.N,/START*
X131570000Y-97440000D03*
G04 #@! TO.P,A1,21*
G04 #@! TO.N,/PAD_B*
X116330000Y-84740000D03*
G04 #@! TO.P,A1,6*
G04 #@! TO.N,/SELECT*
X131570000Y-94900000D03*
G04 #@! TO.P,A1,22*
G04 #@! TO.N,/PAD_A*
X116330000Y-87280000D03*
G04 #@! TO.P,A1,7*
G04 #@! TO.N,/CLK*
X131570000Y-92360000D03*
G04 #@! TO.P,A1,23*
G04 #@! TO.N,/RIGHT*
X116330000Y-89820000D03*
G04 #@! TO.P,A1,8*
G04 #@! TO.N,/Att*
X131570000Y-89820000D03*
G04 #@! TO.P,A1,24*
G04 #@! TO.N,/LEFT*
X116330000Y-92360000D03*
G04 #@! TO.P,A1,9*
G04 #@! TO.N,/DOWN*
X131570000Y-87280000D03*
G04 #@! TO.P,A1,25*
G04 #@! TO.N,Net-(A1-Pad25)*
X116330000Y-94900000D03*
G04 #@! TO.P,A1,10*
G04 #@! TO.N,/UP*
X131570000Y-84740000D03*
G04 #@! TO.P,A1,26*
G04 #@! TO.N,Net-(A1-Pad26)*
X116330000Y-97440000D03*
G04 #@! TO.P,A1,11*
G04 #@! TO.N,Net-(A1-Pad11)*
X131570000Y-82200000D03*
G04 #@! TO.P,A1,27*
G04 #@! TO.N,+5V*
X116330000Y-99980000D03*
G04 #@! TO.P,A1,12*
G04 #@! TO.N,Net-(A1-Pad12)*
X131570000Y-79660000D03*
G04 #@! TO.P,A1,28*
G04 #@! TO.N,Net-(A1-Pad28)*
X116330000Y-102520000D03*
G04 #@! TO.P,A1,13*
G04 #@! TO.N,/Cmd*
X131570000Y-77120000D03*
G04 #@! TO.P,A1,29*
G04 #@! TO.N,GND*
X116330000Y-105060000D03*
G04 #@! TO.P,A1,14*
G04 #@! TO.N,Net-(A1-Pad14)*
X131570000Y-74580000D03*
G04 #@! TO.P,A1,30*
G04 #@! TO.N,Net-(A1-Pad30)*
X116330000Y-107600000D03*
G04 #@! TO.P,A1,15*
G04 #@! TO.N,/Data*
X131570000Y-72040000D03*
G04 #@! TO.P,A1,16*
G04 #@! TO.N,Net-(A1-Pad16)*
X116330000Y-72040000D03*
G04 #@! TD*
D10*
G04 #@! TO.P,J1,1*
G04 #@! TO.N,GND*
X140100000Y-115510000D03*
D12*
G04 #@! TO.P,J1,2*
G04 #@! TO.N,Net-(J1-Pad2)*
X137330000Y-115510000D03*
G04 #@! TO.P,J1,3*
G04 #@! TO.N,/SELECT*
X134560000Y-115510000D03*
G04 #@! TO.P,J1,4*
G04 #@! TO.N,/PAD_D*
X131790000Y-115510000D03*
G04 #@! TO.P,J1,5*
G04 #@! TO.N,/PAD_B*
X129020000Y-115510000D03*
G04 #@! TO.P,J1,6*
G04 #@! TO.N,/RIGHT*
X126250000Y-115510000D03*
G04 #@! TO.P,J1,7*
G04 #@! TO.N,/DOWN*
X123480000Y-115510000D03*
G04 #@! TO.P,J1,8*
G04 #@! TO.N,+5V*
X120710000Y-115510000D03*
G04 #@! TO.P,J1,9*
G04 #@! TO.N,Net-(J1-Pad9)*
X138715000Y-118350000D03*
G04 #@! TO.P,J1,10*
G04 #@! TO.N,Net-(J1-Pad10)*
X135945000Y-118350000D03*
G04 #@! TO.P,J1,11*
G04 #@! TO.N,/START*
X133175000Y-118350000D03*
G04 #@! TO.P,J1,12*
G04 #@! TO.N,/PAD_C*
X130405000Y-118350000D03*
G04 #@! TO.P,J1,13*
G04 #@! TO.N,/PAD_A*
X127635000Y-118350000D03*
G04 #@! TO.P,J1,14*
G04 #@! TO.N,/LEFT*
X124865000Y-118350000D03*
G04 #@! TO.P,J1,15*
G04 #@! TO.N,/UP*
X122095000Y-118350000D03*
D13*
G04 #@! TO.P,J1,0*
G04 #@! TO.N,GND*
X113755000Y-116930000D03*
X147055000Y-116930000D03*
G04 #@! TD*
D14*
G04 #@! TO.P,J2,4*
G04 #@! TO.N,GND*
X142260000Y-85940000D03*
G04 #@! TO.P,J2,3*
G04 #@! TO.N,Net-(J2-Pad3)*
X142260000Y-81940000D03*
G04 #@! TO.P,J2,2*
G04 #@! TO.N,/Cmd*
X142260000Y-77940000D03*
G04 #@! TO.P,J2,1*
G04 #@! TO.N,/Data*
X142260000Y-73940000D03*
G04 #@! TO.P,J2,9*
G04 #@! TO.N,Net-(J2-Pad9)*
X142260000Y-105940000D03*
G04 #@! TO.P,J2,8*
G04 #@! TO.N,Net-(J2-Pad8)*
X142260000Y-101940000D03*
G04 #@! TO.P,J2,7*
G04 #@! TO.N,/CLK*
X142260000Y-97940000D03*
G04 #@! TO.P,J2,6*
G04 #@! TO.N,/Att*
X142260000Y-93940000D03*
G04 #@! TO.P,J2,5*
G04 #@! TO.N,+3V3*
X142260000Y-89940000D03*
D15*
G04 #@! TO.P,J2,4*
G04 #@! TO.N,GND*
X136760000Y-89940000D03*
G04 #@! TD*
D16*
G04 #@! TO.N,/UP*
X122095000Y-103305000D03*
G04 #@! TO.N,/DOWN*
X123480000Y-102050000D03*
G04 #@! TD*
D17*
G04 #@! TO.N,+3V3*
X117930001Y-72979999D02*
X117930001Y-70329999D01*
X116330000Y-74580000D02*
X117930001Y-72979999D01*
X117930001Y-70329999D02*
X121460000Y-66800000D01*
X137784002Y-66800000D02*
X141574002Y-70590000D01*
X121460000Y-66800000D02*
X137784002Y-66800000D01*
X141574002Y-70590000D02*
X143480000Y-70590000D01*
X143480000Y-70590000D02*
X145480000Y-72590000D01*
X145480000Y-86720000D02*
X142260000Y-89940000D01*
X145480000Y-72590000D02*
X145480000Y-86720000D01*
D18*
G04 #@! TO.N,/UP*
X122095000Y-103205000D02*
X122095000Y-103305000D01*
X122095000Y-103305000D02*
X122095000Y-118350000D01*
G04 #@! TO.N,/DOWN*
X123480000Y-102050000D02*
X123480000Y-115510000D01*
G04 #@! TO.N,/PAD_A*
X127635000Y-117218630D02*
X127635000Y-118350000D01*
X127635000Y-97453630D02*
X127635000Y-117218630D01*
X117461370Y-87280000D02*
X127635000Y-97453630D01*
X116330000Y-87280000D02*
X117461370Y-87280000D01*
G04 #@! TO.N,/LEFT*
X124865000Y-100895000D02*
X124865000Y-118350000D01*
X116330000Y-92360000D02*
X124865000Y-100895000D01*
G04 #@! TO.N,/PAD_B*
X129020000Y-97430000D02*
X129020000Y-115510000D01*
X116330000Y-84740000D02*
X129020000Y-97430000D01*
G04 #@! TO.N,/RIGHT*
X126250000Y-99740000D02*
X126250000Y-115510000D01*
X116330000Y-89820000D02*
X126250000Y-99740000D01*
G04 #@! TO.N,/PAD_C*
X130405000Y-96275000D02*
X130405000Y-118350000D01*
X116330000Y-82200000D02*
X130405000Y-96275000D01*
G04 #@! TO.N,/START*
X133175000Y-99045000D02*
X133175000Y-118350000D01*
X131570000Y-97440000D02*
X133175000Y-99045000D01*
G04 #@! TO.N,/SELECT*
X134560000Y-97890000D02*
X134560000Y-115510000D01*
X131570000Y-94900000D02*
X134560000Y-97890000D01*
D17*
G04 #@! TO.N,+5V*
X115198630Y-99980000D02*
X113290000Y-101888630D01*
X116330000Y-99980000D02*
X115198630Y-99980000D01*
X113290000Y-108090000D02*
X120710000Y-115510000D01*
X113290000Y-101888630D02*
X113290000Y-108090000D01*
G04 #@! TD*
D19*
G04 #@! TO.N,GND*
G36*
X120985099Y-65653489D02*
X120770551Y-65768167D01*
X120582498Y-65922498D01*
X120543826Y-65969620D01*
X117099622Y-69413825D01*
X117052500Y-69452497D01*
X116898169Y-69640550D01*
X116783491Y-69855098D01*
X116783490Y-69855100D01*
X116712871Y-70087897D01*
X116689026Y-70329999D01*
X116695002Y-70390674D01*
X116695002Y-70651152D01*
X116611309Y-70625764D01*
X116400492Y-70605000D01*
X116259508Y-70605000D01*
X116048691Y-70625764D01*
X115778192Y-70707818D01*
X115528899Y-70841068D01*
X115310392Y-71020392D01*
X115131068Y-71238899D01*
X114997818Y-71488192D01*
X114915764Y-71758691D01*
X114888057Y-72040000D01*
X114915764Y-72321309D01*
X114997818Y-72591808D01*
X115131068Y-72841101D01*
X115310392Y-73059608D01*
X115528899Y-73238932D01*
X115661858Y-73310000D01*
X115528899Y-73381068D01*
X115310392Y-73560392D01*
X115131068Y-73778899D01*
X114997818Y-74028192D01*
X114915764Y-74298691D01*
X114888057Y-74580000D01*
X114915764Y-74861309D01*
X114997818Y-75131808D01*
X115131068Y-75381101D01*
X115310392Y-75599608D01*
X115528899Y-75778932D01*
X115661858Y-75850000D01*
X115528899Y-75921068D01*
X115310392Y-76100392D01*
X115131068Y-76318899D01*
X114997818Y-76568192D01*
X114915764Y-76838691D01*
X114888057Y-77120000D01*
X114915764Y-77401309D01*
X114997818Y-77671808D01*
X115131068Y-77921101D01*
X115310392Y-78139608D01*
X115528899Y-78318932D01*
X115661858Y-78390000D01*
X115528899Y-78461068D01*
X115310392Y-78640392D01*
X115131068Y-78858899D01*
X114997818Y-79108192D01*
X114915764Y-79378691D01*
X114888057Y-79660000D01*
X114915764Y-79941309D01*
X114997818Y-80211808D01*
X115131068Y-80461101D01*
X115310392Y-80679608D01*
X115528899Y-80858932D01*
X115661858Y-80930000D01*
X115528899Y-81001068D01*
X115310392Y-81180392D01*
X115131068Y-81398899D01*
X114997818Y-81648192D01*
X114915764Y-81918691D01*
X114888057Y-82200000D01*
X114915764Y-82481309D01*
X114997818Y-82751808D01*
X115131068Y-83001101D01*
X115310392Y-83219608D01*
X115528899Y-83398932D01*
X115661858Y-83470000D01*
X115528899Y-83541068D01*
X115310392Y-83720392D01*
X115131068Y-83938899D01*
X114997818Y-84188192D01*
X114915764Y-84458691D01*
X114888057Y-84740000D01*
X114915764Y-85021309D01*
X114997818Y-85291808D01*
X115131068Y-85541101D01*
X115310392Y-85759608D01*
X115528899Y-85938932D01*
X115661858Y-86010000D01*
X115528899Y-86081068D01*
X115310392Y-86260392D01*
X115131068Y-86478899D01*
X114997818Y-86728192D01*
X114915764Y-86998691D01*
X114888057Y-87280000D01*
X114915764Y-87561309D01*
X114997818Y-87831808D01*
X115131068Y-88081101D01*
X115310392Y-88299608D01*
X115528899Y-88478932D01*
X115661858Y-88550000D01*
X115528899Y-88621068D01*
X115310392Y-88800392D01*
X115131068Y-89018899D01*
X114997818Y-89268192D01*
X114915764Y-89538691D01*
X114888057Y-89820000D01*
X114915764Y-90101309D01*
X114997818Y-90371808D01*
X115131068Y-90621101D01*
X115310392Y-90839608D01*
X115528899Y-91018932D01*
X115661858Y-91090000D01*
X115528899Y-91161068D01*
X115310392Y-91340392D01*
X115131068Y-91558899D01*
X114997818Y-91808192D01*
X114915764Y-92078691D01*
X114888057Y-92360000D01*
X114915764Y-92641309D01*
X114997818Y-92911808D01*
X115131068Y-93161101D01*
X115310392Y-93379608D01*
X115528899Y-93558932D01*
X115661858Y-93630000D01*
X115528899Y-93701068D01*
X115310392Y-93880392D01*
X115131068Y-94098899D01*
X114997818Y-94348192D01*
X114915764Y-94618691D01*
X114888057Y-94900000D01*
X114915764Y-95181309D01*
X114997818Y-95451808D01*
X115131068Y-95701101D01*
X115310392Y-95919608D01*
X115528899Y-96098932D01*
X115661858Y-96170000D01*
X115528899Y-96241068D01*
X115310392Y-96420392D01*
X115131068Y-96638899D01*
X114997818Y-96888192D01*
X114915764Y-97158691D01*
X114888057Y-97440000D01*
X114915764Y-97721309D01*
X114997818Y-97991808D01*
X115131068Y-98241101D01*
X115310392Y-98459608D01*
X115528899Y-98638932D01*
X115661858Y-98710000D01*
X115596377Y-98745000D01*
X115259284Y-98745000D01*
X115198629Y-98739026D01*
X115137974Y-98745000D01*
X115137965Y-98745000D01*
X114956528Y-98762870D01*
X114723729Y-98833489D01*
X114509181Y-98948167D01*
X114321128Y-99102498D01*
X114282456Y-99149620D01*
X112459625Y-100972452D01*
X112412498Y-101011128D01*
X112258167Y-101199182D01*
X112143489Y-101413730D01*
X112117200Y-101500392D01*
X112072870Y-101646528D01*
X112049025Y-101888630D01*
X112055000Y-101949295D01*
X112055001Y-108029325D01*
X112049025Y-108090000D01*
X112072870Y-108332102D01*
X112143489Y-108564899D01*
X112143490Y-108564901D01*
X112258168Y-108779449D01*
X112412499Y-108967502D01*
X112459621Y-109006174D01*
X119317266Y-115863819D01*
X119330147Y-115928574D01*
X119438320Y-116189727D01*
X119595363Y-116424759D01*
X119795241Y-116624637D01*
X120030273Y-116781680D01*
X120291426Y-116889853D01*
X120568665Y-116945000D01*
X120851335Y-116945000D01*
X121128574Y-116889853D01*
X121335001Y-116804348D01*
X121335001Y-117131956D01*
X121180241Y-117235363D01*
X120980363Y-117435241D01*
X120823320Y-117670273D01*
X120715147Y-117931426D01*
X120660000Y-118208665D01*
X120660000Y-118491335D01*
X120715147Y-118768574D01*
X120823320Y-119029727D01*
X120980363Y-119264759D01*
X121180241Y-119464637D01*
X121415273Y-119621680D01*
X121676426Y-119729853D01*
X121953665Y-119785000D01*
X122236335Y-119785000D01*
X122513574Y-119729853D01*
X122774727Y-119621680D01*
X123009759Y-119464637D01*
X123209637Y-119264759D01*
X123366680Y-119029727D01*
X123474853Y-118768574D01*
X123480000Y-118742699D01*
X123485147Y-118768574D01*
X123593320Y-119029727D01*
X123750363Y-119264759D01*
X123950241Y-119464637D01*
X124185273Y-119621680D01*
X124446426Y-119729853D01*
X124723665Y-119785000D01*
X125006335Y-119785000D01*
X125283574Y-119729853D01*
X125544727Y-119621680D01*
X125779759Y-119464637D01*
X125979637Y-119264759D01*
X126136680Y-119029727D01*
X126244853Y-118768574D01*
X126250000Y-118742699D01*
X126255147Y-118768574D01*
X126363320Y-119029727D01*
X126520363Y-119264759D01*
X126720241Y-119464637D01*
X126955273Y-119621680D01*
X127216426Y-119729853D01*
X127493665Y-119785000D01*
X127776335Y-119785000D01*
X128053574Y-119729853D01*
X128314727Y-119621680D01*
X128549759Y-119464637D01*
X128749637Y-119264759D01*
X128906680Y-119029727D01*
X129014853Y-118768574D01*
X129020000Y-118742699D01*
X129025147Y-118768574D01*
X129133320Y-119029727D01*
X129290363Y-119264759D01*
X129490241Y-119464637D01*
X129725273Y-119621680D01*
X129986426Y-119729853D01*
X130263665Y-119785000D01*
X130546335Y-119785000D01*
X130823574Y-119729853D01*
X131084727Y-119621680D01*
X131319759Y-119464637D01*
X131519637Y-119264759D01*
X131676680Y-119029727D01*
X131784853Y-118768574D01*
X131790000Y-118742699D01*
X131795147Y-118768574D01*
X131903320Y-119029727D01*
X132060363Y-119264759D01*
X132260241Y-119464637D01*
X132495273Y-119621680D01*
X132756426Y-119729853D01*
X133033665Y-119785000D01*
X133316335Y-119785000D01*
X133593574Y-119729853D01*
X133854727Y-119621680D01*
X134089759Y-119464637D01*
X134289637Y-119264759D01*
X134446680Y-119029727D01*
X134554853Y-118768574D01*
X134560000Y-118742699D01*
X134565147Y-118768574D01*
X134673320Y-119029727D01*
X134830363Y-119264759D01*
X135030241Y-119464637D01*
X135265273Y-119621680D01*
X135526426Y-119729853D01*
X135803665Y-119785000D01*
X136086335Y-119785000D01*
X136363574Y-119729853D01*
X136624727Y-119621680D01*
X136859759Y-119464637D01*
X137059637Y-119264759D01*
X137216680Y-119029727D01*
X137324853Y-118768574D01*
X137330000Y-118742699D01*
X137335147Y-118768574D01*
X137443320Y-119029727D01*
X137600363Y-119264759D01*
X137800241Y-119464637D01*
X138035273Y-119621680D01*
X138296426Y-119729853D01*
X138573665Y-119785000D01*
X138856335Y-119785000D01*
X139133574Y-119729853D01*
X139394727Y-119621680D01*
X139629759Y-119464637D01*
X139829637Y-119264759D01*
X139986680Y-119029727D01*
X140091156Y-118777499D01*
X145387106Y-118777499D01*
X145603228Y-119144258D01*
X146063105Y-119384938D01*
X146561098Y-119531275D01*
X147078071Y-119577648D01*
X147594159Y-119522273D01*
X148089526Y-119367279D01*
X148506772Y-119144258D01*
X148722894Y-118777499D01*
X147055000Y-117109605D01*
X145387106Y-118777499D01*
X140091156Y-118777499D01*
X140094853Y-118768574D01*
X140150000Y-118491335D01*
X140150000Y-118208665D01*
X140094853Y-117931426D01*
X139986680Y-117670273D01*
X139829637Y-117435241D01*
X139629759Y-117235363D01*
X139394727Y-117078320D01*
X139133574Y-116970147D01*
X139047729Y-116953071D01*
X144407352Y-116953071D01*
X144462727Y-117469159D01*
X144617721Y-117964526D01*
X144840742Y-118381772D01*
X145207501Y-118597894D01*
X146875395Y-116930000D01*
X145207501Y-115262106D01*
X144840742Y-115478228D01*
X144600062Y-115938105D01*
X144453725Y-116436098D01*
X144407352Y-116953071D01*
X139047729Y-116953071D01*
X138856335Y-116915000D01*
X138573665Y-116915000D01*
X138296426Y-116970147D01*
X138035273Y-117078320D01*
X137800241Y-117235363D01*
X137600363Y-117435241D01*
X137443320Y-117670273D01*
X137335147Y-117931426D01*
X137330000Y-117957301D01*
X137324853Y-117931426D01*
X137216680Y-117670273D01*
X137059637Y-117435241D01*
X136859759Y-117235363D01*
X136624727Y-117078320D01*
X136363574Y-116970147D01*
X136086335Y-116915000D01*
X135803665Y-116915000D01*
X135526426Y-116970147D01*
X135265273Y-117078320D01*
X135030241Y-117235363D01*
X134830363Y-117435241D01*
X134673320Y-117670273D01*
X134565147Y-117931426D01*
X134560000Y-117957301D01*
X134554853Y-117931426D01*
X134446680Y-117670273D01*
X134289637Y-117435241D01*
X134089759Y-117235363D01*
X133935000Y-117131957D01*
X133935000Y-116804349D01*
X134141426Y-116889853D01*
X134418665Y-116945000D01*
X134701335Y-116945000D01*
X134978574Y-116889853D01*
X135239727Y-116781680D01*
X135474759Y-116624637D01*
X135674637Y-116424759D01*
X135831680Y-116189727D01*
X135939853Y-115928574D01*
X135945000Y-115902699D01*
X135950147Y-115928574D01*
X136058320Y-116189727D01*
X136215363Y-116424759D01*
X136415241Y-116624637D01*
X136650273Y-116781680D01*
X136911426Y-116889853D01*
X137188665Y-116945000D01*
X137471335Y-116945000D01*
X137748574Y-116889853D01*
X138009727Y-116781680D01*
X138244759Y-116624637D01*
X138444637Y-116424759D01*
X138601680Y-116189727D01*
X138665000Y-116036859D01*
X138665000Y-116372542D01*
X138689403Y-116495223D01*
X138737270Y-116610785D01*
X138806763Y-116714789D01*
X138895211Y-116803237D01*
X138999215Y-116872730D01*
X139114777Y-116920597D01*
X139237458Y-116945000D01*
X139814250Y-116945000D01*
X139973000Y-116786250D01*
X139973000Y-115637000D01*
X140227000Y-115637000D01*
X140227000Y-116786250D01*
X140385750Y-116945000D01*
X140962542Y-116945000D01*
X141085223Y-116920597D01*
X141200785Y-116872730D01*
X141304789Y-116803237D01*
X141393237Y-116714789D01*
X141462730Y-116610785D01*
X141510597Y-116495223D01*
X141535000Y-116372542D01*
X141535000Y-115795750D01*
X141376250Y-115637000D01*
X140227000Y-115637000D01*
X139973000Y-115637000D01*
X139953000Y-115637000D01*
X139953000Y-115383000D01*
X139973000Y-115383000D01*
X139973000Y-114233750D01*
X140227000Y-114233750D01*
X140227000Y-115383000D01*
X141376250Y-115383000D01*
X141535000Y-115224250D01*
X141535000Y-115082501D01*
X145387106Y-115082501D01*
X147055000Y-116750395D01*
X148722894Y-115082501D01*
X148506772Y-114715742D01*
X148046895Y-114475062D01*
X147548902Y-114328725D01*
X147031929Y-114282352D01*
X146515841Y-114337727D01*
X146020474Y-114492721D01*
X145603228Y-114715742D01*
X145387106Y-115082501D01*
X141535000Y-115082501D01*
X141535000Y-114647458D01*
X141510597Y-114524777D01*
X141462730Y-114409215D01*
X141393237Y-114305211D01*
X141304789Y-114216763D01*
X141200785Y-114147270D01*
X141085223Y-114099403D01*
X140962542Y-114075000D01*
X140385750Y-114075000D01*
X140227000Y-114233750D01*
X139973000Y-114233750D01*
X139814250Y-114075000D01*
X139237458Y-114075000D01*
X139114777Y-114099403D01*
X138999215Y-114147270D01*
X138895211Y-114216763D01*
X138806763Y-114305211D01*
X138737270Y-114409215D01*
X138689403Y-114524777D01*
X138665000Y-114647458D01*
X138665000Y-114983141D01*
X138601680Y-114830273D01*
X138444637Y-114595241D01*
X138244759Y-114395363D01*
X138009727Y-114238320D01*
X137748574Y-114130147D01*
X137471335Y-114075000D01*
X137188665Y-114075000D01*
X136911426Y-114130147D01*
X136650273Y-114238320D01*
X136415241Y-114395363D01*
X136215363Y-114595241D01*
X136058320Y-114830273D01*
X135950147Y-115091426D01*
X135945000Y-115117301D01*
X135939853Y-115091426D01*
X135831680Y-114830273D01*
X135674637Y-114595241D01*
X135474759Y-114395363D01*
X135320000Y-114291957D01*
X135320000Y-105778967D01*
X140625000Y-105778967D01*
X140625000Y-106101033D01*
X140687832Y-106416912D01*
X140811082Y-106714463D01*
X140990013Y-106982252D01*
X141217748Y-107209987D01*
X141485537Y-107388918D01*
X141783088Y-107512168D01*
X142098967Y-107575000D01*
X142421033Y-107575000D01*
X142736912Y-107512168D01*
X143034463Y-107388918D01*
X143302252Y-107209987D01*
X143529987Y-106982252D01*
X143708918Y-106714463D01*
X143832168Y-106416912D01*
X143895000Y-106101033D01*
X143895000Y-105778967D01*
X143832168Y-105463088D01*
X143708918Y-105165537D01*
X143529987Y-104897748D01*
X143302252Y-104670013D01*
X143034463Y-104491082D01*
X142736912Y-104367832D01*
X142421033Y-104305000D01*
X142098967Y-104305000D01*
X141783088Y-104367832D01*
X141485537Y-104491082D01*
X141217748Y-104670013D01*
X140990013Y-104897748D01*
X140811082Y-105165537D01*
X140687832Y-105463088D01*
X140625000Y-105778967D01*
X135320000Y-105778967D01*
X135320000Y-101778967D01*
X140625000Y-101778967D01*
X140625000Y-102101033D01*
X140687832Y-102416912D01*
X140811082Y-102714463D01*
X140990013Y-102982252D01*
X141217748Y-103209987D01*
X141485537Y-103388918D01*
X141783088Y-103512168D01*
X142098967Y-103575000D01*
X142421033Y-103575000D01*
X142736912Y-103512168D01*
X143034463Y-103388918D01*
X143302252Y-103209987D01*
X143529987Y-102982252D01*
X143708918Y-102714463D01*
X143832168Y-102416912D01*
X143895000Y-102101033D01*
X143895000Y-101778967D01*
X143832168Y-101463088D01*
X143708918Y-101165537D01*
X143529987Y-100897748D01*
X143302252Y-100670013D01*
X143034463Y-100491082D01*
X142736912Y-100367832D01*
X142421033Y-100305000D01*
X142098967Y-100305000D01*
X141783088Y-100367832D01*
X141485537Y-100491082D01*
X141217748Y-100670013D01*
X140990013Y-100897748D01*
X140811082Y-101165537D01*
X140687832Y-101463088D01*
X140625000Y-101778967D01*
X135320000Y-101778967D01*
X135320000Y-97927333D01*
X135323677Y-97890000D01*
X135312742Y-97778967D01*
X140625000Y-97778967D01*
X140625000Y-98101033D01*
X140687832Y-98416912D01*
X140811082Y-98714463D01*
X140990013Y-98982252D01*
X141217748Y-99209987D01*
X141485537Y-99388918D01*
X141783088Y-99512168D01*
X142098967Y-99575000D01*
X142421033Y-99575000D01*
X142736912Y-99512168D01*
X143034463Y-99388918D01*
X143302252Y-99209987D01*
X143529987Y-98982252D01*
X143708918Y-98714463D01*
X143832168Y-98416912D01*
X143895000Y-98101033D01*
X143895000Y-97778967D01*
X143832168Y-97463088D01*
X143708918Y-97165537D01*
X143529987Y-96897748D01*
X143302252Y-96670013D01*
X143034463Y-96491082D01*
X142736912Y-96367832D01*
X142421033Y-96305000D01*
X142098967Y-96305000D01*
X141783088Y-96367832D01*
X141485537Y-96491082D01*
X141217748Y-96670013D01*
X140990013Y-96897748D01*
X140811082Y-97165537D01*
X140687832Y-97463088D01*
X140625000Y-97778967D01*
X135312742Y-97778967D01*
X135309003Y-97741014D01*
X135265546Y-97597753D01*
X135194974Y-97465724D01*
X135154410Y-97416297D01*
X135100001Y-97349999D01*
X135071004Y-97326202D01*
X132970708Y-95225906D01*
X132984236Y-95181309D01*
X133011943Y-94900000D01*
X132984236Y-94618691D01*
X132902182Y-94348192D01*
X132768932Y-94098899D01*
X132589608Y-93880392D01*
X132466022Y-93778967D01*
X140625000Y-93778967D01*
X140625000Y-94101033D01*
X140687832Y-94416912D01*
X140811082Y-94714463D01*
X140990013Y-94982252D01*
X141217748Y-95209987D01*
X141485537Y-95388918D01*
X141783088Y-95512168D01*
X142098967Y-95575000D01*
X142421033Y-95575000D01*
X142736912Y-95512168D01*
X143034463Y-95388918D01*
X143302252Y-95209987D01*
X143529987Y-94982252D01*
X143708918Y-94714463D01*
X143832168Y-94416912D01*
X143895000Y-94101033D01*
X143895000Y-93778967D01*
X143832168Y-93463088D01*
X143708918Y-93165537D01*
X143529987Y-92897748D01*
X143302252Y-92670013D01*
X143034463Y-92491082D01*
X142736912Y-92367832D01*
X142421033Y-92305000D01*
X142098967Y-92305000D01*
X141783088Y-92367832D01*
X141485537Y-92491082D01*
X141217748Y-92670013D01*
X140990013Y-92897748D01*
X140811082Y-93165537D01*
X140687832Y-93463088D01*
X140625000Y-93778967D01*
X132466022Y-93778967D01*
X132371101Y-93701068D01*
X132238142Y-93630000D01*
X132371101Y-93558932D01*
X132589608Y-93379608D01*
X132768932Y-93161101D01*
X132902182Y-92911808D01*
X132984236Y-92641309D01*
X133011943Y-92360000D01*
X132984236Y-92078691D01*
X132902182Y-91808192D01*
X132768932Y-91558899D01*
X132664504Y-91431653D01*
X135447952Y-91431653D01*
X135603962Y-91747214D01*
X135978745Y-91938020D01*
X136383551Y-92052044D01*
X136802824Y-92084902D01*
X137220451Y-92035334D01*
X137620383Y-91905243D01*
X137916038Y-91747214D01*
X138072048Y-91431653D01*
X136760000Y-90119605D01*
X135447952Y-91431653D01*
X132664504Y-91431653D01*
X132589608Y-91340392D01*
X132371101Y-91161068D01*
X132238142Y-91090000D01*
X132371101Y-91018932D01*
X132589608Y-90839608D01*
X132768932Y-90621101D01*
X132902182Y-90371808D01*
X132984236Y-90101309D01*
X132995905Y-89982824D01*
X134615098Y-89982824D01*
X134664666Y-90400451D01*
X134794757Y-90800383D01*
X134952786Y-91096038D01*
X135268347Y-91252048D01*
X136580395Y-89940000D01*
X136939605Y-89940000D01*
X138251653Y-91252048D01*
X138567214Y-91096038D01*
X138758020Y-90721255D01*
X138872044Y-90316449D01*
X138904902Y-89897176D01*
X138855334Y-89479549D01*
X138725243Y-89079617D01*
X138567214Y-88783962D01*
X138251653Y-88627952D01*
X136939605Y-89940000D01*
X136580395Y-89940000D01*
X135268347Y-88627952D01*
X134952786Y-88783962D01*
X134761980Y-89158745D01*
X134647956Y-89563551D01*
X134615098Y-89982824D01*
X132995905Y-89982824D01*
X133011943Y-89820000D01*
X132984236Y-89538691D01*
X132902182Y-89268192D01*
X132768932Y-89018899D01*
X132589608Y-88800392D01*
X132371101Y-88621068D01*
X132238142Y-88550000D01*
X132371101Y-88478932D01*
X132408368Y-88448347D01*
X135447952Y-88448347D01*
X136760000Y-89760395D01*
X138072048Y-88448347D01*
X137916038Y-88132786D01*
X137541255Y-87941980D01*
X137136449Y-87827956D01*
X136717176Y-87795098D01*
X136299549Y-87844666D01*
X135899617Y-87974757D01*
X135603962Y-88132786D01*
X135447952Y-88448347D01*
X132408368Y-88448347D01*
X132589608Y-88299608D01*
X132768932Y-88081101D01*
X132902182Y-87831808D01*
X132984236Y-87561309D01*
X133011943Y-87280000D01*
X132984236Y-86998691D01*
X132902182Y-86728192D01*
X132768932Y-86478899D01*
X132589608Y-86260392D01*
X132371101Y-86081068D01*
X132238142Y-86010000D01*
X132251995Y-86002595D01*
X140618282Y-86002595D01*
X140662039Y-86321675D01*
X140767205Y-86626088D01*
X140860186Y-86800044D01*
X141124587Y-86895808D01*
X142080395Y-85940000D01*
X141124587Y-84984192D01*
X140860186Y-85079956D01*
X140719296Y-85369571D01*
X140637616Y-85681108D01*
X140618282Y-86002595D01*
X132251995Y-86002595D01*
X132371101Y-85938932D01*
X132589608Y-85759608D01*
X132768932Y-85541101D01*
X132902182Y-85291808D01*
X132984236Y-85021309D01*
X133005581Y-84804587D01*
X141304192Y-84804587D01*
X142260000Y-85760395D01*
X143215808Y-84804587D01*
X143120044Y-84540186D01*
X142830429Y-84399296D01*
X142518892Y-84317616D01*
X142197405Y-84298282D01*
X141878325Y-84342039D01*
X141573912Y-84447205D01*
X141399956Y-84540186D01*
X141304192Y-84804587D01*
X133005581Y-84804587D01*
X133011943Y-84740000D01*
X132984236Y-84458691D01*
X132902182Y-84188192D01*
X132768932Y-83938899D01*
X132589608Y-83720392D01*
X132371101Y-83541068D01*
X132238142Y-83470000D01*
X132371101Y-83398932D01*
X132589608Y-83219608D01*
X132768932Y-83001101D01*
X132902182Y-82751808D01*
X132984236Y-82481309D01*
X133011943Y-82200000D01*
X132984236Y-81918691D01*
X132941852Y-81778967D01*
X140625000Y-81778967D01*
X140625000Y-82101033D01*
X140687832Y-82416912D01*
X140811082Y-82714463D01*
X140990013Y-82982252D01*
X141217748Y-83209987D01*
X141485537Y-83388918D01*
X141783088Y-83512168D01*
X142098967Y-83575000D01*
X142421033Y-83575000D01*
X142736912Y-83512168D01*
X143034463Y-83388918D01*
X143302252Y-83209987D01*
X143529987Y-82982252D01*
X143708918Y-82714463D01*
X143832168Y-82416912D01*
X143895000Y-82101033D01*
X143895000Y-81778967D01*
X143832168Y-81463088D01*
X143708918Y-81165537D01*
X143529987Y-80897748D01*
X143302252Y-80670013D01*
X143034463Y-80491082D01*
X142736912Y-80367832D01*
X142421033Y-80305000D01*
X142098967Y-80305000D01*
X141783088Y-80367832D01*
X141485537Y-80491082D01*
X141217748Y-80670013D01*
X140990013Y-80897748D01*
X140811082Y-81165537D01*
X140687832Y-81463088D01*
X140625000Y-81778967D01*
X132941852Y-81778967D01*
X132902182Y-81648192D01*
X132768932Y-81398899D01*
X132589608Y-81180392D01*
X132371101Y-81001068D01*
X132238142Y-80930000D01*
X132371101Y-80858932D01*
X132589608Y-80679608D01*
X132768932Y-80461101D01*
X132902182Y-80211808D01*
X132984236Y-79941309D01*
X133011943Y-79660000D01*
X132984236Y-79378691D01*
X132902182Y-79108192D01*
X132768932Y-78858899D01*
X132589608Y-78640392D01*
X132371101Y-78461068D01*
X132238142Y-78390000D01*
X132371101Y-78318932D01*
X132589608Y-78139608D01*
X132768932Y-77921101D01*
X132844904Y-77778967D01*
X140625000Y-77778967D01*
X140625000Y-78101033D01*
X140687832Y-78416912D01*
X140811082Y-78714463D01*
X140990013Y-78982252D01*
X141217748Y-79209987D01*
X141485537Y-79388918D01*
X141783088Y-79512168D01*
X142098967Y-79575000D01*
X142421033Y-79575000D01*
X142736912Y-79512168D01*
X143034463Y-79388918D01*
X143302252Y-79209987D01*
X143529987Y-78982252D01*
X143708918Y-78714463D01*
X143832168Y-78416912D01*
X143895000Y-78101033D01*
X143895000Y-77778967D01*
X143832168Y-77463088D01*
X143708918Y-77165537D01*
X143529987Y-76897748D01*
X143302252Y-76670013D01*
X143034463Y-76491082D01*
X142736912Y-76367832D01*
X142421033Y-76305000D01*
X142098967Y-76305000D01*
X141783088Y-76367832D01*
X141485537Y-76491082D01*
X141217748Y-76670013D01*
X140990013Y-76897748D01*
X140811082Y-77165537D01*
X140687832Y-77463088D01*
X140625000Y-77778967D01*
X132844904Y-77778967D01*
X132902182Y-77671808D01*
X132984236Y-77401309D01*
X133011943Y-77120000D01*
X132984236Y-76838691D01*
X132902182Y-76568192D01*
X132768932Y-76318899D01*
X132589608Y-76100392D01*
X132371101Y-75921068D01*
X132238142Y-75850000D01*
X132371101Y-75778932D01*
X132589608Y-75599608D01*
X132768932Y-75381101D01*
X132902182Y-75131808D01*
X132984236Y-74861309D01*
X133011943Y-74580000D01*
X132984236Y-74298691D01*
X132902182Y-74028192D01*
X132768969Y-73778967D01*
X140625000Y-73778967D01*
X140625000Y-74101033D01*
X140687832Y-74416912D01*
X140811082Y-74714463D01*
X140990013Y-74982252D01*
X141217748Y-75209987D01*
X141485537Y-75388918D01*
X141783088Y-75512168D01*
X142098967Y-75575000D01*
X142421033Y-75575000D01*
X142736912Y-75512168D01*
X143034463Y-75388918D01*
X143302252Y-75209987D01*
X143529987Y-74982252D01*
X143708918Y-74714463D01*
X143832168Y-74416912D01*
X143895000Y-74101033D01*
X143895000Y-73778967D01*
X143832168Y-73463088D01*
X143708918Y-73165537D01*
X143529987Y-72897748D01*
X143302252Y-72670013D01*
X143034463Y-72491082D01*
X142736912Y-72367832D01*
X142421033Y-72305000D01*
X142098967Y-72305000D01*
X141783088Y-72367832D01*
X141485537Y-72491082D01*
X141217748Y-72670013D01*
X140990013Y-72897748D01*
X140811082Y-73165537D01*
X140687832Y-73463088D01*
X140625000Y-73778967D01*
X132768969Y-73778967D01*
X132768932Y-73778899D01*
X132589608Y-73560392D01*
X132371101Y-73381068D01*
X132238142Y-73310000D01*
X132371101Y-73238932D01*
X132589608Y-73059608D01*
X132768932Y-72841101D01*
X132902182Y-72591808D01*
X132984236Y-72321309D01*
X133011943Y-72040000D01*
X132984236Y-71758691D01*
X132902182Y-71488192D01*
X132768932Y-71238899D01*
X132589608Y-71020392D01*
X132371101Y-70841068D01*
X132121808Y-70707818D01*
X131851309Y-70625764D01*
X131640492Y-70605000D01*
X131499508Y-70605000D01*
X131288691Y-70625764D01*
X131018192Y-70707818D01*
X130768899Y-70841068D01*
X130550392Y-71020392D01*
X130371068Y-71238899D01*
X130237818Y-71488192D01*
X130155764Y-71758691D01*
X130128057Y-72040000D01*
X130155764Y-72321309D01*
X130237818Y-72591808D01*
X130371068Y-72841101D01*
X130550392Y-73059608D01*
X130768899Y-73238932D01*
X130901858Y-73310000D01*
X130768899Y-73381068D01*
X130550392Y-73560392D01*
X130371068Y-73778899D01*
X130237818Y-74028192D01*
X130155764Y-74298691D01*
X130128057Y-74580000D01*
X130155764Y-74861309D01*
X130237818Y-75131808D01*
X130371068Y-75381101D01*
X130550392Y-75599608D01*
X130768899Y-75778932D01*
X130901858Y-75850000D01*
X130768899Y-75921068D01*
X130550392Y-76100392D01*
X130371068Y-76318899D01*
X130237818Y-76568192D01*
X130155764Y-76838691D01*
X130128057Y-77120000D01*
X130155764Y-77401309D01*
X130237818Y-77671808D01*
X130371068Y-77921101D01*
X130550392Y-78139608D01*
X130768899Y-78318932D01*
X130901858Y-78390000D01*
X130768899Y-78461068D01*
X130550392Y-78640392D01*
X130371068Y-78858899D01*
X130237818Y-79108192D01*
X130155764Y-79378691D01*
X130128057Y-79660000D01*
X130155764Y-79941309D01*
X130237818Y-80211808D01*
X130371068Y-80461101D01*
X130550392Y-80679608D01*
X130768899Y-80858932D01*
X130901858Y-80930000D01*
X130768899Y-81001068D01*
X130550392Y-81180392D01*
X130371068Y-81398899D01*
X130237818Y-81648192D01*
X130155764Y-81918691D01*
X130128057Y-82200000D01*
X130155764Y-82481309D01*
X130237818Y-82751808D01*
X130371068Y-83001101D01*
X130550392Y-83219608D01*
X130768899Y-83398932D01*
X130901858Y-83470000D01*
X130768899Y-83541068D01*
X130550392Y-83720392D01*
X130371068Y-83938899D01*
X130237818Y-84188192D01*
X130155764Y-84458691D01*
X130128057Y-84740000D01*
X130155764Y-85021309D01*
X130237818Y-85291808D01*
X130371068Y-85541101D01*
X130550392Y-85759608D01*
X130768899Y-85938932D01*
X130901858Y-86010000D01*
X130768899Y-86081068D01*
X130550392Y-86260392D01*
X130371068Y-86478899D01*
X130237818Y-86728192D01*
X130155764Y-86998691D01*
X130128057Y-87280000D01*
X130155764Y-87561309D01*
X130237818Y-87831808D01*
X130371068Y-88081101D01*
X130550392Y-88299608D01*
X130768899Y-88478932D01*
X130901858Y-88550000D01*
X130768899Y-88621068D01*
X130550392Y-88800392D01*
X130371068Y-89018899D01*
X130237818Y-89268192D01*
X130155764Y-89538691D01*
X130128057Y-89820000D01*
X130155764Y-90101309D01*
X130237818Y-90371808D01*
X130371068Y-90621101D01*
X130550392Y-90839608D01*
X130768899Y-91018932D01*
X130901858Y-91090000D01*
X130768899Y-91161068D01*
X130550392Y-91340392D01*
X130371068Y-91558899D01*
X130237818Y-91808192D01*
X130155764Y-92078691D01*
X130128057Y-92360000D01*
X130155764Y-92641309D01*
X130237818Y-92911808D01*
X130371068Y-93161101D01*
X130550392Y-93379608D01*
X130768899Y-93558932D01*
X130901858Y-93630000D01*
X130768899Y-93701068D01*
X130550392Y-93880392D01*
X130371068Y-94098899D01*
X130237818Y-94348192D01*
X130155764Y-94618691D01*
X130128057Y-94900000D01*
X130130598Y-94925796D01*
X117730708Y-82525907D01*
X117744236Y-82481309D01*
X117771943Y-82200000D01*
X117744236Y-81918691D01*
X117662182Y-81648192D01*
X117528932Y-81398899D01*
X117349608Y-81180392D01*
X117131101Y-81001068D01*
X116998142Y-80930000D01*
X117131101Y-80858932D01*
X117349608Y-80679608D01*
X117528932Y-80461101D01*
X117662182Y-80211808D01*
X117744236Y-79941309D01*
X117771943Y-79660000D01*
X117744236Y-79378691D01*
X117662182Y-79108192D01*
X117528932Y-78858899D01*
X117349608Y-78640392D01*
X117131101Y-78461068D01*
X116998142Y-78390000D01*
X117131101Y-78318932D01*
X117349608Y-78139608D01*
X117528932Y-77921101D01*
X117662182Y-77671808D01*
X117744236Y-77401309D01*
X117771943Y-77120000D01*
X117744236Y-76838691D01*
X117662182Y-76568192D01*
X117528932Y-76318899D01*
X117349608Y-76100392D01*
X117131101Y-75921068D01*
X116998142Y-75850000D01*
X117131101Y-75778932D01*
X117349608Y-75599608D01*
X117528932Y-75381101D01*
X117662182Y-75131808D01*
X117722026Y-74934528D01*
X118760382Y-73896172D01*
X118807503Y-73857501D01*
X118961834Y-73669448D01*
X119076512Y-73454900D01*
X119139330Y-73247818D01*
X119147131Y-73222102D01*
X119170976Y-72980000D01*
X119165001Y-72919335D01*
X119165001Y-70841552D01*
X121971554Y-68035000D01*
X137272449Y-68035000D01*
X140657828Y-71420380D01*
X140696500Y-71467502D01*
X140884553Y-71621833D01*
X141099101Y-71736511D01*
X141331900Y-71807130D01*
X141513337Y-71825000D01*
X141513346Y-71825000D01*
X141574001Y-71830974D01*
X141634656Y-71825000D01*
X142968447Y-71825000D01*
X144245000Y-73101554D01*
X144245001Y-86208445D01*
X143665888Y-86787558D01*
X143800704Y-86510429D01*
X143882384Y-86198892D01*
X143901718Y-85877405D01*
X143857961Y-85558325D01*
X143752795Y-85253912D01*
X143659814Y-85079956D01*
X143395413Y-84984192D01*
X142439605Y-85940000D01*
X142453748Y-85954143D01*
X142274143Y-86133748D01*
X142260000Y-86119605D01*
X141304192Y-87075413D01*
X141399956Y-87339814D01*
X141689571Y-87480704D01*
X142001108Y-87562384D01*
X142322595Y-87581718D01*
X142641675Y-87537961D01*
X142946088Y-87432795D01*
X143106270Y-87347176D01*
X142148447Y-88305000D01*
X142098967Y-88305000D01*
X141783088Y-88367832D01*
X141485537Y-88491082D01*
X141217748Y-88670013D01*
X140990013Y-88897748D01*
X140811082Y-89165537D01*
X140687832Y-89463088D01*
X140625000Y-89778967D01*
X140625000Y-90101033D01*
X140687832Y-90416912D01*
X140811082Y-90714463D01*
X140990013Y-90982252D01*
X141217748Y-91209987D01*
X141485537Y-91388918D01*
X141783088Y-91512168D01*
X142098967Y-91575000D01*
X142421033Y-91575000D01*
X142736912Y-91512168D01*
X143034463Y-91388918D01*
X143302252Y-91209987D01*
X143529987Y-90982252D01*
X143708918Y-90714463D01*
X143832168Y-90416912D01*
X143895000Y-90101033D01*
X143895000Y-90051553D01*
X146310380Y-87636174D01*
X146357502Y-87597502D01*
X146511833Y-87409449D01*
X146626511Y-87194901D01*
X146697130Y-86962102D01*
X146715000Y-86780665D01*
X146720975Y-86720000D01*
X146715000Y-86659335D01*
X146715000Y-72650664D01*
X146720975Y-72589999D01*
X146697130Y-72347897D01*
X146626511Y-72115099D01*
X146586370Y-72040000D01*
X146511833Y-71900551D01*
X146357502Y-71712498D01*
X146310381Y-71673827D01*
X144396178Y-69759625D01*
X144357502Y-69712498D01*
X144169449Y-69558167D01*
X143954901Y-69443489D01*
X143722102Y-69372870D01*
X143540665Y-69355000D01*
X143480000Y-69349025D01*
X143419335Y-69355000D01*
X142085556Y-69355000D01*
X138700180Y-65969625D01*
X138661504Y-65922498D01*
X138473451Y-65768167D01*
X138258903Y-65653489D01*
X138197953Y-65635000D01*
X149385000Y-65635000D01*
X149385001Y-115694769D01*
X149269258Y-115478228D01*
X148902499Y-115262106D01*
X147234605Y-116930000D01*
X148902499Y-118597894D01*
X149269258Y-118381772D01*
X149385001Y-118160617D01*
X149385001Y-125325000D01*
X111435000Y-125325000D01*
X111435000Y-118777499D01*
X112087106Y-118777499D01*
X112303228Y-119144258D01*
X112763105Y-119384938D01*
X113261098Y-119531275D01*
X113778071Y-119577648D01*
X114294159Y-119522273D01*
X114789526Y-119367279D01*
X115206772Y-119144258D01*
X115422894Y-118777499D01*
X113755000Y-117109605D01*
X112087106Y-118777499D01*
X111435000Y-118777499D01*
X111435000Y-118183941D01*
X111540742Y-118381772D01*
X111907501Y-118597894D01*
X113575395Y-116930000D01*
X113934605Y-116930000D01*
X115602499Y-118597894D01*
X115969258Y-118381772D01*
X116209938Y-117921895D01*
X116356275Y-117423902D01*
X116402648Y-116906929D01*
X116347273Y-116390841D01*
X116192279Y-115895474D01*
X115969258Y-115478228D01*
X115602499Y-115262106D01*
X113934605Y-116930000D01*
X113575395Y-116930000D01*
X111907501Y-115262106D01*
X111540742Y-115478228D01*
X111435000Y-115680274D01*
X111435000Y-115082501D01*
X112087106Y-115082501D01*
X113755000Y-116750395D01*
X115422894Y-115082501D01*
X115206772Y-114715742D01*
X114746895Y-114475062D01*
X114248902Y-114328725D01*
X113731929Y-114282352D01*
X113215841Y-114337727D01*
X112720474Y-114492721D01*
X112303228Y-114715742D01*
X112087106Y-115082501D01*
X111435000Y-115082501D01*
X111435000Y-65635000D01*
X121046049Y-65635000D01*
X120985099Y-65653489D01*
X120985099Y-65653489D01*
G37*
X120985099Y-65653489D02*
X120770551Y-65768167D01*
X120582498Y-65922498D01*
X120543826Y-65969620D01*
X117099622Y-69413825D01*
X117052500Y-69452497D01*
X116898169Y-69640550D01*
X116783491Y-69855098D01*
X116783490Y-69855100D01*
X116712871Y-70087897D01*
X116689026Y-70329999D01*
X116695002Y-70390674D01*
X116695002Y-70651152D01*
X116611309Y-70625764D01*
X116400492Y-70605000D01*
X116259508Y-70605000D01*
X116048691Y-70625764D01*
X115778192Y-70707818D01*
X115528899Y-70841068D01*
X115310392Y-71020392D01*
X115131068Y-71238899D01*
X114997818Y-71488192D01*
X114915764Y-71758691D01*
X114888057Y-72040000D01*
X114915764Y-72321309D01*
X114997818Y-72591808D01*
X115131068Y-72841101D01*
X115310392Y-73059608D01*
X115528899Y-73238932D01*
X115661858Y-73310000D01*
X115528899Y-73381068D01*
X115310392Y-73560392D01*
X115131068Y-73778899D01*
X114997818Y-74028192D01*
X114915764Y-74298691D01*
X114888057Y-74580000D01*
X114915764Y-74861309D01*
X114997818Y-75131808D01*
X115131068Y-75381101D01*
X115310392Y-75599608D01*
X115528899Y-75778932D01*
X115661858Y-75850000D01*
X115528899Y-75921068D01*
X115310392Y-76100392D01*
X115131068Y-76318899D01*
X114997818Y-76568192D01*
X114915764Y-76838691D01*
X114888057Y-77120000D01*
X114915764Y-77401309D01*
X114997818Y-77671808D01*
X115131068Y-77921101D01*
X115310392Y-78139608D01*
X115528899Y-78318932D01*
X115661858Y-78390000D01*
X115528899Y-78461068D01*
X115310392Y-78640392D01*
X115131068Y-78858899D01*
X114997818Y-79108192D01*
X114915764Y-79378691D01*
X114888057Y-79660000D01*
X114915764Y-79941309D01*
X114997818Y-80211808D01*
X115131068Y-80461101D01*
X115310392Y-80679608D01*
X115528899Y-80858932D01*
X115661858Y-80930000D01*
X115528899Y-81001068D01*
X115310392Y-81180392D01*
X115131068Y-81398899D01*
X114997818Y-81648192D01*
X114915764Y-81918691D01*
X114888057Y-82200000D01*
X114915764Y-82481309D01*
X114997818Y-82751808D01*
X115131068Y-83001101D01*
X115310392Y-83219608D01*
X115528899Y-83398932D01*
X115661858Y-83470000D01*
X115528899Y-83541068D01*
X115310392Y-83720392D01*
X115131068Y-83938899D01*
X114997818Y-84188192D01*
X114915764Y-84458691D01*
X114888057Y-84740000D01*
X114915764Y-85021309D01*
X114997818Y-85291808D01*
X115131068Y-85541101D01*
X115310392Y-85759608D01*
X115528899Y-85938932D01*
X115661858Y-86010000D01*
X115528899Y-86081068D01*
X115310392Y-86260392D01*
X115131068Y-86478899D01*
X114997818Y-86728192D01*
X114915764Y-86998691D01*
X114888057Y-87280000D01*
X114915764Y-87561309D01*
X114997818Y-87831808D01*
X115131068Y-88081101D01*
X115310392Y-88299608D01*
X115528899Y-88478932D01*
X115661858Y-88550000D01*
X115528899Y-88621068D01*
X115310392Y-88800392D01*
X115131068Y-89018899D01*
X114997818Y-89268192D01*
X114915764Y-89538691D01*
X114888057Y-89820000D01*
X114915764Y-90101309D01*
X114997818Y-90371808D01*
X115131068Y-90621101D01*
X115310392Y-90839608D01*
X115528899Y-91018932D01*
X115661858Y-91090000D01*
X115528899Y-91161068D01*
X115310392Y-91340392D01*
X115131068Y-91558899D01*
X114997818Y-91808192D01*
X114915764Y-92078691D01*
X114888057Y-92360000D01*
X114915764Y-92641309D01*
X114997818Y-92911808D01*
X115131068Y-93161101D01*
X115310392Y-93379608D01*
X115528899Y-93558932D01*
X115661858Y-93630000D01*
X115528899Y-93701068D01*
X115310392Y-93880392D01*
X115131068Y-94098899D01*
X114997818Y-94348192D01*
X114915764Y-94618691D01*
X114888057Y-94900000D01*
X114915764Y-95181309D01*
X114997818Y-95451808D01*
X115131068Y-95701101D01*
X115310392Y-95919608D01*
X115528899Y-96098932D01*
X115661858Y-96170000D01*
X115528899Y-96241068D01*
X115310392Y-96420392D01*
X115131068Y-96638899D01*
X114997818Y-96888192D01*
X114915764Y-97158691D01*
X114888057Y-97440000D01*
X114915764Y-97721309D01*
X114997818Y-97991808D01*
X115131068Y-98241101D01*
X115310392Y-98459608D01*
X115528899Y-98638932D01*
X115661858Y-98710000D01*
X115596377Y-98745000D01*
X115259284Y-98745000D01*
X115198629Y-98739026D01*
X115137974Y-98745000D01*
X115137965Y-98745000D01*
X114956528Y-98762870D01*
X114723729Y-98833489D01*
X114509181Y-98948167D01*
X114321128Y-99102498D01*
X114282456Y-99149620D01*
X112459625Y-100972452D01*
X112412498Y-101011128D01*
X112258167Y-101199182D01*
X112143489Y-101413730D01*
X112117200Y-101500392D01*
X112072870Y-101646528D01*
X112049025Y-101888630D01*
X112055000Y-101949295D01*
X112055001Y-108029325D01*
X112049025Y-108090000D01*
X112072870Y-108332102D01*
X112143489Y-108564899D01*
X112143490Y-108564901D01*
X112258168Y-108779449D01*
X112412499Y-108967502D01*
X112459621Y-109006174D01*
X119317266Y-115863819D01*
X119330147Y-115928574D01*
X119438320Y-116189727D01*
X119595363Y-116424759D01*
X119795241Y-116624637D01*
X120030273Y-116781680D01*
X120291426Y-116889853D01*
X120568665Y-116945000D01*
X120851335Y-116945000D01*
X121128574Y-116889853D01*
X121335001Y-116804348D01*
X121335001Y-117131956D01*
X121180241Y-117235363D01*
X120980363Y-117435241D01*
X120823320Y-117670273D01*
X120715147Y-117931426D01*
X120660000Y-118208665D01*
X120660000Y-118491335D01*
X120715147Y-118768574D01*
X120823320Y-119029727D01*
X120980363Y-119264759D01*
X121180241Y-119464637D01*
X121415273Y-119621680D01*
X121676426Y-119729853D01*
X121953665Y-119785000D01*
X122236335Y-119785000D01*
X122513574Y-119729853D01*
X122774727Y-119621680D01*
X123009759Y-119464637D01*
X123209637Y-119264759D01*
X123366680Y-119029727D01*
X123474853Y-118768574D01*
X123480000Y-118742699D01*
X123485147Y-118768574D01*
X123593320Y-119029727D01*
X123750363Y-119264759D01*
X123950241Y-119464637D01*
X124185273Y-119621680D01*
X124446426Y-119729853D01*
X124723665Y-119785000D01*
X125006335Y-119785000D01*
X125283574Y-119729853D01*
X125544727Y-119621680D01*
X125779759Y-119464637D01*
X125979637Y-119264759D01*
X126136680Y-119029727D01*
X126244853Y-118768574D01*
X126250000Y-118742699D01*
X126255147Y-118768574D01*
X126363320Y-119029727D01*
X126520363Y-119264759D01*
X126720241Y-119464637D01*
X126955273Y-119621680D01*
X127216426Y-119729853D01*
X127493665Y-119785000D01*
X127776335Y-119785000D01*
X128053574Y-119729853D01*
X128314727Y-119621680D01*
X128549759Y-119464637D01*
X128749637Y-119264759D01*
X128906680Y-119029727D01*
X129014853Y-118768574D01*
X129020000Y-118742699D01*
X129025147Y-118768574D01*
X129133320Y-119029727D01*
X129290363Y-119264759D01*
X129490241Y-119464637D01*
X129725273Y-119621680D01*
X129986426Y-119729853D01*
X130263665Y-119785000D01*
X130546335Y-119785000D01*
X130823574Y-119729853D01*
X131084727Y-119621680D01*
X131319759Y-119464637D01*
X131519637Y-119264759D01*
X131676680Y-119029727D01*
X131784853Y-118768574D01*
X131790000Y-118742699D01*
X131795147Y-118768574D01*
X131903320Y-119029727D01*
X132060363Y-119264759D01*
X132260241Y-119464637D01*
X132495273Y-119621680D01*
X132756426Y-119729853D01*
X133033665Y-119785000D01*
X133316335Y-119785000D01*
X133593574Y-119729853D01*
X133854727Y-119621680D01*
X134089759Y-119464637D01*
X134289637Y-119264759D01*
X134446680Y-119029727D01*
X134554853Y-118768574D01*
X134560000Y-118742699D01*
X134565147Y-118768574D01*
X134673320Y-119029727D01*
X134830363Y-119264759D01*
X135030241Y-119464637D01*
X135265273Y-119621680D01*
X135526426Y-119729853D01*
X135803665Y-119785000D01*
X136086335Y-119785000D01*
X136363574Y-119729853D01*
X136624727Y-119621680D01*
X136859759Y-119464637D01*
X137059637Y-119264759D01*
X137216680Y-119029727D01*
X137324853Y-118768574D01*
X137330000Y-118742699D01*
X137335147Y-118768574D01*
X137443320Y-119029727D01*
X137600363Y-119264759D01*
X137800241Y-119464637D01*
X138035273Y-119621680D01*
X138296426Y-119729853D01*
X138573665Y-119785000D01*
X138856335Y-119785000D01*
X139133574Y-119729853D01*
X139394727Y-119621680D01*
X139629759Y-119464637D01*
X139829637Y-119264759D01*
X139986680Y-119029727D01*
X140091156Y-118777499D01*
X145387106Y-118777499D01*
X145603228Y-119144258D01*
X146063105Y-119384938D01*
X146561098Y-119531275D01*
X147078071Y-119577648D01*
X147594159Y-119522273D01*
X148089526Y-119367279D01*
X148506772Y-119144258D01*
X148722894Y-118777499D01*
X147055000Y-117109605D01*
X145387106Y-118777499D01*
X140091156Y-118777499D01*
X140094853Y-118768574D01*
X140150000Y-118491335D01*
X140150000Y-118208665D01*
X140094853Y-117931426D01*
X139986680Y-117670273D01*
X139829637Y-117435241D01*
X139629759Y-117235363D01*
X139394727Y-117078320D01*
X139133574Y-116970147D01*
X139047729Y-116953071D01*
X144407352Y-116953071D01*
X144462727Y-117469159D01*
X144617721Y-117964526D01*
X144840742Y-118381772D01*
X145207501Y-118597894D01*
X146875395Y-116930000D01*
X145207501Y-115262106D01*
X144840742Y-115478228D01*
X144600062Y-115938105D01*
X144453725Y-116436098D01*
X144407352Y-116953071D01*
X139047729Y-116953071D01*
X138856335Y-116915000D01*
X138573665Y-116915000D01*
X138296426Y-116970147D01*
X138035273Y-117078320D01*
X137800241Y-117235363D01*
X137600363Y-117435241D01*
X137443320Y-117670273D01*
X137335147Y-117931426D01*
X137330000Y-117957301D01*
X137324853Y-117931426D01*
X137216680Y-117670273D01*
X137059637Y-117435241D01*
X136859759Y-117235363D01*
X136624727Y-117078320D01*
X136363574Y-116970147D01*
X136086335Y-116915000D01*
X135803665Y-116915000D01*
X135526426Y-116970147D01*
X135265273Y-117078320D01*
X135030241Y-117235363D01*
X134830363Y-117435241D01*
X134673320Y-117670273D01*
X134565147Y-117931426D01*
X134560000Y-117957301D01*
X134554853Y-117931426D01*
X134446680Y-117670273D01*
X134289637Y-117435241D01*
X134089759Y-117235363D01*
X133935000Y-117131957D01*
X133935000Y-116804349D01*
X134141426Y-116889853D01*
X134418665Y-116945000D01*
X134701335Y-116945000D01*
X134978574Y-116889853D01*
X135239727Y-116781680D01*
X135474759Y-116624637D01*
X135674637Y-116424759D01*
X135831680Y-116189727D01*
X135939853Y-115928574D01*
X135945000Y-115902699D01*
X135950147Y-115928574D01*
X136058320Y-116189727D01*
X136215363Y-116424759D01*
X136415241Y-116624637D01*
X136650273Y-116781680D01*
X136911426Y-116889853D01*
X137188665Y-116945000D01*
X137471335Y-116945000D01*
X137748574Y-116889853D01*
X138009727Y-116781680D01*
X138244759Y-116624637D01*
X138444637Y-116424759D01*
X138601680Y-116189727D01*
X138665000Y-116036859D01*
X138665000Y-116372542D01*
X138689403Y-116495223D01*
X138737270Y-116610785D01*
X138806763Y-116714789D01*
X138895211Y-116803237D01*
X138999215Y-116872730D01*
X139114777Y-116920597D01*
X139237458Y-116945000D01*
X139814250Y-116945000D01*
X139973000Y-116786250D01*
X139973000Y-115637000D01*
X140227000Y-115637000D01*
X140227000Y-116786250D01*
X140385750Y-116945000D01*
X140962542Y-116945000D01*
X141085223Y-116920597D01*
X141200785Y-116872730D01*
X141304789Y-116803237D01*
X141393237Y-116714789D01*
X141462730Y-116610785D01*
X141510597Y-116495223D01*
X141535000Y-116372542D01*
X141535000Y-115795750D01*
X141376250Y-115637000D01*
X140227000Y-115637000D01*
X139973000Y-115637000D01*
X139953000Y-115637000D01*
X139953000Y-115383000D01*
X139973000Y-115383000D01*
X139973000Y-114233750D01*
X140227000Y-114233750D01*
X140227000Y-115383000D01*
X141376250Y-115383000D01*
X141535000Y-115224250D01*
X141535000Y-115082501D01*
X145387106Y-115082501D01*
X147055000Y-116750395D01*
X148722894Y-115082501D01*
X148506772Y-114715742D01*
X148046895Y-114475062D01*
X147548902Y-114328725D01*
X147031929Y-114282352D01*
X146515841Y-114337727D01*
X146020474Y-114492721D01*
X145603228Y-114715742D01*
X145387106Y-115082501D01*
X141535000Y-115082501D01*
X141535000Y-114647458D01*
X141510597Y-114524777D01*
X141462730Y-114409215D01*
X141393237Y-114305211D01*
X141304789Y-114216763D01*
X141200785Y-114147270D01*
X141085223Y-114099403D01*
X140962542Y-114075000D01*
X140385750Y-114075000D01*
X140227000Y-114233750D01*
X139973000Y-114233750D01*
X139814250Y-114075000D01*
X139237458Y-114075000D01*
X139114777Y-114099403D01*
X138999215Y-114147270D01*
X138895211Y-114216763D01*
X138806763Y-114305211D01*
X138737270Y-114409215D01*
X138689403Y-114524777D01*
X138665000Y-114647458D01*
X138665000Y-114983141D01*
X138601680Y-114830273D01*
X138444637Y-114595241D01*
X138244759Y-114395363D01*
X138009727Y-114238320D01*
X137748574Y-114130147D01*
X137471335Y-114075000D01*
X137188665Y-114075000D01*
X136911426Y-114130147D01*
X136650273Y-114238320D01*
X136415241Y-114395363D01*
X136215363Y-114595241D01*
X136058320Y-114830273D01*
X135950147Y-115091426D01*
X135945000Y-115117301D01*
X135939853Y-115091426D01*
X135831680Y-114830273D01*
X135674637Y-114595241D01*
X135474759Y-114395363D01*
X135320000Y-114291957D01*
X135320000Y-105778967D01*
X140625000Y-105778967D01*
X140625000Y-106101033D01*
X140687832Y-106416912D01*
X140811082Y-106714463D01*
X140990013Y-106982252D01*
X141217748Y-107209987D01*
X141485537Y-107388918D01*
X141783088Y-107512168D01*
X142098967Y-107575000D01*
X142421033Y-107575000D01*
X142736912Y-107512168D01*
X143034463Y-107388918D01*
X143302252Y-107209987D01*
X143529987Y-106982252D01*
X143708918Y-106714463D01*
X143832168Y-106416912D01*
X143895000Y-106101033D01*
X143895000Y-105778967D01*
X143832168Y-105463088D01*
X143708918Y-105165537D01*
X143529987Y-104897748D01*
X143302252Y-104670013D01*
X143034463Y-104491082D01*
X142736912Y-104367832D01*
X142421033Y-104305000D01*
X142098967Y-104305000D01*
X141783088Y-104367832D01*
X141485537Y-104491082D01*
X141217748Y-104670013D01*
X140990013Y-104897748D01*
X140811082Y-105165537D01*
X140687832Y-105463088D01*
X140625000Y-105778967D01*
X135320000Y-105778967D01*
X135320000Y-101778967D01*
X140625000Y-101778967D01*
X140625000Y-102101033D01*
X140687832Y-102416912D01*
X140811082Y-102714463D01*
X140990013Y-102982252D01*
X141217748Y-103209987D01*
X141485537Y-103388918D01*
X141783088Y-103512168D01*
X142098967Y-103575000D01*
X142421033Y-103575000D01*
X142736912Y-103512168D01*
X143034463Y-103388918D01*
X143302252Y-103209987D01*
X143529987Y-102982252D01*
X143708918Y-102714463D01*
X143832168Y-102416912D01*
X143895000Y-102101033D01*
X143895000Y-101778967D01*
X143832168Y-101463088D01*
X143708918Y-101165537D01*
X143529987Y-100897748D01*
X143302252Y-100670013D01*
X143034463Y-100491082D01*
X142736912Y-100367832D01*
X142421033Y-100305000D01*
X142098967Y-100305000D01*
X141783088Y-100367832D01*
X141485537Y-100491082D01*
X141217748Y-100670013D01*
X140990013Y-100897748D01*
X140811082Y-101165537D01*
X140687832Y-101463088D01*
X140625000Y-101778967D01*
X135320000Y-101778967D01*
X135320000Y-97927333D01*
X135323677Y-97890000D01*
X135312742Y-97778967D01*
X140625000Y-97778967D01*
X140625000Y-98101033D01*
X140687832Y-98416912D01*
X140811082Y-98714463D01*
X140990013Y-98982252D01*
X141217748Y-99209987D01*
X141485537Y-99388918D01*
X141783088Y-99512168D01*
X142098967Y-99575000D01*
X142421033Y-99575000D01*
X142736912Y-99512168D01*
X143034463Y-99388918D01*
X143302252Y-99209987D01*
X143529987Y-98982252D01*
X143708918Y-98714463D01*
X143832168Y-98416912D01*
X143895000Y-98101033D01*
X143895000Y-97778967D01*
X143832168Y-97463088D01*
X143708918Y-97165537D01*
X143529987Y-96897748D01*
X143302252Y-96670013D01*
X143034463Y-96491082D01*
X142736912Y-96367832D01*
X142421033Y-96305000D01*
X142098967Y-96305000D01*
X141783088Y-96367832D01*
X141485537Y-96491082D01*
X141217748Y-96670013D01*
X140990013Y-96897748D01*
X140811082Y-97165537D01*
X140687832Y-97463088D01*
X140625000Y-97778967D01*
X135312742Y-97778967D01*
X135309003Y-97741014D01*
X135265546Y-97597753D01*
X135194974Y-97465724D01*
X135154410Y-97416297D01*
X135100001Y-97349999D01*
X135071004Y-97326202D01*
X132970708Y-95225906D01*
X132984236Y-95181309D01*
X133011943Y-94900000D01*
X132984236Y-94618691D01*
X132902182Y-94348192D01*
X132768932Y-94098899D01*
X132589608Y-93880392D01*
X132466022Y-93778967D01*
X140625000Y-93778967D01*
X140625000Y-94101033D01*
X140687832Y-94416912D01*
X140811082Y-94714463D01*
X140990013Y-94982252D01*
X141217748Y-95209987D01*
X141485537Y-95388918D01*
X141783088Y-95512168D01*
X142098967Y-95575000D01*
X142421033Y-95575000D01*
X142736912Y-95512168D01*
X143034463Y-95388918D01*
X143302252Y-95209987D01*
X143529987Y-94982252D01*
X143708918Y-94714463D01*
X143832168Y-94416912D01*
X143895000Y-94101033D01*
X143895000Y-93778967D01*
X143832168Y-93463088D01*
X143708918Y-93165537D01*
X143529987Y-92897748D01*
X143302252Y-92670013D01*
X143034463Y-92491082D01*
X142736912Y-92367832D01*
X142421033Y-92305000D01*
X142098967Y-92305000D01*
X141783088Y-92367832D01*
X141485537Y-92491082D01*
X141217748Y-92670013D01*
X140990013Y-92897748D01*
X140811082Y-93165537D01*
X140687832Y-93463088D01*
X140625000Y-93778967D01*
X132466022Y-93778967D01*
X132371101Y-93701068D01*
X132238142Y-93630000D01*
X132371101Y-93558932D01*
X132589608Y-93379608D01*
X132768932Y-93161101D01*
X132902182Y-92911808D01*
X132984236Y-92641309D01*
X133011943Y-92360000D01*
X132984236Y-92078691D01*
X132902182Y-91808192D01*
X132768932Y-91558899D01*
X132664504Y-91431653D01*
X135447952Y-91431653D01*
X135603962Y-91747214D01*
X135978745Y-91938020D01*
X136383551Y-92052044D01*
X136802824Y-92084902D01*
X137220451Y-92035334D01*
X137620383Y-91905243D01*
X137916038Y-91747214D01*
X138072048Y-91431653D01*
X136760000Y-90119605D01*
X135447952Y-91431653D01*
X132664504Y-91431653D01*
X132589608Y-91340392D01*
X132371101Y-91161068D01*
X132238142Y-91090000D01*
X132371101Y-91018932D01*
X132589608Y-90839608D01*
X132768932Y-90621101D01*
X132902182Y-90371808D01*
X132984236Y-90101309D01*
X132995905Y-89982824D01*
X134615098Y-89982824D01*
X134664666Y-90400451D01*
X134794757Y-90800383D01*
X134952786Y-91096038D01*
X135268347Y-91252048D01*
X136580395Y-89940000D01*
X136939605Y-89940000D01*
X138251653Y-91252048D01*
X138567214Y-91096038D01*
X138758020Y-90721255D01*
X138872044Y-90316449D01*
X138904902Y-89897176D01*
X138855334Y-89479549D01*
X138725243Y-89079617D01*
X138567214Y-88783962D01*
X138251653Y-88627952D01*
X136939605Y-89940000D01*
X136580395Y-89940000D01*
X135268347Y-88627952D01*
X134952786Y-88783962D01*
X134761980Y-89158745D01*
X134647956Y-89563551D01*
X134615098Y-89982824D01*
X132995905Y-89982824D01*
X133011943Y-89820000D01*
X132984236Y-89538691D01*
X132902182Y-89268192D01*
X132768932Y-89018899D01*
X132589608Y-88800392D01*
X132371101Y-88621068D01*
X132238142Y-88550000D01*
X132371101Y-88478932D01*
X132408368Y-88448347D01*
X135447952Y-88448347D01*
X136760000Y-89760395D01*
X138072048Y-88448347D01*
X137916038Y-88132786D01*
X137541255Y-87941980D01*
X137136449Y-87827956D01*
X136717176Y-87795098D01*
X136299549Y-87844666D01*
X135899617Y-87974757D01*
X135603962Y-88132786D01*
X135447952Y-88448347D01*
X132408368Y-88448347D01*
X132589608Y-88299608D01*
X132768932Y-88081101D01*
X132902182Y-87831808D01*
X132984236Y-87561309D01*
X133011943Y-87280000D01*
X132984236Y-86998691D01*
X132902182Y-86728192D01*
X132768932Y-86478899D01*
X132589608Y-86260392D01*
X132371101Y-86081068D01*
X132238142Y-86010000D01*
X132251995Y-86002595D01*
X140618282Y-86002595D01*
X140662039Y-86321675D01*
X140767205Y-86626088D01*
X140860186Y-86800044D01*
X141124587Y-86895808D01*
X142080395Y-85940000D01*
X141124587Y-84984192D01*
X140860186Y-85079956D01*
X140719296Y-85369571D01*
X140637616Y-85681108D01*
X140618282Y-86002595D01*
X132251995Y-86002595D01*
X132371101Y-85938932D01*
X132589608Y-85759608D01*
X132768932Y-85541101D01*
X132902182Y-85291808D01*
X132984236Y-85021309D01*
X133005581Y-84804587D01*
X141304192Y-84804587D01*
X142260000Y-85760395D01*
X143215808Y-84804587D01*
X143120044Y-84540186D01*
X142830429Y-84399296D01*
X142518892Y-84317616D01*
X142197405Y-84298282D01*
X141878325Y-84342039D01*
X141573912Y-84447205D01*
X141399956Y-84540186D01*
X141304192Y-84804587D01*
X133005581Y-84804587D01*
X133011943Y-84740000D01*
X132984236Y-84458691D01*
X132902182Y-84188192D01*
X132768932Y-83938899D01*
X132589608Y-83720392D01*
X132371101Y-83541068D01*
X132238142Y-83470000D01*
X132371101Y-83398932D01*
X132589608Y-83219608D01*
X132768932Y-83001101D01*
X132902182Y-82751808D01*
X132984236Y-82481309D01*
X133011943Y-82200000D01*
X132984236Y-81918691D01*
X132941852Y-81778967D01*
X140625000Y-81778967D01*
X140625000Y-82101033D01*
X140687832Y-82416912D01*
X140811082Y-82714463D01*
X140990013Y-82982252D01*
X141217748Y-83209987D01*
X141485537Y-83388918D01*
X141783088Y-83512168D01*
X142098967Y-83575000D01*
X142421033Y-83575000D01*
X142736912Y-83512168D01*
X143034463Y-83388918D01*
X143302252Y-83209987D01*
X143529987Y-82982252D01*
X143708918Y-82714463D01*
X143832168Y-82416912D01*
X143895000Y-82101033D01*
X143895000Y-81778967D01*
X143832168Y-81463088D01*
X143708918Y-81165537D01*
X143529987Y-80897748D01*
X143302252Y-80670013D01*
X143034463Y-80491082D01*
X142736912Y-80367832D01*
X142421033Y-80305000D01*
X142098967Y-80305000D01*
X141783088Y-80367832D01*
X141485537Y-80491082D01*
X141217748Y-80670013D01*
X140990013Y-80897748D01*
X140811082Y-81165537D01*
X140687832Y-81463088D01*
X140625000Y-81778967D01*
X132941852Y-81778967D01*
X132902182Y-81648192D01*
X132768932Y-81398899D01*
X132589608Y-81180392D01*
X132371101Y-81001068D01*
X132238142Y-80930000D01*
X132371101Y-80858932D01*
X132589608Y-80679608D01*
X132768932Y-80461101D01*
X132902182Y-80211808D01*
X132984236Y-79941309D01*
X133011943Y-79660000D01*
X132984236Y-79378691D01*
X132902182Y-79108192D01*
X132768932Y-78858899D01*
X132589608Y-78640392D01*
X132371101Y-78461068D01*
X132238142Y-78390000D01*
X132371101Y-78318932D01*
X132589608Y-78139608D01*
X132768932Y-77921101D01*
X132844904Y-77778967D01*
X140625000Y-77778967D01*
X140625000Y-78101033D01*
X140687832Y-78416912D01*
X140811082Y-78714463D01*
X140990013Y-78982252D01*
X141217748Y-79209987D01*
X141485537Y-79388918D01*
X141783088Y-79512168D01*
X142098967Y-79575000D01*
X142421033Y-79575000D01*
X142736912Y-79512168D01*
X143034463Y-79388918D01*
X143302252Y-79209987D01*
X143529987Y-78982252D01*
X143708918Y-78714463D01*
X143832168Y-78416912D01*
X143895000Y-78101033D01*
X143895000Y-77778967D01*
X143832168Y-77463088D01*
X143708918Y-77165537D01*
X143529987Y-76897748D01*
X143302252Y-76670013D01*
X143034463Y-76491082D01*
X142736912Y-76367832D01*
X142421033Y-76305000D01*
X142098967Y-76305000D01*
X141783088Y-76367832D01*
X141485537Y-76491082D01*
X141217748Y-76670013D01*
X140990013Y-76897748D01*
X140811082Y-77165537D01*
X140687832Y-77463088D01*
X140625000Y-77778967D01*
X132844904Y-77778967D01*
X132902182Y-77671808D01*
X132984236Y-77401309D01*
X133011943Y-77120000D01*
X132984236Y-76838691D01*
X132902182Y-76568192D01*
X132768932Y-76318899D01*
X132589608Y-76100392D01*
X132371101Y-75921068D01*
X132238142Y-75850000D01*
X132371101Y-75778932D01*
X132589608Y-75599608D01*
X132768932Y-75381101D01*
X132902182Y-75131808D01*
X132984236Y-74861309D01*
X133011943Y-74580000D01*
X132984236Y-74298691D01*
X132902182Y-74028192D01*
X132768969Y-73778967D01*
X140625000Y-73778967D01*
X140625000Y-74101033D01*
X140687832Y-74416912D01*
X140811082Y-74714463D01*
X140990013Y-74982252D01*
X141217748Y-75209987D01*
X141485537Y-75388918D01*
X141783088Y-75512168D01*
X142098967Y-75575000D01*
X142421033Y-75575000D01*
X142736912Y-75512168D01*
X143034463Y-75388918D01*
X143302252Y-75209987D01*
X143529987Y-74982252D01*
X143708918Y-74714463D01*
X143832168Y-74416912D01*
X143895000Y-74101033D01*
X143895000Y-73778967D01*
X143832168Y-73463088D01*
X143708918Y-73165537D01*
X143529987Y-72897748D01*
X143302252Y-72670013D01*
X143034463Y-72491082D01*
X142736912Y-72367832D01*
X142421033Y-72305000D01*
X142098967Y-72305000D01*
X141783088Y-72367832D01*
X141485537Y-72491082D01*
X141217748Y-72670013D01*
X140990013Y-72897748D01*
X140811082Y-73165537D01*
X140687832Y-73463088D01*
X140625000Y-73778967D01*
X132768969Y-73778967D01*
X132768932Y-73778899D01*
X132589608Y-73560392D01*
X132371101Y-73381068D01*
X132238142Y-73310000D01*
X132371101Y-73238932D01*
X132589608Y-73059608D01*
X132768932Y-72841101D01*
X132902182Y-72591808D01*
X132984236Y-72321309D01*
X133011943Y-72040000D01*
X132984236Y-71758691D01*
X132902182Y-71488192D01*
X132768932Y-71238899D01*
X132589608Y-71020392D01*
X132371101Y-70841068D01*
X132121808Y-70707818D01*
X131851309Y-70625764D01*
X131640492Y-70605000D01*
X131499508Y-70605000D01*
X131288691Y-70625764D01*
X131018192Y-70707818D01*
X130768899Y-70841068D01*
X130550392Y-71020392D01*
X130371068Y-71238899D01*
X130237818Y-71488192D01*
X130155764Y-71758691D01*
X130128057Y-72040000D01*
X130155764Y-72321309D01*
X130237818Y-72591808D01*
X130371068Y-72841101D01*
X130550392Y-73059608D01*
X130768899Y-73238932D01*
X130901858Y-73310000D01*
X130768899Y-73381068D01*
X130550392Y-73560392D01*
X130371068Y-73778899D01*
X130237818Y-74028192D01*
X130155764Y-74298691D01*
X130128057Y-74580000D01*
X130155764Y-74861309D01*
X130237818Y-75131808D01*
X130371068Y-75381101D01*
X130550392Y-75599608D01*
X130768899Y-75778932D01*
X130901858Y-75850000D01*
X130768899Y-75921068D01*
X130550392Y-76100392D01*
X130371068Y-76318899D01*
X130237818Y-76568192D01*
X130155764Y-76838691D01*
X130128057Y-77120000D01*
X130155764Y-77401309D01*
X130237818Y-77671808D01*
X130371068Y-77921101D01*
X130550392Y-78139608D01*
X130768899Y-78318932D01*
X130901858Y-78390000D01*
X130768899Y-78461068D01*
X130550392Y-78640392D01*
X130371068Y-78858899D01*
X130237818Y-79108192D01*
X130155764Y-79378691D01*
X130128057Y-79660000D01*
X130155764Y-79941309D01*
X130237818Y-80211808D01*
X130371068Y-80461101D01*
X130550392Y-80679608D01*
X130768899Y-80858932D01*
X130901858Y-80930000D01*
X130768899Y-81001068D01*
X130550392Y-81180392D01*
X130371068Y-81398899D01*
X130237818Y-81648192D01*
X130155764Y-81918691D01*
X130128057Y-82200000D01*
X130155764Y-82481309D01*
X130237818Y-82751808D01*
X130371068Y-83001101D01*
X130550392Y-83219608D01*
X130768899Y-83398932D01*
X130901858Y-83470000D01*
X130768899Y-83541068D01*
X130550392Y-83720392D01*
X130371068Y-83938899D01*
X130237818Y-84188192D01*
X130155764Y-84458691D01*
X130128057Y-84740000D01*
X130155764Y-85021309D01*
X130237818Y-85291808D01*
X130371068Y-85541101D01*
X130550392Y-85759608D01*
X130768899Y-85938932D01*
X130901858Y-86010000D01*
X130768899Y-86081068D01*
X130550392Y-86260392D01*
X130371068Y-86478899D01*
X130237818Y-86728192D01*
X130155764Y-86998691D01*
X130128057Y-87280000D01*
X130155764Y-87561309D01*
X130237818Y-87831808D01*
X130371068Y-88081101D01*
X130550392Y-88299608D01*
X130768899Y-88478932D01*
X130901858Y-88550000D01*
X130768899Y-88621068D01*
X130550392Y-88800392D01*
X130371068Y-89018899D01*
X130237818Y-89268192D01*
X130155764Y-89538691D01*
X130128057Y-89820000D01*
X130155764Y-90101309D01*
X130237818Y-90371808D01*
X130371068Y-90621101D01*
X130550392Y-90839608D01*
X130768899Y-91018932D01*
X130901858Y-91090000D01*
X130768899Y-91161068D01*
X130550392Y-91340392D01*
X130371068Y-91558899D01*
X130237818Y-91808192D01*
X130155764Y-92078691D01*
X130128057Y-92360000D01*
X130155764Y-92641309D01*
X130237818Y-92911808D01*
X130371068Y-93161101D01*
X130550392Y-93379608D01*
X130768899Y-93558932D01*
X130901858Y-93630000D01*
X130768899Y-93701068D01*
X130550392Y-93880392D01*
X130371068Y-94098899D01*
X130237818Y-94348192D01*
X130155764Y-94618691D01*
X130128057Y-94900000D01*
X130130598Y-94925796D01*
X117730708Y-82525907D01*
X117744236Y-82481309D01*
X117771943Y-82200000D01*
X117744236Y-81918691D01*
X117662182Y-81648192D01*
X117528932Y-81398899D01*
X117349608Y-81180392D01*
X117131101Y-81001068D01*
X116998142Y-80930000D01*
X117131101Y-80858932D01*
X117349608Y-80679608D01*
X117528932Y-80461101D01*
X117662182Y-80211808D01*
X117744236Y-79941309D01*
X117771943Y-79660000D01*
X117744236Y-79378691D01*
X117662182Y-79108192D01*
X117528932Y-78858899D01*
X117349608Y-78640392D01*
X117131101Y-78461068D01*
X116998142Y-78390000D01*
X117131101Y-78318932D01*
X117349608Y-78139608D01*
X117528932Y-77921101D01*
X117662182Y-77671808D01*
X117744236Y-77401309D01*
X117771943Y-77120000D01*
X117744236Y-76838691D01*
X117662182Y-76568192D01*
X117528932Y-76318899D01*
X117349608Y-76100392D01*
X117131101Y-75921068D01*
X116998142Y-75850000D01*
X117131101Y-75778932D01*
X117349608Y-75599608D01*
X117528932Y-75381101D01*
X117662182Y-75131808D01*
X117722026Y-74934528D01*
X118760382Y-73896172D01*
X118807503Y-73857501D01*
X118961834Y-73669448D01*
X119076512Y-73454900D01*
X119139330Y-73247818D01*
X119147131Y-73222102D01*
X119170976Y-72980000D01*
X119165001Y-72919335D01*
X119165001Y-70841552D01*
X121971554Y-68035000D01*
X137272449Y-68035000D01*
X140657828Y-71420380D01*
X140696500Y-71467502D01*
X140884553Y-71621833D01*
X141099101Y-71736511D01*
X141331900Y-71807130D01*
X141513337Y-71825000D01*
X141513346Y-71825000D01*
X141574001Y-71830974D01*
X141634656Y-71825000D01*
X142968447Y-71825000D01*
X144245000Y-73101554D01*
X144245001Y-86208445D01*
X143665888Y-86787558D01*
X143800704Y-86510429D01*
X143882384Y-86198892D01*
X143901718Y-85877405D01*
X143857961Y-85558325D01*
X143752795Y-85253912D01*
X143659814Y-85079956D01*
X143395413Y-84984192D01*
X142439605Y-85940000D01*
X142453748Y-85954143D01*
X142274143Y-86133748D01*
X142260000Y-86119605D01*
X141304192Y-87075413D01*
X141399956Y-87339814D01*
X141689571Y-87480704D01*
X142001108Y-87562384D01*
X142322595Y-87581718D01*
X142641675Y-87537961D01*
X142946088Y-87432795D01*
X143106270Y-87347176D01*
X142148447Y-88305000D01*
X142098967Y-88305000D01*
X141783088Y-88367832D01*
X141485537Y-88491082D01*
X141217748Y-88670013D01*
X140990013Y-88897748D01*
X140811082Y-89165537D01*
X140687832Y-89463088D01*
X140625000Y-89778967D01*
X140625000Y-90101033D01*
X140687832Y-90416912D01*
X140811082Y-90714463D01*
X140990013Y-90982252D01*
X141217748Y-91209987D01*
X141485537Y-91388918D01*
X141783088Y-91512168D01*
X142098967Y-91575000D01*
X142421033Y-91575000D01*
X142736912Y-91512168D01*
X143034463Y-91388918D01*
X143302252Y-91209987D01*
X143529987Y-90982252D01*
X143708918Y-90714463D01*
X143832168Y-90416912D01*
X143895000Y-90101033D01*
X143895000Y-90051553D01*
X146310380Y-87636174D01*
X146357502Y-87597502D01*
X146511833Y-87409449D01*
X146626511Y-87194901D01*
X146697130Y-86962102D01*
X146715000Y-86780665D01*
X146720975Y-86720000D01*
X146715000Y-86659335D01*
X146715000Y-72650664D01*
X146720975Y-72589999D01*
X146697130Y-72347897D01*
X146626511Y-72115099D01*
X146586370Y-72040000D01*
X146511833Y-71900551D01*
X146357502Y-71712498D01*
X146310381Y-71673827D01*
X144396178Y-69759625D01*
X144357502Y-69712498D01*
X144169449Y-69558167D01*
X143954901Y-69443489D01*
X143722102Y-69372870D01*
X143540665Y-69355000D01*
X143480000Y-69349025D01*
X143419335Y-69355000D01*
X142085556Y-69355000D01*
X138700180Y-65969625D01*
X138661504Y-65922498D01*
X138473451Y-65768167D01*
X138258903Y-65653489D01*
X138197953Y-65635000D01*
X149385000Y-65635000D01*
X149385001Y-115694769D01*
X149269258Y-115478228D01*
X148902499Y-115262106D01*
X147234605Y-116930000D01*
X148902499Y-118597894D01*
X149269258Y-118381772D01*
X149385001Y-118160617D01*
X149385001Y-125325000D01*
X111435000Y-125325000D01*
X111435000Y-118777499D01*
X112087106Y-118777499D01*
X112303228Y-119144258D01*
X112763105Y-119384938D01*
X113261098Y-119531275D01*
X113778071Y-119577648D01*
X114294159Y-119522273D01*
X114789526Y-119367279D01*
X115206772Y-119144258D01*
X115422894Y-118777499D01*
X113755000Y-117109605D01*
X112087106Y-118777499D01*
X111435000Y-118777499D01*
X111435000Y-118183941D01*
X111540742Y-118381772D01*
X111907501Y-118597894D01*
X113575395Y-116930000D01*
X113934605Y-116930000D01*
X115602499Y-118597894D01*
X115969258Y-118381772D01*
X116209938Y-117921895D01*
X116356275Y-117423902D01*
X116402648Y-116906929D01*
X116347273Y-116390841D01*
X116192279Y-115895474D01*
X115969258Y-115478228D01*
X115602499Y-115262106D01*
X113934605Y-116930000D01*
X113575395Y-116930000D01*
X111907501Y-115262106D01*
X111540742Y-115478228D01*
X111435000Y-115680274D01*
X111435000Y-115082501D01*
X112087106Y-115082501D01*
X113755000Y-116750395D01*
X115422894Y-115082501D01*
X115206772Y-114715742D01*
X114746895Y-114475062D01*
X114248902Y-114328725D01*
X113731929Y-114282352D01*
X113215841Y-114337727D01*
X112720474Y-114492721D01*
X112303228Y-114715742D01*
X112087106Y-115082501D01*
X111435000Y-115082501D01*
X111435000Y-65635000D01*
X121046049Y-65635000D01*
X120985099Y-65653489D01*
G36*
X124105000Y-101209802D02*
X124105000Y-101222828D01*
X123970256Y-101132795D01*
X123781898Y-101054774D01*
X123581939Y-101015000D01*
X123378061Y-101015000D01*
X123178102Y-101054774D01*
X122989744Y-101132795D01*
X122820226Y-101246063D01*
X122676063Y-101390226D01*
X122562795Y-101559744D01*
X122484774Y-101748102D01*
X122445000Y-101948061D01*
X122445000Y-102151939D01*
X122483533Y-102345660D01*
X122396898Y-102309774D01*
X122196939Y-102270000D01*
X121993061Y-102270000D01*
X121793102Y-102309774D01*
X121604744Y-102387795D01*
X121435226Y-102501063D01*
X121291063Y-102645226D01*
X121177795Y-102814744D01*
X121099774Y-103003102D01*
X121060000Y-103203061D01*
X121060000Y-103406939D01*
X121099774Y-103606898D01*
X121177795Y-103795256D01*
X121291063Y-103964774D01*
X121335000Y-104008711D01*
X121335001Y-114215652D01*
X121128574Y-114130147D01*
X121063819Y-114117266D01*
X115922514Y-108975961D01*
X116048691Y-109014236D01*
X116259508Y-109035000D01*
X116400492Y-109035000D01*
X116611309Y-109014236D01*
X116881808Y-108932182D01*
X117131101Y-108798932D01*
X117349608Y-108619608D01*
X117528932Y-108401101D01*
X117662182Y-108151808D01*
X117744236Y-107881309D01*
X117771943Y-107600000D01*
X117744236Y-107318691D01*
X117662182Y-107048192D01*
X117528932Y-106798899D01*
X117349608Y-106580392D01*
X117131101Y-106401068D01*
X116993318Y-106327421D01*
X117185131Y-106212385D01*
X117393519Y-106023414D01*
X117561037Y-105797420D01*
X117681246Y-105543087D01*
X117721904Y-105409039D01*
X117599915Y-105187000D01*
X116457000Y-105187000D01*
X116457000Y-105207000D01*
X116203000Y-105207000D01*
X116203000Y-105187000D01*
X115060085Y-105187000D01*
X114938096Y-105409039D01*
X114978754Y-105543087D01*
X115098963Y-105797420D01*
X115266481Y-106023414D01*
X115474869Y-106212385D01*
X115666682Y-106327421D01*
X115528899Y-106401068D01*
X115310392Y-106580392D01*
X115131068Y-106798899D01*
X114997818Y-107048192D01*
X114915764Y-107318691D01*
X114888057Y-107600000D01*
X114915764Y-107881309D01*
X114954039Y-108007486D01*
X114525000Y-107578447D01*
X114525000Y-102400183D01*
X115044698Y-101880485D01*
X114997818Y-101968192D01*
X114915764Y-102238691D01*
X114888057Y-102520000D01*
X114915764Y-102801309D01*
X114997818Y-103071808D01*
X115131068Y-103321101D01*
X115310392Y-103539608D01*
X115528899Y-103718932D01*
X115666682Y-103792579D01*
X115474869Y-103907615D01*
X115266481Y-104096586D01*
X115098963Y-104322580D01*
X114978754Y-104576913D01*
X114938096Y-104710961D01*
X115060085Y-104933000D01*
X116203000Y-104933000D01*
X116203000Y-104913000D01*
X116457000Y-104913000D01*
X116457000Y-104933000D01*
X117599915Y-104933000D01*
X117721904Y-104710961D01*
X117681246Y-104576913D01*
X117561037Y-104322580D01*
X117393519Y-104096586D01*
X117185131Y-103907615D01*
X116993318Y-103792579D01*
X117131101Y-103718932D01*
X117349608Y-103539608D01*
X117528932Y-103321101D01*
X117662182Y-103071808D01*
X117744236Y-102801309D01*
X117771943Y-102520000D01*
X117744236Y-102238691D01*
X117662182Y-101968192D01*
X117528932Y-101718899D01*
X117349608Y-101500392D01*
X117131101Y-101321068D01*
X116998142Y-101250000D01*
X117131101Y-101178932D01*
X117349608Y-100999608D01*
X117528932Y-100781101D01*
X117662182Y-100531808D01*
X117744236Y-100261309D01*
X117771943Y-99980000D01*
X117744236Y-99698691D01*
X117662182Y-99428192D01*
X117528932Y-99178899D01*
X117349608Y-98960392D01*
X117131101Y-98781068D01*
X116998142Y-98710000D01*
X117131101Y-98638932D01*
X117349608Y-98459608D01*
X117528932Y-98241101D01*
X117662182Y-97991808D01*
X117744236Y-97721309D01*
X117771943Y-97440000D01*
X117744236Y-97158691D01*
X117662182Y-96888192D01*
X117528932Y-96638899D01*
X117349608Y-96420392D01*
X117131101Y-96241068D01*
X116998142Y-96170000D01*
X117131101Y-96098932D01*
X117349608Y-95919608D01*
X117528932Y-95701101D01*
X117662182Y-95451808D01*
X117744236Y-95181309D01*
X117771943Y-94900000D01*
X117769402Y-94874203D01*
X124105000Y-101209802D01*
X124105000Y-101209802D01*
G37*
X124105000Y-101209802D02*
X124105000Y-101222828D01*
X123970256Y-101132795D01*
X123781898Y-101054774D01*
X123581939Y-101015000D01*
X123378061Y-101015000D01*
X123178102Y-101054774D01*
X122989744Y-101132795D01*
X122820226Y-101246063D01*
X122676063Y-101390226D01*
X122562795Y-101559744D01*
X122484774Y-101748102D01*
X122445000Y-101948061D01*
X122445000Y-102151939D01*
X122483533Y-102345660D01*
X122396898Y-102309774D01*
X122196939Y-102270000D01*
X121993061Y-102270000D01*
X121793102Y-102309774D01*
X121604744Y-102387795D01*
X121435226Y-102501063D01*
X121291063Y-102645226D01*
X121177795Y-102814744D01*
X121099774Y-103003102D01*
X121060000Y-103203061D01*
X121060000Y-103406939D01*
X121099774Y-103606898D01*
X121177795Y-103795256D01*
X121291063Y-103964774D01*
X121335000Y-104008711D01*
X121335001Y-114215652D01*
X121128574Y-114130147D01*
X121063819Y-114117266D01*
X115922514Y-108975961D01*
X116048691Y-109014236D01*
X116259508Y-109035000D01*
X116400492Y-109035000D01*
X116611309Y-109014236D01*
X116881808Y-108932182D01*
X117131101Y-108798932D01*
X117349608Y-108619608D01*
X117528932Y-108401101D01*
X117662182Y-108151808D01*
X117744236Y-107881309D01*
X117771943Y-107600000D01*
X117744236Y-107318691D01*
X117662182Y-107048192D01*
X117528932Y-106798899D01*
X117349608Y-106580392D01*
X117131101Y-106401068D01*
X116993318Y-106327421D01*
X117185131Y-106212385D01*
X117393519Y-106023414D01*
X117561037Y-105797420D01*
X117681246Y-105543087D01*
X117721904Y-105409039D01*
X117599915Y-105187000D01*
X116457000Y-105187000D01*
X116457000Y-105207000D01*
X116203000Y-105207000D01*
X116203000Y-105187000D01*
X115060085Y-105187000D01*
X114938096Y-105409039D01*
X114978754Y-105543087D01*
X115098963Y-105797420D01*
X115266481Y-106023414D01*
X115474869Y-106212385D01*
X115666682Y-106327421D01*
X115528899Y-106401068D01*
X115310392Y-106580392D01*
X115131068Y-106798899D01*
X114997818Y-107048192D01*
X114915764Y-107318691D01*
X114888057Y-107600000D01*
X114915764Y-107881309D01*
X114954039Y-108007486D01*
X114525000Y-107578447D01*
X114525000Y-102400183D01*
X115044698Y-101880485D01*
X114997818Y-101968192D01*
X114915764Y-102238691D01*
X114888057Y-102520000D01*
X114915764Y-102801309D01*
X114997818Y-103071808D01*
X115131068Y-103321101D01*
X115310392Y-103539608D01*
X115528899Y-103718932D01*
X115666682Y-103792579D01*
X115474869Y-103907615D01*
X115266481Y-104096586D01*
X115098963Y-104322580D01*
X114978754Y-104576913D01*
X114938096Y-104710961D01*
X115060085Y-104933000D01*
X116203000Y-104933000D01*
X116203000Y-104913000D01*
X116457000Y-104913000D01*
X116457000Y-104933000D01*
X117599915Y-104933000D01*
X117721904Y-104710961D01*
X117681246Y-104576913D01*
X117561037Y-104322580D01*
X117393519Y-104096586D01*
X117185131Y-103907615D01*
X116993318Y-103792579D01*
X117131101Y-103718932D01*
X117349608Y-103539608D01*
X117528932Y-103321101D01*
X117662182Y-103071808D01*
X117744236Y-102801309D01*
X117771943Y-102520000D01*
X117744236Y-102238691D01*
X117662182Y-101968192D01*
X117528932Y-101718899D01*
X117349608Y-101500392D01*
X117131101Y-101321068D01*
X116998142Y-101250000D01*
X117131101Y-101178932D01*
X117349608Y-100999608D01*
X117528932Y-100781101D01*
X117662182Y-100531808D01*
X117744236Y-100261309D01*
X117771943Y-99980000D01*
X117744236Y-99698691D01*
X117662182Y-99428192D01*
X117528932Y-99178899D01*
X117349608Y-98960392D01*
X117131101Y-98781068D01*
X116998142Y-98710000D01*
X117131101Y-98638932D01*
X117349608Y-98459608D01*
X117528932Y-98241101D01*
X117662182Y-97991808D01*
X117744236Y-97721309D01*
X117771943Y-97440000D01*
X117744236Y-97158691D01*
X117662182Y-96888192D01*
X117528932Y-96638899D01*
X117349608Y-96420392D01*
X117131101Y-96241068D01*
X116998142Y-96170000D01*
X117131101Y-96098932D01*
X117349608Y-95919608D01*
X117528932Y-95701101D01*
X117662182Y-95451808D01*
X117744236Y-95181309D01*
X117771943Y-94900000D01*
X117769402Y-94874203D01*
X124105000Y-101209802D01*
G36*
X131697000Y-99853000D02*
X131717000Y-99853000D01*
X131717000Y-100107000D01*
X131697000Y-100107000D01*
X131697000Y-100127000D01*
X131443000Y-100127000D01*
X131443000Y-100107000D01*
X131423000Y-100107000D01*
X131423000Y-99853000D01*
X131443000Y-99853000D01*
X131443000Y-99833000D01*
X131697000Y-99833000D01*
X131697000Y-99853000D01*
X131697000Y-99853000D01*
G37*
X131697000Y-99853000D02*
X131717000Y-99853000D01*
X131717000Y-100107000D01*
X131697000Y-100107000D01*
X131697000Y-100127000D01*
X131443000Y-100127000D01*
X131443000Y-100107000D01*
X131423000Y-100107000D01*
X131423000Y-99853000D01*
X131443000Y-99853000D01*
X131443000Y-99833000D01*
X131697000Y-99833000D01*
X131697000Y-99853000D01*
G04 #@! TD*
M02*
