G04 #@! TF.GenerationSoftware,KiCad,Pcbnew,(5.0.1-3-g963ef8bb5)*
G04 #@! TF.CreationDate,2019-12-09T16:28:53+01:00*
G04 #@! TF.ProjectId,Ps1 to Neogeo Adpator,50733120746F204E656F67656F204164,rev?*
G04 #@! TF.SameCoordinates,Original*
G04 #@! TF.FileFunction,Soldermask,Bot*
G04 #@! TF.FilePolarity,Negative*
%FSLAX46Y46*%
G04 Gerber Fmt 4.6, Leading zero omitted, Abs format (unit mm)*
G04 Created by KiCad (PCBNEW (5.0.1-3-g963ef8bb5)) date Lundi 09 décembre 2019 à 16:28:53*
%MOMM*%
%LPD*%
G01*
G04 APERTURE LIST*
%ADD10C,0.100000*%
G04 APERTURE END LIST*
D10*
G36*
X138963228Y-117531703D02*
X139118100Y-117595853D01*
X139257481Y-117688985D01*
X139376015Y-117807519D01*
X139469147Y-117946900D01*
X139533297Y-118101772D01*
X139566000Y-118266184D01*
X139566000Y-118433816D01*
X139533297Y-118598228D01*
X139469147Y-118753100D01*
X139376015Y-118892481D01*
X139257481Y-119011015D01*
X139118100Y-119104147D01*
X138963228Y-119168297D01*
X138798816Y-119201000D01*
X138631184Y-119201000D01*
X138466772Y-119168297D01*
X138311900Y-119104147D01*
X138172519Y-119011015D01*
X138053985Y-118892481D01*
X137960853Y-118753100D01*
X137896703Y-118598228D01*
X137864000Y-118433816D01*
X137864000Y-118266184D01*
X137896703Y-118101772D01*
X137960853Y-117946900D01*
X138053985Y-117807519D01*
X138172519Y-117688985D01*
X138311900Y-117595853D01*
X138466772Y-117531703D01*
X138631184Y-117499000D01*
X138798816Y-117499000D01*
X138963228Y-117531703D01*
X138963228Y-117531703D01*
G37*
G36*
X136193228Y-117531703D02*
X136348100Y-117595853D01*
X136487481Y-117688985D01*
X136606015Y-117807519D01*
X136699147Y-117946900D01*
X136763297Y-118101772D01*
X136796000Y-118266184D01*
X136796000Y-118433816D01*
X136763297Y-118598228D01*
X136699147Y-118753100D01*
X136606015Y-118892481D01*
X136487481Y-119011015D01*
X136348100Y-119104147D01*
X136193228Y-119168297D01*
X136028816Y-119201000D01*
X135861184Y-119201000D01*
X135696772Y-119168297D01*
X135541900Y-119104147D01*
X135402519Y-119011015D01*
X135283985Y-118892481D01*
X135190853Y-118753100D01*
X135126703Y-118598228D01*
X135094000Y-118433816D01*
X135094000Y-118266184D01*
X135126703Y-118101772D01*
X135190853Y-117946900D01*
X135283985Y-117807519D01*
X135402519Y-117688985D01*
X135541900Y-117595853D01*
X135696772Y-117531703D01*
X135861184Y-117499000D01*
X136028816Y-117499000D01*
X136193228Y-117531703D01*
X136193228Y-117531703D01*
G37*
G36*
X133423228Y-117531703D02*
X133578100Y-117595853D01*
X133717481Y-117688985D01*
X133836015Y-117807519D01*
X133929147Y-117946900D01*
X133993297Y-118101772D01*
X134026000Y-118266184D01*
X134026000Y-118433816D01*
X133993297Y-118598228D01*
X133929147Y-118753100D01*
X133836015Y-118892481D01*
X133717481Y-119011015D01*
X133578100Y-119104147D01*
X133423228Y-119168297D01*
X133258816Y-119201000D01*
X133091184Y-119201000D01*
X132926772Y-119168297D01*
X132771900Y-119104147D01*
X132632519Y-119011015D01*
X132513985Y-118892481D01*
X132420853Y-118753100D01*
X132356703Y-118598228D01*
X132324000Y-118433816D01*
X132324000Y-118266184D01*
X132356703Y-118101772D01*
X132420853Y-117946900D01*
X132513985Y-117807519D01*
X132632519Y-117688985D01*
X132771900Y-117595853D01*
X132926772Y-117531703D01*
X133091184Y-117499000D01*
X133258816Y-117499000D01*
X133423228Y-117531703D01*
X133423228Y-117531703D01*
G37*
G36*
X130653228Y-117531703D02*
X130808100Y-117595853D01*
X130947481Y-117688985D01*
X131066015Y-117807519D01*
X131159147Y-117946900D01*
X131223297Y-118101772D01*
X131256000Y-118266184D01*
X131256000Y-118433816D01*
X131223297Y-118598228D01*
X131159147Y-118753100D01*
X131066015Y-118892481D01*
X130947481Y-119011015D01*
X130808100Y-119104147D01*
X130653228Y-119168297D01*
X130488816Y-119201000D01*
X130321184Y-119201000D01*
X130156772Y-119168297D01*
X130001900Y-119104147D01*
X129862519Y-119011015D01*
X129743985Y-118892481D01*
X129650853Y-118753100D01*
X129586703Y-118598228D01*
X129554000Y-118433816D01*
X129554000Y-118266184D01*
X129586703Y-118101772D01*
X129650853Y-117946900D01*
X129743985Y-117807519D01*
X129862519Y-117688985D01*
X130001900Y-117595853D01*
X130156772Y-117531703D01*
X130321184Y-117499000D01*
X130488816Y-117499000D01*
X130653228Y-117531703D01*
X130653228Y-117531703D01*
G37*
G36*
X127883228Y-117531703D02*
X128038100Y-117595853D01*
X128177481Y-117688985D01*
X128296015Y-117807519D01*
X128389147Y-117946900D01*
X128453297Y-118101772D01*
X128486000Y-118266184D01*
X128486000Y-118433816D01*
X128453297Y-118598228D01*
X128389147Y-118753100D01*
X128296015Y-118892481D01*
X128177481Y-119011015D01*
X128038100Y-119104147D01*
X127883228Y-119168297D01*
X127718816Y-119201000D01*
X127551184Y-119201000D01*
X127386772Y-119168297D01*
X127231900Y-119104147D01*
X127092519Y-119011015D01*
X126973985Y-118892481D01*
X126880853Y-118753100D01*
X126816703Y-118598228D01*
X126784000Y-118433816D01*
X126784000Y-118266184D01*
X126816703Y-118101772D01*
X126880853Y-117946900D01*
X126973985Y-117807519D01*
X127092519Y-117688985D01*
X127231900Y-117595853D01*
X127386772Y-117531703D01*
X127551184Y-117499000D01*
X127718816Y-117499000D01*
X127883228Y-117531703D01*
X127883228Y-117531703D01*
G37*
G36*
X125113228Y-117531703D02*
X125268100Y-117595853D01*
X125407481Y-117688985D01*
X125526015Y-117807519D01*
X125619147Y-117946900D01*
X125683297Y-118101772D01*
X125716000Y-118266184D01*
X125716000Y-118433816D01*
X125683297Y-118598228D01*
X125619147Y-118753100D01*
X125526015Y-118892481D01*
X125407481Y-119011015D01*
X125268100Y-119104147D01*
X125113228Y-119168297D01*
X124948816Y-119201000D01*
X124781184Y-119201000D01*
X124616772Y-119168297D01*
X124461900Y-119104147D01*
X124322519Y-119011015D01*
X124203985Y-118892481D01*
X124110853Y-118753100D01*
X124046703Y-118598228D01*
X124014000Y-118433816D01*
X124014000Y-118266184D01*
X124046703Y-118101772D01*
X124110853Y-117946900D01*
X124203985Y-117807519D01*
X124322519Y-117688985D01*
X124461900Y-117595853D01*
X124616772Y-117531703D01*
X124781184Y-117499000D01*
X124948816Y-117499000D01*
X125113228Y-117531703D01*
X125113228Y-117531703D01*
G37*
G36*
X122343228Y-117531703D02*
X122498100Y-117595853D01*
X122637481Y-117688985D01*
X122756015Y-117807519D01*
X122849147Y-117946900D01*
X122913297Y-118101772D01*
X122946000Y-118266184D01*
X122946000Y-118433816D01*
X122913297Y-118598228D01*
X122849147Y-118753100D01*
X122756015Y-118892481D01*
X122637481Y-119011015D01*
X122498100Y-119104147D01*
X122343228Y-119168297D01*
X122178816Y-119201000D01*
X122011184Y-119201000D01*
X121846772Y-119168297D01*
X121691900Y-119104147D01*
X121552519Y-119011015D01*
X121433985Y-118892481D01*
X121340853Y-118753100D01*
X121276703Y-118598228D01*
X121244000Y-118433816D01*
X121244000Y-118266184D01*
X121276703Y-118101772D01*
X121340853Y-117946900D01*
X121433985Y-117807519D01*
X121552519Y-117688985D01*
X121691900Y-117595853D01*
X121846772Y-117531703D01*
X122011184Y-117499000D01*
X122178816Y-117499000D01*
X122343228Y-117531703D01*
X122343228Y-117531703D01*
G37*
G36*
X147653252Y-114957818D02*
X147653254Y-114957819D01*
X147653255Y-114957819D01*
X148026513Y-115112427D01*
X148026514Y-115112428D01*
X148362439Y-115336886D01*
X148648114Y-115622561D01*
X148648116Y-115622564D01*
X148872573Y-115958487D01*
X148999181Y-116264147D01*
X149027182Y-116331748D01*
X149106000Y-116727993D01*
X149106000Y-117132007D01*
X149033001Y-117499000D01*
X149027181Y-117528255D01*
X148872573Y-117901513D01*
X148872572Y-117901514D01*
X148648114Y-118237439D01*
X148362439Y-118523114D01*
X148362436Y-118523116D01*
X148026513Y-118747573D01*
X147653255Y-118902181D01*
X147653254Y-118902181D01*
X147653252Y-118902182D01*
X147257007Y-118981000D01*
X146852993Y-118981000D01*
X146456748Y-118902182D01*
X146456746Y-118902181D01*
X146456745Y-118902181D01*
X146083487Y-118747573D01*
X145747564Y-118523116D01*
X145747561Y-118523114D01*
X145461886Y-118237439D01*
X145237428Y-117901514D01*
X145237427Y-117901513D01*
X145082819Y-117528255D01*
X145077000Y-117499000D01*
X145004000Y-117132007D01*
X145004000Y-116727993D01*
X145082818Y-116331748D01*
X145110819Y-116264147D01*
X145237427Y-115958487D01*
X145461884Y-115622564D01*
X145461886Y-115622561D01*
X145747561Y-115336886D01*
X146083486Y-115112428D01*
X146083487Y-115112427D01*
X146456745Y-114957819D01*
X146456746Y-114957819D01*
X146456748Y-114957818D01*
X146852993Y-114879000D01*
X147257007Y-114879000D01*
X147653252Y-114957818D01*
X147653252Y-114957818D01*
G37*
G36*
X114353252Y-114957818D02*
X114353254Y-114957819D01*
X114353255Y-114957819D01*
X114726513Y-115112427D01*
X114726514Y-115112428D01*
X115062439Y-115336886D01*
X115348114Y-115622561D01*
X115348116Y-115622564D01*
X115572573Y-115958487D01*
X115699181Y-116264147D01*
X115727182Y-116331748D01*
X115806000Y-116727993D01*
X115806000Y-117132007D01*
X115733001Y-117499000D01*
X115727181Y-117528255D01*
X115572573Y-117901513D01*
X115572572Y-117901514D01*
X115348114Y-118237439D01*
X115062439Y-118523114D01*
X115062436Y-118523116D01*
X114726513Y-118747573D01*
X114353255Y-118902181D01*
X114353254Y-118902181D01*
X114353252Y-118902182D01*
X113957007Y-118981000D01*
X113552993Y-118981000D01*
X113156748Y-118902182D01*
X113156746Y-118902181D01*
X113156745Y-118902181D01*
X112783487Y-118747573D01*
X112447564Y-118523116D01*
X112447561Y-118523114D01*
X112161886Y-118237439D01*
X111937428Y-117901514D01*
X111937427Y-117901513D01*
X111782819Y-117528255D01*
X111777000Y-117499000D01*
X111704000Y-117132007D01*
X111704000Y-116727993D01*
X111782818Y-116331748D01*
X111810819Y-116264147D01*
X111937427Y-115958487D01*
X112161884Y-115622564D01*
X112161886Y-115622561D01*
X112447561Y-115336886D01*
X112783486Y-115112428D01*
X112783487Y-115112427D01*
X113156745Y-114957819D01*
X113156746Y-114957819D01*
X113156748Y-114957818D01*
X113552993Y-114879000D01*
X113957007Y-114879000D01*
X114353252Y-114957818D01*
X114353252Y-114957818D01*
G37*
G36*
X123728228Y-114691703D02*
X123883100Y-114755853D01*
X124022481Y-114848985D01*
X124141015Y-114967519D01*
X124234147Y-115106900D01*
X124298297Y-115261772D01*
X124331000Y-115426184D01*
X124331000Y-115593816D01*
X124298297Y-115758228D01*
X124234147Y-115913100D01*
X124141015Y-116052481D01*
X124022481Y-116171015D01*
X123883100Y-116264147D01*
X123728228Y-116328297D01*
X123563816Y-116361000D01*
X123396184Y-116361000D01*
X123231772Y-116328297D01*
X123076900Y-116264147D01*
X122937519Y-116171015D01*
X122818985Y-116052481D01*
X122725853Y-115913100D01*
X122661703Y-115758228D01*
X122629000Y-115593816D01*
X122629000Y-115426184D01*
X122661703Y-115261772D01*
X122725853Y-115106900D01*
X122818985Y-114967519D01*
X122937519Y-114848985D01*
X123076900Y-114755853D01*
X123231772Y-114691703D01*
X123396184Y-114659000D01*
X123563816Y-114659000D01*
X123728228Y-114691703D01*
X123728228Y-114691703D01*
G37*
G36*
X120958228Y-114691703D02*
X121113100Y-114755853D01*
X121252481Y-114848985D01*
X121371015Y-114967519D01*
X121464147Y-115106900D01*
X121528297Y-115261772D01*
X121561000Y-115426184D01*
X121561000Y-115593816D01*
X121528297Y-115758228D01*
X121464147Y-115913100D01*
X121371015Y-116052481D01*
X121252481Y-116171015D01*
X121113100Y-116264147D01*
X120958228Y-116328297D01*
X120793816Y-116361000D01*
X120626184Y-116361000D01*
X120461772Y-116328297D01*
X120306900Y-116264147D01*
X120167519Y-116171015D01*
X120048985Y-116052481D01*
X119955853Y-115913100D01*
X119891703Y-115758228D01*
X119859000Y-115593816D01*
X119859000Y-115426184D01*
X119891703Y-115261772D01*
X119955853Y-115106900D01*
X120048985Y-114967519D01*
X120167519Y-114848985D01*
X120306900Y-114755853D01*
X120461772Y-114691703D01*
X120626184Y-114659000D01*
X120793816Y-114659000D01*
X120958228Y-114691703D01*
X120958228Y-114691703D01*
G37*
G36*
X126498228Y-114691703D02*
X126653100Y-114755853D01*
X126792481Y-114848985D01*
X126911015Y-114967519D01*
X127004147Y-115106900D01*
X127068297Y-115261772D01*
X127101000Y-115426184D01*
X127101000Y-115593816D01*
X127068297Y-115758228D01*
X127004147Y-115913100D01*
X126911015Y-116052481D01*
X126792481Y-116171015D01*
X126653100Y-116264147D01*
X126498228Y-116328297D01*
X126333816Y-116361000D01*
X126166184Y-116361000D01*
X126001772Y-116328297D01*
X125846900Y-116264147D01*
X125707519Y-116171015D01*
X125588985Y-116052481D01*
X125495853Y-115913100D01*
X125431703Y-115758228D01*
X125399000Y-115593816D01*
X125399000Y-115426184D01*
X125431703Y-115261772D01*
X125495853Y-115106900D01*
X125588985Y-114967519D01*
X125707519Y-114848985D01*
X125846900Y-114755853D01*
X126001772Y-114691703D01*
X126166184Y-114659000D01*
X126333816Y-114659000D01*
X126498228Y-114691703D01*
X126498228Y-114691703D01*
G37*
G36*
X129268228Y-114691703D02*
X129423100Y-114755853D01*
X129562481Y-114848985D01*
X129681015Y-114967519D01*
X129774147Y-115106900D01*
X129838297Y-115261772D01*
X129871000Y-115426184D01*
X129871000Y-115593816D01*
X129838297Y-115758228D01*
X129774147Y-115913100D01*
X129681015Y-116052481D01*
X129562481Y-116171015D01*
X129423100Y-116264147D01*
X129268228Y-116328297D01*
X129103816Y-116361000D01*
X128936184Y-116361000D01*
X128771772Y-116328297D01*
X128616900Y-116264147D01*
X128477519Y-116171015D01*
X128358985Y-116052481D01*
X128265853Y-115913100D01*
X128201703Y-115758228D01*
X128169000Y-115593816D01*
X128169000Y-115426184D01*
X128201703Y-115261772D01*
X128265853Y-115106900D01*
X128358985Y-114967519D01*
X128477519Y-114848985D01*
X128616900Y-114755853D01*
X128771772Y-114691703D01*
X128936184Y-114659000D01*
X129103816Y-114659000D01*
X129268228Y-114691703D01*
X129268228Y-114691703D01*
G37*
G36*
X132038228Y-114691703D02*
X132193100Y-114755853D01*
X132332481Y-114848985D01*
X132451015Y-114967519D01*
X132544147Y-115106900D01*
X132608297Y-115261772D01*
X132641000Y-115426184D01*
X132641000Y-115593816D01*
X132608297Y-115758228D01*
X132544147Y-115913100D01*
X132451015Y-116052481D01*
X132332481Y-116171015D01*
X132193100Y-116264147D01*
X132038228Y-116328297D01*
X131873816Y-116361000D01*
X131706184Y-116361000D01*
X131541772Y-116328297D01*
X131386900Y-116264147D01*
X131247519Y-116171015D01*
X131128985Y-116052481D01*
X131035853Y-115913100D01*
X130971703Y-115758228D01*
X130939000Y-115593816D01*
X130939000Y-115426184D01*
X130971703Y-115261772D01*
X131035853Y-115106900D01*
X131128985Y-114967519D01*
X131247519Y-114848985D01*
X131386900Y-114755853D01*
X131541772Y-114691703D01*
X131706184Y-114659000D01*
X131873816Y-114659000D01*
X132038228Y-114691703D01*
X132038228Y-114691703D01*
G37*
G36*
X134808228Y-114691703D02*
X134963100Y-114755853D01*
X135102481Y-114848985D01*
X135221015Y-114967519D01*
X135314147Y-115106900D01*
X135378297Y-115261772D01*
X135411000Y-115426184D01*
X135411000Y-115593816D01*
X135378297Y-115758228D01*
X135314147Y-115913100D01*
X135221015Y-116052481D01*
X135102481Y-116171015D01*
X134963100Y-116264147D01*
X134808228Y-116328297D01*
X134643816Y-116361000D01*
X134476184Y-116361000D01*
X134311772Y-116328297D01*
X134156900Y-116264147D01*
X134017519Y-116171015D01*
X133898985Y-116052481D01*
X133805853Y-115913100D01*
X133741703Y-115758228D01*
X133709000Y-115593816D01*
X133709000Y-115426184D01*
X133741703Y-115261772D01*
X133805853Y-115106900D01*
X133898985Y-114967519D01*
X134017519Y-114848985D01*
X134156900Y-114755853D01*
X134311772Y-114691703D01*
X134476184Y-114659000D01*
X134643816Y-114659000D01*
X134808228Y-114691703D01*
X134808228Y-114691703D01*
G37*
G36*
X137578228Y-114691703D02*
X137733100Y-114755853D01*
X137872481Y-114848985D01*
X137991015Y-114967519D01*
X138084147Y-115106900D01*
X138148297Y-115261772D01*
X138181000Y-115426184D01*
X138181000Y-115593816D01*
X138148297Y-115758228D01*
X138084147Y-115913100D01*
X137991015Y-116052481D01*
X137872481Y-116171015D01*
X137733100Y-116264147D01*
X137578228Y-116328297D01*
X137413816Y-116361000D01*
X137246184Y-116361000D01*
X137081772Y-116328297D01*
X136926900Y-116264147D01*
X136787519Y-116171015D01*
X136668985Y-116052481D01*
X136575853Y-115913100D01*
X136511703Y-115758228D01*
X136479000Y-115593816D01*
X136479000Y-115426184D01*
X136511703Y-115261772D01*
X136575853Y-115106900D01*
X136668985Y-114967519D01*
X136787519Y-114848985D01*
X136926900Y-114755853D01*
X137081772Y-114691703D01*
X137246184Y-114659000D01*
X137413816Y-114659000D01*
X137578228Y-114691703D01*
X137578228Y-114691703D01*
G37*
G36*
X140951000Y-116361000D02*
X139249000Y-116361000D01*
X139249000Y-114659000D01*
X140951000Y-114659000D01*
X140951000Y-116361000D01*
X140951000Y-116361000D01*
G37*
G36*
X132421000Y-108451000D02*
X130719000Y-108451000D01*
X130719000Y-106749000D01*
X132421000Y-106749000D01*
X132421000Y-108451000D01*
X132421000Y-108451000D01*
G37*
G36*
X116496821Y-106761313D02*
X116496824Y-106761314D01*
X116496825Y-106761314D01*
X116657239Y-106809975D01*
X116657241Y-106809976D01*
X116657244Y-106809977D01*
X116805078Y-106888995D01*
X116934659Y-106995341D01*
X117041005Y-107124922D01*
X117120023Y-107272756D01*
X117168687Y-107433179D01*
X117185117Y-107600000D01*
X117168687Y-107766821D01*
X117120023Y-107927244D01*
X117041005Y-108075078D01*
X116934659Y-108204659D01*
X116805078Y-108311005D01*
X116657244Y-108390023D01*
X116657241Y-108390024D01*
X116657239Y-108390025D01*
X116496825Y-108438686D01*
X116496824Y-108438686D01*
X116496821Y-108438687D01*
X116371804Y-108451000D01*
X116288196Y-108451000D01*
X116163179Y-108438687D01*
X116163176Y-108438686D01*
X116163175Y-108438686D01*
X116002761Y-108390025D01*
X116002759Y-108390024D01*
X116002756Y-108390023D01*
X115854922Y-108311005D01*
X115725341Y-108204659D01*
X115618995Y-108075078D01*
X115539977Y-107927244D01*
X115491313Y-107766821D01*
X115474883Y-107600000D01*
X115491313Y-107433179D01*
X115539977Y-107272756D01*
X115618995Y-107124922D01*
X115725341Y-106995341D01*
X115854922Y-106888995D01*
X116002756Y-106809977D01*
X116002759Y-106809976D01*
X116002761Y-106809975D01*
X116163175Y-106761314D01*
X116163176Y-106761314D01*
X116163179Y-106761313D01*
X116288196Y-106749000D01*
X116371804Y-106749000D01*
X116496821Y-106761313D01*
X116496821Y-106761313D01*
G37*
G36*
X142566565Y-104929389D02*
X142757834Y-105008615D01*
X142929976Y-105123637D01*
X143076363Y-105270024D01*
X143191385Y-105442166D01*
X143270611Y-105633435D01*
X143311000Y-105836484D01*
X143311000Y-106043516D01*
X143270611Y-106246565D01*
X143191385Y-106437834D01*
X143076363Y-106609976D01*
X142929976Y-106756363D01*
X142757834Y-106871385D01*
X142566565Y-106950611D01*
X142363516Y-106991000D01*
X142156484Y-106991000D01*
X141953435Y-106950611D01*
X141762166Y-106871385D01*
X141590024Y-106756363D01*
X141443637Y-106609976D01*
X141328615Y-106437834D01*
X141249389Y-106246565D01*
X141209000Y-106043516D01*
X141209000Y-105836484D01*
X141249389Y-105633435D01*
X141328615Y-105442166D01*
X141443637Y-105270024D01*
X141590024Y-105123637D01*
X141762166Y-105008615D01*
X141953435Y-104929389D01*
X142156484Y-104889000D01*
X142363516Y-104889000D01*
X142566565Y-104929389D01*
X142566565Y-104929389D01*
G37*
G36*
X131736821Y-104221313D02*
X131736824Y-104221314D01*
X131736825Y-104221314D01*
X131897239Y-104269975D01*
X131897241Y-104269976D01*
X131897244Y-104269977D01*
X132045078Y-104348995D01*
X132174659Y-104455341D01*
X132281005Y-104584922D01*
X132360023Y-104732756D01*
X132360024Y-104732759D01*
X132360025Y-104732761D01*
X132408686Y-104893175D01*
X132408687Y-104893179D01*
X132425117Y-105060000D01*
X132408687Y-105226821D01*
X132408686Y-105226824D01*
X132408686Y-105226825D01*
X132395582Y-105270024D01*
X132360023Y-105387244D01*
X132281005Y-105535078D01*
X132174659Y-105664659D01*
X132045078Y-105771005D01*
X131897244Y-105850023D01*
X131897241Y-105850024D01*
X131897239Y-105850025D01*
X131736825Y-105898686D01*
X131736824Y-105898686D01*
X131736821Y-105898687D01*
X131611804Y-105911000D01*
X131528196Y-105911000D01*
X131403179Y-105898687D01*
X131403176Y-105898686D01*
X131403175Y-105898686D01*
X131242761Y-105850025D01*
X131242759Y-105850024D01*
X131242756Y-105850023D01*
X131094922Y-105771005D01*
X130965341Y-105664659D01*
X130858995Y-105535078D01*
X130779977Y-105387244D01*
X130744419Y-105270024D01*
X130731314Y-105226825D01*
X130731314Y-105226824D01*
X130731313Y-105226821D01*
X130714883Y-105060000D01*
X130731313Y-104893179D01*
X130731314Y-104893175D01*
X130779975Y-104732761D01*
X130779976Y-104732759D01*
X130779977Y-104732756D01*
X130858995Y-104584922D01*
X130965341Y-104455341D01*
X131094922Y-104348995D01*
X131242756Y-104269977D01*
X131242759Y-104269976D01*
X131242761Y-104269975D01*
X131403175Y-104221314D01*
X131403176Y-104221314D01*
X131403179Y-104221313D01*
X131528196Y-104209000D01*
X131611804Y-104209000D01*
X131736821Y-104221313D01*
X131736821Y-104221313D01*
G37*
G36*
X116496821Y-104221313D02*
X116496824Y-104221314D01*
X116496825Y-104221314D01*
X116657239Y-104269975D01*
X116657241Y-104269976D01*
X116657244Y-104269977D01*
X116805078Y-104348995D01*
X116934659Y-104455341D01*
X117041005Y-104584922D01*
X117120023Y-104732756D01*
X117120024Y-104732759D01*
X117120025Y-104732761D01*
X117168686Y-104893175D01*
X117168687Y-104893179D01*
X117185117Y-105060000D01*
X117168687Y-105226821D01*
X117168686Y-105226824D01*
X117168686Y-105226825D01*
X117155582Y-105270024D01*
X117120023Y-105387244D01*
X117041005Y-105535078D01*
X116934659Y-105664659D01*
X116805078Y-105771005D01*
X116657244Y-105850023D01*
X116657241Y-105850024D01*
X116657239Y-105850025D01*
X116496825Y-105898686D01*
X116496824Y-105898686D01*
X116496821Y-105898687D01*
X116371804Y-105911000D01*
X116288196Y-105911000D01*
X116163179Y-105898687D01*
X116163176Y-105898686D01*
X116163175Y-105898686D01*
X116002761Y-105850025D01*
X116002759Y-105850024D01*
X116002756Y-105850023D01*
X115854922Y-105771005D01*
X115725341Y-105664659D01*
X115618995Y-105535078D01*
X115539977Y-105387244D01*
X115504419Y-105270024D01*
X115491314Y-105226825D01*
X115491314Y-105226824D01*
X115491313Y-105226821D01*
X115474883Y-105060000D01*
X115491313Y-104893179D01*
X115491314Y-104893175D01*
X115539975Y-104732761D01*
X115539976Y-104732759D01*
X115539977Y-104732756D01*
X115618995Y-104584922D01*
X115725341Y-104455341D01*
X115854922Y-104348995D01*
X116002756Y-104269977D01*
X116002759Y-104269976D01*
X116002761Y-104269975D01*
X116163175Y-104221314D01*
X116163176Y-104221314D01*
X116163179Y-104221313D01*
X116288196Y-104209000D01*
X116371804Y-104209000D01*
X116496821Y-104221313D01*
X116496821Y-104221313D01*
G37*
G36*
X131736821Y-101681313D02*
X131736824Y-101681314D01*
X131736825Y-101681314D01*
X131897239Y-101729975D01*
X131897241Y-101729976D01*
X131897244Y-101729977D01*
X132045078Y-101808995D01*
X132174659Y-101915341D01*
X132281005Y-102044922D01*
X132360023Y-102192756D01*
X132408687Y-102353179D01*
X132425117Y-102520000D01*
X132408687Y-102686821D01*
X132360023Y-102847244D01*
X132281005Y-102995078D01*
X132174659Y-103124659D01*
X132045078Y-103231005D01*
X131897244Y-103310023D01*
X131897241Y-103310024D01*
X131897239Y-103310025D01*
X131736825Y-103358686D01*
X131736824Y-103358686D01*
X131736821Y-103358687D01*
X131611804Y-103371000D01*
X131528196Y-103371000D01*
X131403179Y-103358687D01*
X131403176Y-103358686D01*
X131403175Y-103358686D01*
X131242761Y-103310025D01*
X131242759Y-103310024D01*
X131242756Y-103310023D01*
X131094922Y-103231005D01*
X130965341Y-103124659D01*
X130858995Y-102995078D01*
X130779977Y-102847244D01*
X130731313Y-102686821D01*
X130714883Y-102520000D01*
X130731313Y-102353179D01*
X130779977Y-102192756D01*
X130858995Y-102044922D01*
X130965341Y-101915341D01*
X131094922Y-101808995D01*
X131242756Y-101729977D01*
X131242759Y-101729976D01*
X131242761Y-101729975D01*
X131403175Y-101681314D01*
X131403176Y-101681314D01*
X131403179Y-101681313D01*
X131528196Y-101669000D01*
X131611804Y-101669000D01*
X131736821Y-101681313D01*
X131736821Y-101681313D01*
G37*
G36*
X116496821Y-101681313D02*
X116496824Y-101681314D01*
X116496825Y-101681314D01*
X116657239Y-101729975D01*
X116657241Y-101729976D01*
X116657244Y-101729977D01*
X116805078Y-101808995D01*
X116934659Y-101915341D01*
X117041005Y-102044922D01*
X117120023Y-102192756D01*
X117168687Y-102353179D01*
X117185117Y-102520000D01*
X117168687Y-102686821D01*
X117120023Y-102847244D01*
X117041005Y-102995078D01*
X116934659Y-103124659D01*
X116805078Y-103231005D01*
X116657244Y-103310023D01*
X116657241Y-103310024D01*
X116657239Y-103310025D01*
X116496825Y-103358686D01*
X116496824Y-103358686D01*
X116496821Y-103358687D01*
X116371804Y-103371000D01*
X116288196Y-103371000D01*
X116163179Y-103358687D01*
X116163176Y-103358686D01*
X116163175Y-103358686D01*
X116002761Y-103310025D01*
X116002759Y-103310024D01*
X116002756Y-103310023D01*
X115854922Y-103231005D01*
X115725341Y-103124659D01*
X115618995Y-102995078D01*
X115539977Y-102847244D01*
X115491313Y-102686821D01*
X115474883Y-102520000D01*
X115491313Y-102353179D01*
X115539977Y-102192756D01*
X115618995Y-102044922D01*
X115725341Y-101915341D01*
X115854922Y-101808995D01*
X116002756Y-101729977D01*
X116002759Y-101729976D01*
X116002761Y-101729975D01*
X116163175Y-101681314D01*
X116163176Y-101681314D01*
X116163179Y-101681313D01*
X116288196Y-101669000D01*
X116371804Y-101669000D01*
X116496821Y-101681313D01*
X116496821Y-101681313D01*
G37*
G36*
X142566565Y-100929389D02*
X142757834Y-101008615D01*
X142929976Y-101123637D01*
X143076363Y-101270024D01*
X143191385Y-101442166D01*
X143270611Y-101633435D01*
X143311000Y-101836484D01*
X143311000Y-102043516D01*
X143270611Y-102246565D01*
X143191385Y-102437834D01*
X143076363Y-102609976D01*
X142929976Y-102756363D01*
X142757834Y-102871385D01*
X142566565Y-102950611D01*
X142363516Y-102991000D01*
X142156484Y-102991000D01*
X141953435Y-102950611D01*
X141762166Y-102871385D01*
X141590024Y-102756363D01*
X141443637Y-102609976D01*
X141328615Y-102437834D01*
X141249389Y-102246565D01*
X141209000Y-102043516D01*
X141209000Y-101836484D01*
X141249389Y-101633435D01*
X141328615Y-101442166D01*
X141443637Y-101270024D01*
X141590024Y-101123637D01*
X141762166Y-101008615D01*
X141953435Y-100929389D01*
X142156484Y-100889000D01*
X142363516Y-100889000D01*
X142566565Y-100929389D01*
X142566565Y-100929389D01*
G37*
G36*
X131736821Y-99141313D02*
X131736824Y-99141314D01*
X131736825Y-99141314D01*
X131897239Y-99189975D01*
X131897241Y-99189976D01*
X131897244Y-99189977D01*
X132045078Y-99268995D01*
X132174659Y-99375341D01*
X132281005Y-99504922D01*
X132360023Y-99652756D01*
X132408687Y-99813179D01*
X132425117Y-99980000D01*
X132408687Y-100146821D01*
X132360023Y-100307244D01*
X132281005Y-100455078D01*
X132174659Y-100584659D01*
X132045078Y-100691005D01*
X131897244Y-100770023D01*
X131897241Y-100770024D01*
X131897239Y-100770025D01*
X131736825Y-100818686D01*
X131736824Y-100818686D01*
X131736821Y-100818687D01*
X131611804Y-100831000D01*
X131528196Y-100831000D01*
X131403179Y-100818687D01*
X131403176Y-100818686D01*
X131403175Y-100818686D01*
X131242761Y-100770025D01*
X131242759Y-100770024D01*
X131242756Y-100770023D01*
X131094922Y-100691005D01*
X130965341Y-100584659D01*
X130858995Y-100455078D01*
X130779977Y-100307244D01*
X130731313Y-100146821D01*
X130714883Y-99980000D01*
X130731313Y-99813179D01*
X130779977Y-99652756D01*
X130858995Y-99504922D01*
X130965341Y-99375341D01*
X131094922Y-99268995D01*
X131242756Y-99189977D01*
X131242759Y-99189976D01*
X131242761Y-99189975D01*
X131403175Y-99141314D01*
X131403176Y-99141314D01*
X131403179Y-99141313D01*
X131528196Y-99129000D01*
X131611804Y-99129000D01*
X131736821Y-99141313D01*
X131736821Y-99141313D01*
G37*
G36*
X116496821Y-99141313D02*
X116496824Y-99141314D01*
X116496825Y-99141314D01*
X116657239Y-99189975D01*
X116657241Y-99189976D01*
X116657244Y-99189977D01*
X116805078Y-99268995D01*
X116934659Y-99375341D01*
X117041005Y-99504922D01*
X117120023Y-99652756D01*
X117168687Y-99813179D01*
X117185117Y-99980000D01*
X117168687Y-100146821D01*
X117120023Y-100307244D01*
X117041005Y-100455078D01*
X116934659Y-100584659D01*
X116805078Y-100691005D01*
X116657244Y-100770023D01*
X116657241Y-100770024D01*
X116657239Y-100770025D01*
X116496825Y-100818686D01*
X116496824Y-100818686D01*
X116496821Y-100818687D01*
X116371804Y-100831000D01*
X116288196Y-100831000D01*
X116163179Y-100818687D01*
X116163176Y-100818686D01*
X116163175Y-100818686D01*
X116002761Y-100770025D01*
X116002759Y-100770024D01*
X116002756Y-100770023D01*
X115854922Y-100691005D01*
X115725341Y-100584659D01*
X115618995Y-100455078D01*
X115539977Y-100307244D01*
X115491313Y-100146821D01*
X115474883Y-99980000D01*
X115491313Y-99813179D01*
X115539977Y-99652756D01*
X115618995Y-99504922D01*
X115725341Y-99375341D01*
X115854922Y-99268995D01*
X116002756Y-99189977D01*
X116002759Y-99189976D01*
X116002761Y-99189975D01*
X116163175Y-99141314D01*
X116163176Y-99141314D01*
X116163179Y-99141313D01*
X116288196Y-99129000D01*
X116371804Y-99129000D01*
X116496821Y-99141313D01*
X116496821Y-99141313D01*
G37*
G36*
X142566565Y-96929389D02*
X142757834Y-97008615D01*
X142929976Y-97123637D01*
X143076363Y-97270024D01*
X143191385Y-97442166D01*
X143270611Y-97633435D01*
X143311000Y-97836484D01*
X143311000Y-98043516D01*
X143270611Y-98246565D01*
X143191385Y-98437834D01*
X143076363Y-98609976D01*
X142929976Y-98756363D01*
X142757834Y-98871385D01*
X142566565Y-98950611D01*
X142363516Y-98991000D01*
X142156484Y-98991000D01*
X141953435Y-98950611D01*
X141762166Y-98871385D01*
X141590024Y-98756363D01*
X141443637Y-98609976D01*
X141328615Y-98437834D01*
X141249389Y-98246565D01*
X141209000Y-98043516D01*
X141209000Y-97836484D01*
X141249389Y-97633435D01*
X141328615Y-97442166D01*
X141443637Y-97270024D01*
X141590024Y-97123637D01*
X141762166Y-97008615D01*
X141953435Y-96929389D01*
X142156484Y-96889000D01*
X142363516Y-96889000D01*
X142566565Y-96929389D01*
X142566565Y-96929389D01*
G37*
G36*
X116496821Y-96601313D02*
X116496824Y-96601314D01*
X116496825Y-96601314D01*
X116657239Y-96649975D01*
X116657241Y-96649976D01*
X116657244Y-96649977D01*
X116805078Y-96728995D01*
X116934659Y-96835341D01*
X117041005Y-96964922D01*
X117120023Y-97112756D01*
X117120024Y-97112759D01*
X117120025Y-97112761D01*
X117123324Y-97123637D01*
X117168687Y-97273179D01*
X117185117Y-97440000D01*
X117168687Y-97606821D01*
X117120023Y-97767244D01*
X117041005Y-97915078D01*
X116934659Y-98044659D01*
X116805078Y-98151005D01*
X116657244Y-98230023D01*
X116657241Y-98230024D01*
X116657239Y-98230025D01*
X116496825Y-98278686D01*
X116496824Y-98278686D01*
X116496821Y-98278687D01*
X116371804Y-98291000D01*
X116288196Y-98291000D01*
X116163179Y-98278687D01*
X116163176Y-98278686D01*
X116163175Y-98278686D01*
X116002761Y-98230025D01*
X116002759Y-98230024D01*
X116002756Y-98230023D01*
X115854922Y-98151005D01*
X115725341Y-98044659D01*
X115618995Y-97915078D01*
X115539977Y-97767244D01*
X115491313Y-97606821D01*
X115474883Y-97440000D01*
X115491313Y-97273179D01*
X115536676Y-97123637D01*
X115539975Y-97112761D01*
X115539976Y-97112759D01*
X115539977Y-97112756D01*
X115618995Y-96964922D01*
X115725341Y-96835341D01*
X115854922Y-96728995D01*
X116002756Y-96649977D01*
X116002759Y-96649976D01*
X116002761Y-96649975D01*
X116163175Y-96601314D01*
X116163176Y-96601314D01*
X116163179Y-96601313D01*
X116288196Y-96589000D01*
X116371804Y-96589000D01*
X116496821Y-96601313D01*
X116496821Y-96601313D01*
G37*
G36*
X131736821Y-96601313D02*
X131736824Y-96601314D01*
X131736825Y-96601314D01*
X131897239Y-96649975D01*
X131897241Y-96649976D01*
X131897244Y-96649977D01*
X132045078Y-96728995D01*
X132174659Y-96835341D01*
X132281005Y-96964922D01*
X132360023Y-97112756D01*
X132360024Y-97112759D01*
X132360025Y-97112761D01*
X132363324Y-97123637D01*
X132408687Y-97273179D01*
X132425117Y-97440000D01*
X132408687Y-97606821D01*
X132360023Y-97767244D01*
X132281005Y-97915078D01*
X132174659Y-98044659D01*
X132045078Y-98151005D01*
X131897244Y-98230023D01*
X131897241Y-98230024D01*
X131897239Y-98230025D01*
X131736825Y-98278686D01*
X131736824Y-98278686D01*
X131736821Y-98278687D01*
X131611804Y-98291000D01*
X131528196Y-98291000D01*
X131403179Y-98278687D01*
X131403176Y-98278686D01*
X131403175Y-98278686D01*
X131242761Y-98230025D01*
X131242759Y-98230024D01*
X131242756Y-98230023D01*
X131094922Y-98151005D01*
X130965341Y-98044659D01*
X130858995Y-97915078D01*
X130779977Y-97767244D01*
X130731313Y-97606821D01*
X130714883Y-97440000D01*
X130731313Y-97273179D01*
X130776676Y-97123637D01*
X130779975Y-97112761D01*
X130779976Y-97112759D01*
X130779977Y-97112756D01*
X130858995Y-96964922D01*
X130965341Y-96835341D01*
X131094922Y-96728995D01*
X131242756Y-96649977D01*
X131242759Y-96649976D01*
X131242761Y-96649975D01*
X131403175Y-96601314D01*
X131403176Y-96601314D01*
X131403179Y-96601313D01*
X131528196Y-96589000D01*
X131611804Y-96589000D01*
X131736821Y-96601313D01*
X131736821Y-96601313D01*
G37*
G36*
X116496821Y-94061313D02*
X116496824Y-94061314D01*
X116496825Y-94061314D01*
X116657239Y-94109975D01*
X116657241Y-94109976D01*
X116657244Y-94109977D01*
X116805078Y-94188995D01*
X116934659Y-94295341D01*
X117041005Y-94424922D01*
X117120023Y-94572756D01*
X117168687Y-94733179D01*
X117185117Y-94900000D01*
X117168687Y-95066821D01*
X117120023Y-95227244D01*
X117041005Y-95375078D01*
X116934659Y-95504659D01*
X116805078Y-95611005D01*
X116657244Y-95690023D01*
X116657241Y-95690024D01*
X116657239Y-95690025D01*
X116496825Y-95738686D01*
X116496824Y-95738686D01*
X116496821Y-95738687D01*
X116371804Y-95751000D01*
X116288196Y-95751000D01*
X116163179Y-95738687D01*
X116163176Y-95738686D01*
X116163175Y-95738686D01*
X116002761Y-95690025D01*
X116002759Y-95690024D01*
X116002756Y-95690023D01*
X115854922Y-95611005D01*
X115725341Y-95504659D01*
X115618995Y-95375078D01*
X115539977Y-95227244D01*
X115491313Y-95066821D01*
X115474883Y-94900000D01*
X115491313Y-94733179D01*
X115539977Y-94572756D01*
X115618995Y-94424922D01*
X115725341Y-94295341D01*
X115854922Y-94188995D01*
X116002756Y-94109977D01*
X116002759Y-94109976D01*
X116002761Y-94109975D01*
X116163175Y-94061314D01*
X116163176Y-94061314D01*
X116163179Y-94061313D01*
X116288196Y-94049000D01*
X116371804Y-94049000D01*
X116496821Y-94061313D01*
X116496821Y-94061313D01*
G37*
G36*
X131736821Y-94061313D02*
X131736824Y-94061314D01*
X131736825Y-94061314D01*
X131897239Y-94109975D01*
X131897241Y-94109976D01*
X131897244Y-94109977D01*
X132045078Y-94188995D01*
X132174659Y-94295341D01*
X132281005Y-94424922D01*
X132360023Y-94572756D01*
X132408687Y-94733179D01*
X132425117Y-94900000D01*
X132408687Y-95066821D01*
X132360023Y-95227244D01*
X132281005Y-95375078D01*
X132174659Y-95504659D01*
X132045078Y-95611005D01*
X131897244Y-95690023D01*
X131897241Y-95690024D01*
X131897239Y-95690025D01*
X131736825Y-95738686D01*
X131736824Y-95738686D01*
X131736821Y-95738687D01*
X131611804Y-95751000D01*
X131528196Y-95751000D01*
X131403179Y-95738687D01*
X131403176Y-95738686D01*
X131403175Y-95738686D01*
X131242761Y-95690025D01*
X131242759Y-95690024D01*
X131242756Y-95690023D01*
X131094922Y-95611005D01*
X130965341Y-95504659D01*
X130858995Y-95375078D01*
X130779977Y-95227244D01*
X130731313Y-95066821D01*
X130714883Y-94900000D01*
X130731313Y-94733179D01*
X130779977Y-94572756D01*
X130858995Y-94424922D01*
X130965341Y-94295341D01*
X131094922Y-94188995D01*
X131242756Y-94109977D01*
X131242759Y-94109976D01*
X131242761Y-94109975D01*
X131403175Y-94061314D01*
X131403176Y-94061314D01*
X131403179Y-94061313D01*
X131528196Y-94049000D01*
X131611804Y-94049000D01*
X131736821Y-94061313D01*
X131736821Y-94061313D01*
G37*
G36*
X142566565Y-92929389D02*
X142757834Y-93008615D01*
X142929976Y-93123637D01*
X143076363Y-93270024D01*
X143191385Y-93442166D01*
X143270611Y-93633435D01*
X143311000Y-93836484D01*
X143311000Y-94043516D01*
X143270611Y-94246565D01*
X143191385Y-94437834D01*
X143076363Y-94609976D01*
X142929976Y-94756363D01*
X142757834Y-94871385D01*
X142566565Y-94950611D01*
X142363516Y-94991000D01*
X142156484Y-94991000D01*
X141953435Y-94950611D01*
X141762166Y-94871385D01*
X141590024Y-94756363D01*
X141443637Y-94609976D01*
X141328615Y-94437834D01*
X141249389Y-94246565D01*
X141209000Y-94043516D01*
X141209000Y-93836484D01*
X141249389Y-93633435D01*
X141328615Y-93442166D01*
X141443637Y-93270024D01*
X141590024Y-93123637D01*
X141762166Y-93008615D01*
X141953435Y-92929389D01*
X142156484Y-92889000D01*
X142363516Y-92889000D01*
X142566565Y-92929389D01*
X142566565Y-92929389D01*
G37*
G36*
X131736821Y-91521313D02*
X131736824Y-91521314D01*
X131736825Y-91521314D01*
X131897239Y-91569975D01*
X131897241Y-91569976D01*
X131897244Y-91569977D01*
X132045078Y-91648995D01*
X132174659Y-91755341D01*
X132281005Y-91884922D01*
X132360023Y-92032756D01*
X132408687Y-92193179D01*
X132425117Y-92360000D01*
X132408687Y-92526821D01*
X132360023Y-92687244D01*
X132281005Y-92835078D01*
X132174659Y-92964659D01*
X132045078Y-93071005D01*
X131897244Y-93150023D01*
X131897241Y-93150024D01*
X131897239Y-93150025D01*
X131736825Y-93198686D01*
X131736824Y-93198686D01*
X131736821Y-93198687D01*
X131611804Y-93211000D01*
X131528196Y-93211000D01*
X131403179Y-93198687D01*
X131403176Y-93198686D01*
X131403175Y-93198686D01*
X131242761Y-93150025D01*
X131242759Y-93150024D01*
X131242756Y-93150023D01*
X131094922Y-93071005D01*
X130965341Y-92964659D01*
X130858995Y-92835078D01*
X130779977Y-92687244D01*
X130731313Y-92526821D01*
X130714883Y-92360000D01*
X130731313Y-92193179D01*
X130779977Y-92032756D01*
X130858995Y-91884922D01*
X130965341Y-91755341D01*
X131094922Y-91648995D01*
X131242756Y-91569977D01*
X131242759Y-91569976D01*
X131242761Y-91569975D01*
X131403175Y-91521314D01*
X131403176Y-91521314D01*
X131403179Y-91521313D01*
X131528196Y-91509000D01*
X131611804Y-91509000D01*
X131736821Y-91521313D01*
X131736821Y-91521313D01*
G37*
G36*
X116496821Y-91521313D02*
X116496824Y-91521314D01*
X116496825Y-91521314D01*
X116657239Y-91569975D01*
X116657241Y-91569976D01*
X116657244Y-91569977D01*
X116805078Y-91648995D01*
X116934659Y-91755341D01*
X117041005Y-91884922D01*
X117120023Y-92032756D01*
X117168687Y-92193179D01*
X117185117Y-92360000D01*
X117168687Y-92526821D01*
X117120023Y-92687244D01*
X117041005Y-92835078D01*
X116934659Y-92964659D01*
X116805078Y-93071005D01*
X116657244Y-93150023D01*
X116657241Y-93150024D01*
X116657239Y-93150025D01*
X116496825Y-93198686D01*
X116496824Y-93198686D01*
X116496821Y-93198687D01*
X116371804Y-93211000D01*
X116288196Y-93211000D01*
X116163179Y-93198687D01*
X116163176Y-93198686D01*
X116163175Y-93198686D01*
X116002761Y-93150025D01*
X116002759Y-93150024D01*
X116002756Y-93150023D01*
X115854922Y-93071005D01*
X115725341Y-92964659D01*
X115618995Y-92835078D01*
X115539977Y-92687244D01*
X115491313Y-92526821D01*
X115474883Y-92360000D01*
X115491313Y-92193179D01*
X115539977Y-92032756D01*
X115618995Y-91884922D01*
X115725341Y-91755341D01*
X115854922Y-91648995D01*
X116002756Y-91569977D01*
X116002759Y-91569976D01*
X116002761Y-91569975D01*
X116163175Y-91521314D01*
X116163176Y-91521314D01*
X116163179Y-91521313D01*
X116288196Y-91509000D01*
X116371804Y-91509000D01*
X116496821Y-91521313D01*
X116496821Y-91521313D01*
G37*
G36*
X137112527Y-88428736D02*
X137212410Y-88448604D01*
X137494674Y-88565521D01*
X137748705Y-88735259D01*
X137964741Y-88951295D01*
X138134479Y-89205326D01*
X138251396Y-89487590D01*
X138271264Y-89587473D01*
X138311000Y-89787238D01*
X138311000Y-90092762D01*
X138280406Y-90246565D01*
X138251396Y-90392410D01*
X138134479Y-90674674D01*
X137964741Y-90928705D01*
X137748705Y-91144741D01*
X137494674Y-91314479D01*
X137212410Y-91431396D01*
X137112527Y-91451264D01*
X136912762Y-91491000D01*
X136607238Y-91491000D01*
X136407473Y-91451264D01*
X136307590Y-91431396D01*
X136025326Y-91314479D01*
X135771295Y-91144741D01*
X135555259Y-90928705D01*
X135385521Y-90674674D01*
X135268604Y-90392410D01*
X135239594Y-90246565D01*
X135209000Y-90092762D01*
X135209000Y-89787238D01*
X135248736Y-89587473D01*
X135268604Y-89487590D01*
X135385521Y-89205326D01*
X135555259Y-88951295D01*
X135771295Y-88735259D01*
X136025326Y-88565521D01*
X136307590Y-88448604D01*
X136407473Y-88428736D01*
X136607238Y-88389000D01*
X136912762Y-88389000D01*
X137112527Y-88428736D01*
X137112527Y-88428736D01*
G37*
G36*
X142566565Y-88929389D02*
X142757834Y-89008615D01*
X142929976Y-89123637D01*
X143076363Y-89270024D01*
X143191385Y-89442166D01*
X143270611Y-89633435D01*
X143311000Y-89836484D01*
X143311000Y-90043516D01*
X143270611Y-90246565D01*
X143191385Y-90437834D01*
X143076363Y-90609976D01*
X142929976Y-90756363D01*
X142757834Y-90871385D01*
X142566565Y-90950611D01*
X142363516Y-90991000D01*
X142156484Y-90991000D01*
X141953435Y-90950611D01*
X141762166Y-90871385D01*
X141590024Y-90756363D01*
X141443637Y-90609976D01*
X141328615Y-90437834D01*
X141249389Y-90246565D01*
X141209000Y-90043516D01*
X141209000Y-89836484D01*
X141249389Y-89633435D01*
X141328615Y-89442166D01*
X141443637Y-89270024D01*
X141590024Y-89123637D01*
X141762166Y-89008615D01*
X141953435Y-88929389D01*
X142156484Y-88889000D01*
X142363516Y-88889000D01*
X142566565Y-88929389D01*
X142566565Y-88929389D01*
G37*
G36*
X116496821Y-88981313D02*
X116496824Y-88981314D01*
X116496825Y-88981314D01*
X116657239Y-89029975D01*
X116657241Y-89029976D01*
X116657244Y-89029977D01*
X116805078Y-89108995D01*
X116934659Y-89215341D01*
X117041005Y-89344922D01*
X117120023Y-89492756D01*
X117168687Y-89653179D01*
X117185117Y-89820000D01*
X117168687Y-89986821D01*
X117168686Y-89986824D01*
X117168686Y-89986825D01*
X117151490Y-90043514D01*
X117120023Y-90147244D01*
X117041005Y-90295078D01*
X116934659Y-90424659D01*
X116805078Y-90531005D01*
X116657244Y-90610023D01*
X116657241Y-90610024D01*
X116657239Y-90610025D01*
X116496825Y-90658686D01*
X116496824Y-90658686D01*
X116496821Y-90658687D01*
X116371804Y-90671000D01*
X116288196Y-90671000D01*
X116163179Y-90658687D01*
X116163176Y-90658686D01*
X116163175Y-90658686D01*
X116002761Y-90610025D01*
X116002759Y-90610024D01*
X116002756Y-90610023D01*
X115854922Y-90531005D01*
X115725341Y-90424659D01*
X115618995Y-90295078D01*
X115539977Y-90147244D01*
X115508511Y-90043514D01*
X115491314Y-89986825D01*
X115491314Y-89986824D01*
X115491313Y-89986821D01*
X115474883Y-89820000D01*
X115491313Y-89653179D01*
X115539977Y-89492756D01*
X115618995Y-89344922D01*
X115725341Y-89215341D01*
X115854922Y-89108995D01*
X116002756Y-89029977D01*
X116002759Y-89029976D01*
X116002761Y-89029975D01*
X116163175Y-88981314D01*
X116163176Y-88981314D01*
X116163179Y-88981313D01*
X116288196Y-88969000D01*
X116371804Y-88969000D01*
X116496821Y-88981313D01*
X116496821Y-88981313D01*
G37*
G36*
X131736821Y-88981313D02*
X131736824Y-88981314D01*
X131736825Y-88981314D01*
X131897239Y-89029975D01*
X131897241Y-89029976D01*
X131897244Y-89029977D01*
X132045078Y-89108995D01*
X132174659Y-89215341D01*
X132281005Y-89344922D01*
X132360023Y-89492756D01*
X132408687Y-89653179D01*
X132425117Y-89820000D01*
X132408687Y-89986821D01*
X132408686Y-89986824D01*
X132408686Y-89986825D01*
X132391490Y-90043514D01*
X132360023Y-90147244D01*
X132281005Y-90295078D01*
X132174659Y-90424659D01*
X132045078Y-90531005D01*
X131897244Y-90610023D01*
X131897241Y-90610024D01*
X131897239Y-90610025D01*
X131736825Y-90658686D01*
X131736824Y-90658686D01*
X131736821Y-90658687D01*
X131611804Y-90671000D01*
X131528196Y-90671000D01*
X131403179Y-90658687D01*
X131403176Y-90658686D01*
X131403175Y-90658686D01*
X131242761Y-90610025D01*
X131242759Y-90610024D01*
X131242756Y-90610023D01*
X131094922Y-90531005D01*
X130965341Y-90424659D01*
X130858995Y-90295078D01*
X130779977Y-90147244D01*
X130748511Y-90043514D01*
X130731314Y-89986825D01*
X130731314Y-89986824D01*
X130731313Y-89986821D01*
X130714883Y-89820000D01*
X130731313Y-89653179D01*
X130779977Y-89492756D01*
X130858995Y-89344922D01*
X130965341Y-89215341D01*
X131094922Y-89108995D01*
X131242756Y-89029977D01*
X131242759Y-89029976D01*
X131242761Y-89029975D01*
X131403175Y-88981314D01*
X131403176Y-88981314D01*
X131403179Y-88981313D01*
X131528196Y-88969000D01*
X131611804Y-88969000D01*
X131736821Y-88981313D01*
X131736821Y-88981313D01*
G37*
G36*
X116496821Y-86441313D02*
X116496824Y-86441314D01*
X116496825Y-86441314D01*
X116657239Y-86489975D01*
X116657241Y-86489976D01*
X116657244Y-86489977D01*
X116805078Y-86568995D01*
X116934659Y-86675341D01*
X117041005Y-86804922D01*
X117120023Y-86952756D01*
X117120024Y-86952759D01*
X117120025Y-86952761D01*
X117168686Y-87113175D01*
X117168687Y-87113179D01*
X117185117Y-87280000D01*
X117168687Y-87446821D01*
X117120023Y-87607244D01*
X117041005Y-87755078D01*
X116934659Y-87884659D01*
X116805078Y-87991005D01*
X116657244Y-88070023D01*
X116657241Y-88070024D01*
X116657239Y-88070025D01*
X116496825Y-88118686D01*
X116496824Y-88118686D01*
X116496821Y-88118687D01*
X116371804Y-88131000D01*
X116288196Y-88131000D01*
X116163179Y-88118687D01*
X116163176Y-88118686D01*
X116163175Y-88118686D01*
X116002761Y-88070025D01*
X116002759Y-88070024D01*
X116002756Y-88070023D01*
X115854922Y-87991005D01*
X115725341Y-87884659D01*
X115618995Y-87755078D01*
X115539977Y-87607244D01*
X115491313Y-87446821D01*
X115474883Y-87280000D01*
X115491313Y-87113179D01*
X115491314Y-87113175D01*
X115539975Y-86952761D01*
X115539976Y-86952759D01*
X115539977Y-86952756D01*
X115618995Y-86804922D01*
X115725341Y-86675341D01*
X115854922Y-86568995D01*
X116002756Y-86489977D01*
X116002759Y-86489976D01*
X116002761Y-86489975D01*
X116163175Y-86441314D01*
X116163176Y-86441314D01*
X116163179Y-86441313D01*
X116288196Y-86429000D01*
X116371804Y-86429000D01*
X116496821Y-86441313D01*
X116496821Y-86441313D01*
G37*
G36*
X131736821Y-86441313D02*
X131736824Y-86441314D01*
X131736825Y-86441314D01*
X131897239Y-86489975D01*
X131897241Y-86489976D01*
X131897244Y-86489977D01*
X132045078Y-86568995D01*
X132174659Y-86675341D01*
X132281005Y-86804922D01*
X132360023Y-86952756D01*
X132360024Y-86952759D01*
X132360025Y-86952761D01*
X132408686Y-87113175D01*
X132408687Y-87113179D01*
X132425117Y-87280000D01*
X132408687Y-87446821D01*
X132360023Y-87607244D01*
X132281005Y-87755078D01*
X132174659Y-87884659D01*
X132045078Y-87991005D01*
X131897244Y-88070023D01*
X131897241Y-88070024D01*
X131897239Y-88070025D01*
X131736825Y-88118686D01*
X131736824Y-88118686D01*
X131736821Y-88118687D01*
X131611804Y-88131000D01*
X131528196Y-88131000D01*
X131403179Y-88118687D01*
X131403176Y-88118686D01*
X131403175Y-88118686D01*
X131242761Y-88070025D01*
X131242759Y-88070024D01*
X131242756Y-88070023D01*
X131094922Y-87991005D01*
X130965341Y-87884659D01*
X130858995Y-87755078D01*
X130779977Y-87607244D01*
X130731313Y-87446821D01*
X130714883Y-87280000D01*
X130731313Y-87113179D01*
X130731314Y-87113175D01*
X130779975Y-86952761D01*
X130779976Y-86952759D01*
X130779977Y-86952756D01*
X130858995Y-86804922D01*
X130965341Y-86675341D01*
X131094922Y-86568995D01*
X131242756Y-86489977D01*
X131242759Y-86489976D01*
X131242761Y-86489975D01*
X131403175Y-86441314D01*
X131403176Y-86441314D01*
X131403179Y-86441313D01*
X131528196Y-86429000D01*
X131611804Y-86429000D01*
X131736821Y-86441313D01*
X131736821Y-86441313D01*
G37*
G36*
X142566565Y-84929389D02*
X142757834Y-85008615D01*
X142929976Y-85123637D01*
X143076363Y-85270024D01*
X143191385Y-85442166D01*
X143270611Y-85633435D01*
X143311000Y-85836484D01*
X143311000Y-86043516D01*
X143270611Y-86246565D01*
X143191385Y-86437834D01*
X143076363Y-86609976D01*
X142929976Y-86756363D01*
X142757834Y-86871385D01*
X142566565Y-86950611D01*
X142363516Y-86991000D01*
X142156484Y-86991000D01*
X141953435Y-86950611D01*
X141762166Y-86871385D01*
X141590024Y-86756363D01*
X141443637Y-86609976D01*
X141328615Y-86437834D01*
X141249389Y-86246565D01*
X141209000Y-86043516D01*
X141209000Y-85836484D01*
X141249389Y-85633435D01*
X141328615Y-85442166D01*
X141443637Y-85270024D01*
X141590024Y-85123637D01*
X141762166Y-85008615D01*
X141953435Y-84929389D01*
X142156484Y-84889000D01*
X142363516Y-84889000D01*
X142566565Y-84929389D01*
X142566565Y-84929389D01*
G37*
G36*
X131736821Y-83901313D02*
X131736824Y-83901314D01*
X131736825Y-83901314D01*
X131897239Y-83949975D01*
X131897241Y-83949976D01*
X131897244Y-83949977D01*
X132045078Y-84028995D01*
X132174659Y-84135341D01*
X132281005Y-84264922D01*
X132360023Y-84412756D01*
X132408687Y-84573179D01*
X132425117Y-84740000D01*
X132408687Y-84906821D01*
X132360023Y-85067244D01*
X132281005Y-85215078D01*
X132174659Y-85344659D01*
X132045078Y-85451005D01*
X131897244Y-85530023D01*
X131897241Y-85530024D01*
X131897239Y-85530025D01*
X131736825Y-85578686D01*
X131736824Y-85578686D01*
X131736821Y-85578687D01*
X131611804Y-85591000D01*
X131528196Y-85591000D01*
X131403179Y-85578687D01*
X131403176Y-85578686D01*
X131403175Y-85578686D01*
X131242761Y-85530025D01*
X131242759Y-85530024D01*
X131242756Y-85530023D01*
X131094922Y-85451005D01*
X130965341Y-85344659D01*
X130858995Y-85215078D01*
X130779977Y-85067244D01*
X130731313Y-84906821D01*
X130714883Y-84740000D01*
X130731313Y-84573179D01*
X130779977Y-84412756D01*
X130858995Y-84264922D01*
X130965341Y-84135341D01*
X131094922Y-84028995D01*
X131242756Y-83949977D01*
X131242759Y-83949976D01*
X131242761Y-83949975D01*
X131403175Y-83901314D01*
X131403176Y-83901314D01*
X131403179Y-83901313D01*
X131528196Y-83889000D01*
X131611804Y-83889000D01*
X131736821Y-83901313D01*
X131736821Y-83901313D01*
G37*
G36*
X116496821Y-83901313D02*
X116496824Y-83901314D01*
X116496825Y-83901314D01*
X116657239Y-83949975D01*
X116657241Y-83949976D01*
X116657244Y-83949977D01*
X116805078Y-84028995D01*
X116934659Y-84135341D01*
X117041005Y-84264922D01*
X117120023Y-84412756D01*
X117168687Y-84573179D01*
X117185117Y-84740000D01*
X117168687Y-84906821D01*
X117120023Y-85067244D01*
X117041005Y-85215078D01*
X116934659Y-85344659D01*
X116805078Y-85451005D01*
X116657244Y-85530023D01*
X116657241Y-85530024D01*
X116657239Y-85530025D01*
X116496825Y-85578686D01*
X116496824Y-85578686D01*
X116496821Y-85578687D01*
X116371804Y-85591000D01*
X116288196Y-85591000D01*
X116163179Y-85578687D01*
X116163176Y-85578686D01*
X116163175Y-85578686D01*
X116002761Y-85530025D01*
X116002759Y-85530024D01*
X116002756Y-85530023D01*
X115854922Y-85451005D01*
X115725341Y-85344659D01*
X115618995Y-85215078D01*
X115539977Y-85067244D01*
X115491313Y-84906821D01*
X115474883Y-84740000D01*
X115491313Y-84573179D01*
X115539977Y-84412756D01*
X115618995Y-84264922D01*
X115725341Y-84135341D01*
X115854922Y-84028995D01*
X116002756Y-83949977D01*
X116002759Y-83949976D01*
X116002761Y-83949975D01*
X116163175Y-83901314D01*
X116163176Y-83901314D01*
X116163179Y-83901313D01*
X116288196Y-83889000D01*
X116371804Y-83889000D01*
X116496821Y-83901313D01*
X116496821Y-83901313D01*
G37*
G36*
X131736821Y-81361313D02*
X131736824Y-81361314D01*
X131736825Y-81361314D01*
X131897239Y-81409975D01*
X131897241Y-81409976D01*
X131897244Y-81409977D01*
X132045078Y-81488995D01*
X132174659Y-81595341D01*
X132281005Y-81724922D01*
X132360023Y-81872756D01*
X132408687Y-82033179D01*
X132425117Y-82200000D01*
X132408687Y-82366821D01*
X132408686Y-82366824D01*
X132408686Y-82366825D01*
X132387146Y-82437834D01*
X132360023Y-82527244D01*
X132281005Y-82675078D01*
X132174659Y-82804659D01*
X132045078Y-82911005D01*
X131897244Y-82990023D01*
X131897241Y-82990024D01*
X131897239Y-82990025D01*
X131736825Y-83038686D01*
X131736824Y-83038686D01*
X131736821Y-83038687D01*
X131611804Y-83051000D01*
X131528196Y-83051000D01*
X131403179Y-83038687D01*
X131403176Y-83038686D01*
X131403175Y-83038686D01*
X131242761Y-82990025D01*
X131242759Y-82990024D01*
X131242756Y-82990023D01*
X131094922Y-82911005D01*
X130965341Y-82804659D01*
X130858995Y-82675078D01*
X130779977Y-82527244D01*
X130752855Y-82437834D01*
X130731314Y-82366825D01*
X130731314Y-82366824D01*
X130731313Y-82366821D01*
X130714883Y-82200000D01*
X130731313Y-82033179D01*
X130779977Y-81872756D01*
X130858995Y-81724922D01*
X130965341Y-81595341D01*
X131094922Y-81488995D01*
X131242756Y-81409977D01*
X131242759Y-81409976D01*
X131242761Y-81409975D01*
X131403175Y-81361314D01*
X131403176Y-81361314D01*
X131403179Y-81361313D01*
X131528196Y-81349000D01*
X131611804Y-81349000D01*
X131736821Y-81361313D01*
X131736821Y-81361313D01*
G37*
G36*
X116496821Y-81361313D02*
X116496824Y-81361314D01*
X116496825Y-81361314D01*
X116657239Y-81409975D01*
X116657241Y-81409976D01*
X116657244Y-81409977D01*
X116805078Y-81488995D01*
X116934659Y-81595341D01*
X117041005Y-81724922D01*
X117120023Y-81872756D01*
X117168687Y-82033179D01*
X117185117Y-82200000D01*
X117168687Y-82366821D01*
X117168686Y-82366824D01*
X117168686Y-82366825D01*
X117147146Y-82437834D01*
X117120023Y-82527244D01*
X117041005Y-82675078D01*
X116934659Y-82804659D01*
X116805078Y-82911005D01*
X116657244Y-82990023D01*
X116657241Y-82990024D01*
X116657239Y-82990025D01*
X116496825Y-83038686D01*
X116496824Y-83038686D01*
X116496821Y-83038687D01*
X116371804Y-83051000D01*
X116288196Y-83051000D01*
X116163179Y-83038687D01*
X116163176Y-83038686D01*
X116163175Y-83038686D01*
X116002761Y-82990025D01*
X116002759Y-82990024D01*
X116002756Y-82990023D01*
X115854922Y-82911005D01*
X115725341Y-82804659D01*
X115618995Y-82675078D01*
X115539977Y-82527244D01*
X115512855Y-82437834D01*
X115491314Y-82366825D01*
X115491314Y-82366824D01*
X115491313Y-82366821D01*
X115474883Y-82200000D01*
X115491313Y-82033179D01*
X115539977Y-81872756D01*
X115618995Y-81724922D01*
X115725341Y-81595341D01*
X115854922Y-81488995D01*
X116002756Y-81409977D01*
X116002759Y-81409976D01*
X116002761Y-81409975D01*
X116163175Y-81361314D01*
X116163176Y-81361314D01*
X116163179Y-81361313D01*
X116288196Y-81349000D01*
X116371804Y-81349000D01*
X116496821Y-81361313D01*
X116496821Y-81361313D01*
G37*
G36*
X142566565Y-80929389D02*
X142757834Y-81008615D01*
X142929976Y-81123637D01*
X143076363Y-81270024D01*
X143191385Y-81442166D01*
X143270611Y-81633435D01*
X143311000Y-81836484D01*
X143311000Y-82043516D01*
X143270611Y-82246565D01*
X143191385Y-82437834D01*
X143076363Y-82609976D01*
X142929976Y-82756363D01*
X142757834Y-82871385D01*
X142566565Y-82950611D01*
X142363516Y-82991000D01*
X142156484Y-82991000D01*
X141953435Y-82950611D01*
X141762166Y-82871385D01*
X141590024Y-82756363D01*
X141443637Y-82609976D01*
X141328615Y-82437834D01*
X141249389Y-82246565D01*
X141209000Y-82043516D01*
X141209000Y-81836484D01*
X141249389Y-81633435D01*
X141328615Y-81442166D01*
X141443637Y-81270024D01*
X141590024Y-81123637D01*
X141762166Y-81008615D01*
X141953435Y-80929389D01*
X142156484Y-80889000D01*
X142363516Y-80889000D01*
X142566565Y-80929389D01*
X142566565Y-80929389D01*
G37*
G36*
X131736821Y-78821313D02*
X131736824Y-78821314D01*
X131736825Y-78821314D01*
X131897239Y-78869975D01*
X131897241Y-78869976D01*
X131897244Y-78869977D01*
X132045078Y-78948995D01*
X132174659Y-79055341D01*
X132281005Y-79184922D01*
X132360023Y-79332756D01*
X132408687Y-79493179D01*
X132425117Y-79660000D01*
X132408687Y-79826821D01*
X132360023Y-79987244D01*
X132281005Y-80135078D01*
X132174659Y-80264659D01*
X132045078Y-80371005D01*
X131897244Y-80450023D01*
X131897241Y-80450024D01*
X131897239Y-80450025D01*
X131736825Y-80498686D01*
X131736824Y-80498686D01*
X131736821Y-80498687D01*
X131611804Y-80511000D01*
X131528196Y-80511000D01*
X131403179Y-80498687D01*
X131403176Y-80498686D01*
X131403175Y-80498686D01*
X131242761Y-80450025D01*
X131242759Y-80450024D01*
X131242756Y-80450023D01*
X131094922Y-80371005D01*
X130965341Y-80264659D01*
X130858995Y-80135078D01*
X130779977Y-79987244D01*
X130731313Y-79826821D01*
X130714883Y-79660000D01*
X130731313Y-79493179D01*
X130779977Y-79332756D01*
X130858995Y-79184922D01*
X130965341Y-79055341D01*
X131094922Y-78948995D01*
X131242756Y-78869977D01*
X131242759Y-78869976D01*
X131242761Y-78869975D01*
X131403175Y-78821314D01*
X131403176Y-78821314D01*
X131403179Y-78821313D01*
X131528196Y-78809000D01*
X131611804Y-78809000D01*
X131736821Y-78821313D01*
X131736821Y-78821313D01*
G37*
G36*
X116496821Y-78821313D02*
X116496824Y-78821314D01*
X116496825Y-78821314D01*
X116657239Y-78869975D01*
X116657241Y-78869976D01*
X116657244Y-78869977D01*
X116805078Y-78948995D01*
X116934659Y-79055341D01*
X117041005Y-79184922D01*
X117120023Y-79332756D01*
X117168687Y-79493179D01*
X117185117Y-79660000D01*
X117168687Y-79826821D01*
X117120023Y-79987244D01*
X117041005Y-80135078D01*
X116934659Y-80264659D01*
X116805078Y-80371005D01*
X116657244Y-80450023D01*
X116657241Y-80450024D01*
X116657239Y-80450025D01*
X116496825Y-80498686D01*
X116496824Y-80498686D01*
X116496821Y-80498687D01*
X116371804Y-80511000D01*
X116288196Y-80511000D01*
X116163179Y-80498687D01*
X116163176Y-80498686D01*
X116163175Y-80498686D01*
X116002761Y-80450025D01*
X116002759Y-80450024D01*
X116002756Y-80450023D01*
X115854922Y-80371005D01*
X115725341Y-80264659D01*
X115618995Y-80135078D01*
X115539977Y-79987244D01*
X115491313Y-79826821D01*
X115474883Y-79660000D01*
X115491313Y-79493179D01*
X115539977Y-79332756D01*
X115618995Y-79184922D01*
X115725341Y-79055341D01*
X115854922Y-78948995D01*
X116002756Y-78869977D01*
X116002759Y-78869976D01*
X116002761Y-78869975D01*
X116163175Y-78821314D01*
X116163176Y-78821314D01*
X116163179Y-78821313D01*
X116288196Y-78809000D01*
X116371804Y-78809000D01*
X116496821Y-78821313D01*
X116496821Y-78821313D01*
G37*
G36*
X142566565Y-76929389D02*
X142757834Y-77008615D01*
X142929976Y-77123637D01*
X143076363Y-77270024D01*
X143191385Y-77442166D01*
X143270611Y-77633435D01*
X143311000Y-77836484D01*
X143311000Y-78043516D01*
X143270611Y-78246565D01*
X143191385Y-78437834D01*
X143076363Y-78609976D01*
X142929976Y-78756363D01*
X142757834Y-78871385D01*
X142566565Y-78950611D01*
X142363516Y-78991000D01*
X142156484Y-78991000D01*
X141953435Y-78950611D01*
X141762166Y-78871385D01*
X141590024Y-78756363D01*
X141443637Y-78609976D01*
X141328615Y-78437834D01*
X141249389Y-78246565D01*
X141209000Y-78043516D01*
X141209000Y-77836484D01*
X141249389Y-77633435D01*
X141328615Y-77442166D01*
X141443637Y-77270024D01*
X141590024Y-77123637D01*
X141762166Y-77008615D01*
X141953435Y-76929389D01*
X142156484Y-76889000D01*
X142363516Y-76889000D01*
X142566565Y-76929389D01*
X142566565Y-76929389D01*
G37*
G36*
X131736821Y-76281313D02*
X131736824Y-76281314D01*
X131736825Y-76281314D01*
X131897239Y-76329975D01*
X131897241Y-76329976D01*
X131897244Y-76329977D01*
X132045078Y-76408995D01*
X132174659Y-76515341D01*
X132281005Y-76644922D01*
X132360023Y-76792756D01*
X132360024Y-76792759D01*
X132360025Y-76792761D01*
X132401471Y-76929390D01*
X132408687Y-76953179D01*
X132425117Y-77120000D01*
X132408687Y-77286821D01*
X132408686Y-77286824D01*
X132408686Y-77286825D01*
X132361564Y-77442166D01*
X132360023Y-77447244D01*
X132281005Y-77595078D01*
X132174659Y-77724659D01*
X132045078Y-77831005D01*
X131897244Y-77910023D01*
X131897241Y-77910024D01*
X131897239Y-77910025D01*
X131736825Y-77958686D01*
X131736824Y-77958686D01*
X131736821Y-77958687D01*
X131611804Y-77971000D01*
X131528196Y-77971000D01*
X131403179Y-77958687D01*
X131403176Y-77958686D01*
X131403175Y-77958686D01*
X131242761Y-77910025D01*
X131242759Y-77910024D01*
X131242756Y-77910023D01*
X131094922Y-77831005D01*
X130965341Y-77724659D01*
X130858995Y-77595078D01*
X130779977Y-77447244D01*
X130778437Y-77442166D01*
X130731314Y-77286825D01*
X130731314Y-77286824D01*
X130731313Y-77286821D01*
X130714883Y-77120000D01*
X130731313Y-76953179D01*
X130738529Y-76929390D01*
X130779975Y-76792761D01*
X130779976Y-76792759D01*
X130779977Y-76792756D01*
X130858995Y-76644922D01*
X130965341Y-76515341D01*
X131094922Y-76408995D01*
X131242756Y-76329977D01*
X131242759Y-76329976D01*
X131242761Y-76329975D01*
X131403175Y-76281314D01*
X131403176Y-76281314D01*
X131403179Y-76281313D01*
X131528196Y-76269000D01*
X131611804Y-76269000D01*
X131736821Y-76281313D01*
X131736821Y-76281313D01*
G37*
G36*
X116496821Y-76281313D02*
X116496824Y-76281314D01*
X116496825Y-76281314D01*
X116657239Y-76329975D01*
X116657241Y-76329976D01*
X116657244Y-76329977D01*
X116805078Y-76408995D01*
X116934659Y-76515341D01*
X117041005Y-76644922D01*
X117120023Y-76792756D01*
X117120024Y-76792759D01*
X117120025Y-76792761D01*
X117161471Y-76929390D01*
X117168687Y-76953179D01*
X117185117Y-77120000D01*
X117168687Y-77286821D01*
X117168686Y-77286824D01*
X117168686Y-77286825D01*
X117121564Y-77442166D01*
X117120023Y-77447244D01*
X117041005Y-77595078D01*
X116934659Y-77724659D01*
X116805078Y-77831005D01*
X116657244Y-77910023D01*
X116657241Y-77910024D01*
X116657239Y-77910025D01*
X116496825Y-77958686D01*
X116496824Y-77958686D01*
X116496821Y-77958687D01*
X116371804Y-77971000D01*
X116288196Y-77971000D01*
X116163179Y-77958687D01*
X116163176Y-77958686D01*
X116163175Y-77958686D01*
X116002761Y-77910025D01*
X116002759Y-77910024D01*
X116002756Y-77910023D01*
X115854922Y-77831005D01*
X115725341Y-77724659D01*
X115618995Y-77595078D01*
X115539977Y-77447244D01*
X115538437Y-77442166D01*
X115491314Y-77286825D01*
X115491314Y-77286824D01*
X115491313Y-77286821D01*
X115474883Y-77120000D01*
X115491313Y-76953179D01*
X115498529Y-76929390D01*
X115539975Y-76792761D01*
X115539976Y-76792759D01*
X115539977Y-76792756D01*
X115618995Y-76644922D01*
X115725341Y-76515341D01*
X115854922Y-76408995D01*
X116002756Y-76329977D01*
X116002759Y-76329976D01*
X116002761Y-76329975D01*
X116163175Y-76281314D01*
X116163176Y-76281314D01*
X116163179Y-76281313D01*
X116288196Y-76269000D01*
X116371804Y-76269000D01*
X116496821Y-76281313D01*
X116496821Y-76281313D01*
G37*
G36*
X131736821Y-73741313D02*
X131736824Y-73741314D01*
X131736825Y-73741314D01*
X131897239Y-73789975D01*
X131897241Y-73789976D01*
X131897244Y-73789977D01*
X132045078Y-73868995D01*
X132174659Y-73975341D01*
X132281005Y-74104922D01*
X132360023Y-74252756D01*
X132408687Y-74413179D01*
X132425117Y-74580000D01*
X132408687Y-74746821D01*
X132408686Y-74746824D01*
X132408686Y-74746825D01*
X132405793Y-74756363D01*
X132360023Y-74907244D01*
X132281005Y-75055078D01*
X132174659Y-75184659D01*
X132045078Y-75291005D01*
X131897244Y-75370023D01*
X131897241Y-75370024D01*
X131897239Y-75370025D01*
X131736825Y-75418686D01*
X131736824Y-75418686D01*
X131736821Y-75418687D01*
X131611804Y-75431000D01*
X131528196Y-75431000D01*
X131403179Y-75418687D01*
X131403176Y-75418686D01*
X131403175Y-75418686D01*
X131242761Y-75370025D01*
X131242759Y-75370024D01*
X131242756Y-75370023D01*
X131094922Y-75291005D01*
X130965341Y-75184659D01*
X130858995Y-75055078D01*
X130779977Y-74907244D01*
X130734208Y-74756363D01*
X130731314Y-74746825D01*
X130731314Y-74746824D01*
X130731313Y-74746821D01*
X130714883Y-74580000D01*
X130731313Y-74413179D01*
X130779977Y-74252756D01*
X130858995Y-74104922D01*
X130965341Y-73975341D01*
X131094922Y-73868995D01*
X131242756Y-73789977D01*
X131242759Y-73789976D01*
X131242761Y-73789975D01*
X131403175Y-73741314D01*
X131403176Y-73741314D01*
X131403179Y-73741313D01*
X131528196Y-73729000D01*
X131611804Y-73729000D01*
X131736821Y-73741313D01*
X131736821Y-73741313D01*
G37*
G36*
X116496821Y-73741313D02*
X116496824Y-73741314D01*
X116496825Y-73741314D01*
X116657239Y-73789975D01*
X116657241Y-73789976D01*
X116657244Y-73789977D01*
X116805078Y-73868995D01*
X116934659Y-73975341D01*
X117041005Y-74104922D01*
X117120023Y-74252756D01*
X117168687Y-74413179D01*
X117185117Y-74580000D01*
X117168687Y-74746821D01*
X117168686Y-74746824D01*
X117168686Y-74746825D01*
X117165793Y-74756363D01*
X117120023Y-74907244D01*
X117041005Y-75055078D01*
X116934659Y-75184659D01*
X116805078Y-75291005D01*
X116657244Y-75370023D01*
X116657241Y-75370024D01*
X116657239Y-75370025D01*
X116496825Y-75418686D01*
X116496824Y-75418686D01*
X116496821Y-75418687D01*
X116371804Y-75431000D01*
X116288196Y-75431000D01*
X116163179Y-75418687D01*
X116163176Y-75418686D01*
X116163175Y-75418686D01*
X116002761Y-75370025D01*
X116002759Y-75370024D01*
X116002756Y-75370023D01*
X115854922Y-75291005D01*
X115725341Y-75184659D01*
X115618995Y-75055078D01*
X115539977Y-74907244D01*
X115494208Y-74756363D01*
X115491314Y-74746825D01*
X115491314Y-74746824D01*
X115491313Y-74746821D01*
X115474883Y-74580000D01*
X115491313Y-74413179D01*
X115539977Y-74252756D01*
X115618995Y-74104922D01*
X115725341Y-73975341D01*
X115854922Y-73868995D01*
X116002756Y-73789977D01*
X116002759Y-73789976D01*
X116002761Y-73789975D01*
X116163175Y-73741314D01*
X116163176Y-73741314D01*
X116163179Y-73741313D01*
X116288196Y-73729000D01*
X116371804Y-73729000D01*
X116496821Y-73741313D01*
X116496821Y-73741313D01*
G37*
G36*
X142566565Y-72929389D02*
X142757834Y-73008615D01*
X142929976Y-73123637D01*
X143076363Y-73270024D01*
X143191385Y-73442166D01*
X143270611Y-73633435D01*
X143311000Y-73836484D01*
X143311000Y-74043516D01*
X143270611Y-74246565D01*
X143191385Y-74437834D01*
X143076363Y-74609976D01*
X142929976Y-74756363D01*
X142757834Y-74871385D01*
X142566565Y-74950611D01*
X142363516Y-74991000D01*
X142156484Y-74991000D01*
X141953435Y-74950611D01*
X141762166Y-74871385D01*
X141590024Y-74756363D01*
X141443637Y-74609976D01*
X141328615Y-74437834D01*
X141249389Y-74246565D01*
X141209000Y-74043516D01*
X141209000Y-73836484D01*
X141249389Y-73633435D01*
X141328615Y-73442166D01*
X141443637Y-73270024D01*
X141590024Y-73123637D01*
X141762166Y-73008615D01*
X141953435Y-72929389D01*
X142156484Y-72889000D01*
X142363516Y-72889000D01*
X142566565Y-72929389D01*
X142566565Y-72929389D01*
G37*
G36*
X131736821Y-71201313D02*
X131736824Y-71201314D01*
X131736825Y-71201314D01*
X131897239Y-71249975D01*
X131897241Y-71249976D01*
X131897244Y-71249977D01*
X132045078Y-71328995D01*
X132174659Y-71435341D01*
X132281005Y-71564922D01*
X132360023Y-71712756D01*
X132408687Y-71873179D01*
X132425117Y-72040000D01*
X132408687Y-72206821D01*
X132360023Y-72367244D01*
X132281005Y-72515078D01*
X132174659Y-72644659D01*
X132045078Y-72751005D01*
X131897244Y-72830023D01*
X131897241Y-72830024D01*
X131897239Y-72830025D01*
X131736825Y-72878686D01*
X131736824Y-72878686D01*
X131736821Y-72878687D01*
X131611804Y-72891000D01*
X131528196Y-72891000D01*
X131403179Y-72878687D01*
X131403176Y-72878686D01*
X131403175Y-72878686D01*
X131242761Y-72830025D01*
X131242759Y-72830024D01*
X131242756Y-72830023D01*
X131094922Y-72751005D01*
X130965341Y-72644659D01*
X130858995Y-72515078D01*
X130779977Y-72367244D01*
X130731313Y-72206821D01*
X130714883Y-72040000D01*
X130731313Y-71873179D01*
X130779977Y-71712756D01*
X130858995Y-71564922D01*
X130965341Y-71435341D01*
X131094922Y-71328995D01*
X131242756Y-71249977D01*
X131242759Y-71249976D01*
X131242761Y-71249975D01*
X131403175Y-71201314D01*
X131403176Y-71201314D01*
X131403179Y-71201313D01*
X131528196Y-71189000D01*
X131611804Y-71189000D01*
X131736821Y-71201313D01*
X131736821Y-71201313D01*
G37*
G36*
X116496821Y-71201313D02*
X116496824Y-71201314D01*
X116496825Y-71201314D01*
X116657239Y-71249975D01*
X116657241Y-71249976D01*
X116657244Y-71249977D01*
X116805078Y-71328995D01*
X116934659Y-71435341D01*
X117041005Y-71564922D01*
X117120023Y-71712756D01*
X117168687Y-71873179D01*
X117185117Y-72040000D01*
X117168687Y-72206821D01*
X117120023Y-72367244D01*
X117041005Y-72515078D01*
X116934659Y-72644659D01*
X116805078Y-72751005D01*
X116657244Y-72830023D01*
X116657241Y-72830024D01*
X116657239Y-72830025D01*
X116496825Y-72878686D01*
X116496824Y-72878686D01*
X116496821Y-72878687D01*
X116371804Y-72891000D01*
X116288196Y-72891000D01*
X116163179Y-72878687D01*
X116163176Y-72878686D01*
X116163175Y-72878686D01*
X116002761Y-72830025D01*
X116002759Y-72830024D01*
X116002756Y-72830023D01*
X115854922Y-72751005D01*
X115725341Y-72644659D01*
X115618995Y-72515078D01*
X115539977Y-72367244D01*
X115491313Y-72206821D01*
X115474883Y-72040000D01*
X115491313Y-71873179D01*
X115539977Y-71712756D01*
X115618995Y-71564922D01*
X115725341Y-71435341D01*
X115854922Y-71328995D01*
X116002756Y-71249977D01*
X116002759Y-71249976D01*
X116002761Y-71249975D01*
X116163175Y-71201314D01*
X116163176Y-71201314D01*
X116163179Y-71201313D01*
X116288196Y-71189000D01*
X116371804Y-71189000D01*
X116496821Y-71201313D01*
X116496821Y-71201313D01*
G37*
M02*
