G04 #@! TF.GenerationSoftware,KiCad,Pcbnew,(5.0.1-3-g963ef8bb5)*
G04 #@! TF.CreationDate,2019-12-09T16:28:53+01:00*
G04 #@! TF.ProjectId,Ps1 to Neogeo Adpator,50733120746F204E656F67656F204164,rev?*
G04 #@! TF.SameCoordinates,Original*
G04 #@! TF.FileFunction,Copper,L2,Bot,Signal*
G04 #@! TF.FilePolarity,Positive*
%FSLAX46Y46*%
G04 Gerber Fmt 4.6, Leading zero omitted, Abs format (unit mm)*
G04 Created by KiCad (PCBNEW (5.0.1-3-g963ef8bb5)) date Lundi 09 décembre 2019 à 16:28:53*
%MOMM*%
%LPD*%
G01*
G04 APERTURE LIST*
G04 #@! TA.AperFunction,ComponentPad*
%ADD10R,1.600000X1.600000*%
G04 #@! TD*
G04 #@! TA.AperFunction,ComponentPad*
%ADD11O,1.600000X1.600000*%
G04 #@! TD*
G04 #@! TA.AperFunction,ComponentPad*
%ADD12C,1.600000*%
G04 #@! TD*
G04 #@! TA.AperFunction,ComponentPad*
%ADD13C,4.000000*%
G04 #@! TD*
G04 #@! TA.AperFunction,ComponentPad*
%ADD14C,2.000000*%
G04 #@! TD*
G04 #@! TA.AperFunction,ComponentPad*
%ADD15C,3.000000*%
G04 #@! TD*
G04 #@! TA.AperFunction,ViaPad*
%ADD16C,0.800000*%
G04 #@! TD*
G04 #@! TA.AperFunction,Conductor*
%ADD17C,0.250000*%
G04 #@! TD*
G04 #@! TA.AperFunction,Conductor*
%ADD18C,0.254000*%
G04 #@! TD*
G04 APERTURE END LIST*
D10*
G04 #@! TO.P,A1,1*
G04 #@! TO.N,Net-(A1-Pad1)*
X131570000Y-107600000D03*
D11*
G04 #@! TO.P,A1,17*
G04 #@! TO.N,+3V3*
X116330000Y-74580000D03*
G04 #@! TO.P,A1,2*
G04 #@! TO.N,Net-(A1-Pad2)*
X131570000Y-105060000D03*
G04 #@! TO.P,A1,18*
G04 #@! TO.N,Net-(A1-Pad18)*
X116330000Y-77120000D03*
G04 #@! TO.P,A1,3*
G04 #@! TO.N,Net-(A1-Pad3)*
X131570000Y-102520000D03*
G04 #@! TO.P,A1,19*
G04 #@! TO.N,/PAD_D*
X116330000Y-79660000D03*
G04 #@! TO.P,A1,4*
G04 #@! TO.N,GND*
X131570000Y-99980000D03*
G04 #@! TO.P,A1,20*
G04 #@! TO.N,/PAD_C*
X116330000Y-82200000D03*
G04 #@! TO.P,A1,5*
G04 #@! TO.N,/START*
X131570000Y-97440000D03*
G04 #@! TO.P,A1,21*
G04 #@! TO.N,/PAD_B*
X116330000Y-84740000D03*
G04 #@! TO.P,A1,6*
G04 #@! TO.N,/SELECT*
X131570000Y-94900000D03*
G04 #@! TO.P,A1,22*
G04 #@! TO.N,/PAD_A*
X116330000Y-87280000D03*
G04 #@! TO.P,A1,7*
G04 #@! TO.N,/CLK*
X131570000Y-92360000D03*
G04 #@! TO.P,A1,23*
G04 #@! TO.N,/RIGHT*
X116330000Y-89820000D03*
G04 #@! TO.P,A1,8*
G04 #@! TO.N,/Att*
X131570000Y-89820000D03*
G04 #@! TO.P,A1,24*
G04 #@! TO.N,/LEFT*
X116330000Y-92360000D03*
G04 #@! TO.P,A1,9*
G04 #@! TO.N,/DOWN*
X131570000Y-87280000D03*
G04 #@! TO.P,A1,25*
G04 #@! TO.N,Net-(A1-Pad25)*
X116330000Y-94900000D03*
G04 #@! TO.P,A1,10*
G04 #@! TO.N,/UP*
X131570000Y-84740000D03*
G04 #@! TO.P,A1,26*
G04 #@! TO.N,Net-(A1-Pad26)*
X116330000Y-97440000D03*
G04 #@! TO.P,A1,11*
G04 #@! TO.N,Net-(A1-Pad11)*
X131570000Y-82200000D03*
G04 #@! TO.P,A1,27*
G04 #@! TO.N,+5V*
X116330000Y-99980000D03*
G04 #@! TO.P,A1,12*
G04 #@! TO.N,Net-(A1-Pad12)*
X131570000Y-79660000D03*
G04 #@! TO.P,A1,28*
G04 #@! TO.N,Net-(A1-Pad28)*
X116330000Y-102520000D03*
G04 #@! TO.P,A1,13*
G04 #@! TO.N,/Cmd*
X131570000Y-77120000D03*
G04 #@! TO.P,A1,29*
G04 #@! TO.N,GND*
X116330000Y-105060000D03*
G04 #@! TO.P,A1,14*
G04 #@! TO.N,Net-(A1-Pad14)*
X131570000Y-74580000D03*
G04 #@! TO.P,A1,30*
G04 #@! TO.N,Net-(A1-Pad30)*
X116330000Y-107600000D03*
G04 #@! TO.P,A1,15*
G04 #@! TO.N,/Data*
X131570000Y-72040000D03*
G04 #@! TO.P,A1,16*
G04 #@! TO.N,Net-(A1-Pad16)*
X116330000Y-72040000D03*
G04 #@! TD*
D10*
G04 #@! TO.P,J1,1*
G04 #@! TO.N,GND*
X140100000Y-115510000D03*
D12*
G04 #@! TO.P,J1,2*
G04 #@! TO.N,Net-(J1-Pad2)*
X137330000Y-115510000D03*
G04 #@! TO.P,J1,3*
G04 #@! TO.N,/SELECT*
X134560000Y-115510000D03*
G04 #@! TO.P,J1,4*
G04 #@! TO.N,/PAD_D*
X131790000Y-115510000D03*
G04 #@! TO.P,J1,5*
G04 #@! TO.N,/PAD_B*
X129020000Y-115510000D03*
G04 #@! TO.P,J1,6*
G04 #@! TO.N,/RIGHT*
X126250000Y-115510000D03*
G04 #@! TO.P,J1,7*
G04 #@! TO.N,/DOWN*
X123480000Y-115510000D03*
G04 #@! TO.P,J1,8*
G04 #@! TO.N,+5V*
X120710000Y-115510000D03*
G04 #@! TO.P,J1,9*
G04 #@! TO.N,Net-(J1-Pad9)*
X138715000Y-118350000D03*
G04 #@! TO.P,J1,10*
G04 #@! TO.N,Net-(J1-Pad10)*
X135945000Y-118350000D03*
G04 #@! TO.P,J1,11*
G04 #@! TO.N,/START*
X133175000Y-118350000D03*
G04 #@! TO.P,J1,12*
G04 #@! TO.N,/PAD_C*
X130405000Y-118350000D03*
G04 #@! TO.P,J1,13*
G04 #@! TO.N,/PAD_A*
X127635000Y-118350000D03*
G04 #@! TO.P,J1,14*
G04 #@! TO.N,/LEFT*
X124865000Y-118350000D03*
G04 #@! TO.P,J1,15*
G04 #@! TO.N,/UP*
X122095000Y-118350000D03*
D13*
G04 #@! TO.P,J1,0*
G04 #@! TO.N,GND*
X113755000Y-116930000D03*
X147055000Y-116930000D03*
G04 #@! TD*
D14*
G04 #@! TO.P,J2,4*
G04 #@! TO.N,GND*
X142260000Y-85940000D03*
G04 #@! TO.P,J2,3*
G04 #@! TO.N,Net-(J2-Pad3)*
X142260000Y-81940000D03*
G04 #@! TO.P,J2,2*
G04 #@! TO.N,/Cmd*
X142260000Y-77940000D03*
G04 #@! TO.P,J2,1*
G04 #@! TO.N,/Data*
X142260000Y-73940000D03*
G04 #@! TO.P,J2,9*
G04 #@! TO.N,Net-(J2-Pad9)*
X142260000Y-105940000D03*
G04 #@! TO.P,J2,8*
G04 #@! TO.N,Net-(J2-Pad8)*
X142260000Y-101940000D03*
G04 #@! TO.P,J2,7*
G04 #@! TO.N,/CLK*
X142260000Y-97940000D03*
G04 #@! TO.P,J2,6*
G04 #@! TO.N,/Att*
X142260000Y-93940000D03*
G04 #@! TO.P,J2,5*
G04 #@! TO.N,+3V3*
X142260000Y-89940000D03*
D15*
G04 #@! TO.P,J2,4*
G04 #@! TO.N,GND*
X136760000Y-89940000D03*
G04 #@! TD*
D16*
G04 #@! TO.N,/UP*
X122095000Y-103305000D03*
G04 #@! TO.N,/DOWN*
X123480000Y-102050000D03*
G04 #@! TD*
D17*
G04 #@! TO.N,/UP*
X122095000Y-94215000D02*
X122095000Y-103305000D01*
X131570000Y-84740000D02*
X122095000Y-94215000D01*
G04 #@! TO.N,/DOWN*
X123370000Y-101940000D02*
X123480000Y-102050000D01*
X123370000Y-95480000D02*
X123370000Y-101940000D01*
X131570000Y-87280000D02*
X123370000Y-95480000D01*
G04 #@! TO.N,/PAD_D*
X130990001Y-114710001D02*
X131790000Y-115510000D01*
X118330000Y-102050000D02*
X130990001Y-114710001D01*
X118330000Y-81660000D02*
X118330000Y-102050000D01*
X116330000Y-79660000D02*
X118330000Y-81660000D01*
G04 #@! TO.N,/Data*
X141260001Y-72940001D02*
X142260000Y-73940000D01*
X139560001Y-71240001D02*
X141260001Y-72940001D01*
X132369999Y-71240001D02*
X139560001Y-71240001D01*
X131570000Y-72040000D02*
X132369999Y-71240001D01*
G04 #@! TO.N,/Cmd*
X141440000Y-77120000D02*
X142260000Y-77940000D01*
X131570000Y-77120000D02*
X141440000Y-77120000D01*
G04 #@! TO.N,/CLK*
X137150000Y-97940000D02*
X142260000Y-97940000D01*
X131570000Y-92360000D02*
X137150000Y-97940000D01*
G04 #@! TO.N,/Att*
X135690000Y-93940000D02*
X131570000Y-89820000D01*
X142260000Y-93940000D02*
X135690000Y-93940000D01*
G04 #@! TD*
D18*
G04 #@! TO.N,GND*
G36*
X149385001Y-115694769D02*
X149269258Y-115478228D01*
X148902499Y-115262106D01*
X147234605Y-116930000D01*
X148902499Y-118597894D01*
X149269258Y-118381772D01*
X149385001Y-118160617D01*
X149385001Y-125325000D01*
X111435000Y-125325000D01*
X111435000Y-118777499D01*
X112087106Y-118777499D01*
X112303228Y-119144258D01*
X112763105Y-119384938D01*
X113261098Y-119531275D01*
X113778071Y-119577648D01*
X114294159Y-119522273D01*
X114789526Y-119367279D01*
X115206772Y-119144258D01*
X115422894Y-118777499D01*
X113755000Y-117109605D01*
X112087106Y-118777499D01*
X111435000Y-118777499D01*
X111435000Y-118183941D01*
X111540742Y-118381772D01*
X111907501Y-118597894D01*
X113575395Y-116930000D01*
X113934605Y-116930000D01*
X115602499Y-118597894D01*
X115969258Y-118381772D01*
X116059854Y-118208665D01*
X120660000Y-118208665D01*
X120660000Y-118491335D01*
X120715147Y-118768574D01*
X120823320Y-119029727D01*
X120980363Y-119264759D01*
X121180241Y-119464637D01*
X121415273Y-119621680D01*
X121676426Y-119729853D01*
X121953665Y-119785000D01*
X122236335Y-119785000D01*
X122513574Y-119729853D01*
X122774727Y-119621680D01*
X123009759Y-119464637D01*
X123209637Y-119264759D01*
X123366680Y-119029727D01*
X123474853Y-118768574D01*
X123480000Y-118742699D01*
X123485147Y-118768574D01*
X123593320Y-119029727D01*
X123750363Y-119264759D01*
X123950241Y-119464637D01*
X124185273Y-119621680D01*
X124446426Y-119729853D01*
X124723665Y-119785000D01*
X125006335Y-119785000D01*
X125283574Y-119729853D01*
X125544727Y-119621680D01*
X125779759Y-119464637D01*
X125979637Y-119264759D01*
X126136680Y-119029727D01*
X126244853Y-118768574D01*
X126250000Y-118742699D01*
X126255147Y-118768574D01*
X126363320Y-119029727D01*
X126520363Y-119264759D01*
X126720241Y-119464637D01*
X126955273Y-119621680D01*
X127216426Y-119729853D01*
X127493665Y-119785000D01*
X127776335Y-119785000D01*
X128053574Y-119729853D01*
X128314727Y-119621680D01*
X128549759Y-119464637D01*
X128749637Y-119264759D01*
X128906680Y-119029727D01*
X129014853Y-118768574D01*
X129020000Y-118742699D01*
X129025147Y-118768574D01*
X129133320Y-119029727D01*
X129290363Y-119264759D01*
X129490241Y-119464637D01*
X129725273Y-119621680D01*
X129986426Y-119729853D01*
X130263665Y-119785000D01*
X130546335Y-119785000D01*
X130823574Y-119729853D01*
X131084727Y-119621680D01*
X131319759Y-119464637D01*
X131519637Y-119264759D01*
X131676680Y-119029727D01*
X131784853Y-118768574D01*
X131790000Y-118742699D01*
X131795147Y-118768574D01*
X131903320Y-119029727D01*
X132060363Y-119264759D01*
X132260241Y-119464637D01*
X132495273Y-119621680D01*
X132756426Y-119729853D01*
X133033665Y-119785000D01*
X133316335Y-119785000D01*
X133593574Y-119729853D01*
X133854727Y-119621680D01*
X134089759Y-119464637D01*
X134289637Y-119264759D01*
X134446680Y-119029727D01*
X134554853Y-118768574D01*
X134560000Y-118742699D01*
X134565147Y-118768574D01*
X134673320Y-119029727D01*
X134830363Y-119264759D01*
X135030241Y-119464637D01*
X135265273Y-119621680D01*
X135526426Y-119729853D01*
X135803665Y-119785000D01*
X136086335Y-119785000D01*
X136363574Y-119729853D01*
X136624727Y-119621680D01*
X136859759Y-119464637D01*
X137059637Y-119264759D01*
X137216680Y-119029727D01*
X137324853Y-118768574D01*
X137330000Y-118742699D01*
X137335147Y-118768574D01*
X137443320Y-119029727D01*
X137600363Y-119264759D01*
X137800241Y-119464637D01*
X138035273Y-119621680D01*
X138296426Y-119729853D01*
X138573665Y-119785000D01*
X138856335Y-119785000D01*
X139133574Y-119729853D01*
X139394727Y-119621680D01*
X139629759Y-119464637D01*
X139829637Y-119264759D01*
X139986680Y-119029727D01*
X140091156Y-118777499D01*
X145387106Y-118777499D01*
X145603228Y-119144258D01*
X146063105Y-119384938D01*
X146561098Y-119531275D01*
X147078071Y-119577648D01*
X147594159Y-119522273D01*
X148089526Y-119367279D01*
X148506772Y-119144258D01*
X148722894Y-118777499D01*
X147055000Y-117109605D01*
X145387106Y-118777499D01*
X140091156Y-118777499D01*
X140094853Y-118768574D01*
X140150000Y-118491335D01*
X140150000Y-118208665D01*
X140094853Y-117931426D01*
X139986680Y-117670273D01*
X139829637Y-117435241D01*
X139629759Y-117235363D01*
X139394727Y-117078320D01*
X139133574Y-116970147D01*
X139047729Y-116953071D01*
X144407352Y-116953071D01*
X144462727Y-117469159D01*
X144617721Y-117964526D01*
X144840742Y-118381772D01*
X145207501Y-118597894D01*
X146875395Y-116930000D01*
X145207501Y-115262106D01*
X144840742Y-115478228D01*
X144600062Y-115938105D01*
X144453725Y-116436098D01*
X144407352Y-116953071D01*
X139047729Y-116953071D01*
X138856335Y-116915000D01*
X138573665Y-116915000D01*
X138296426Y-116970147D01*
X138035273Y-117078320D01*
X137800241Y-117235363D01*
X137600363Y-117435241D01*
X137443320Y-117670273D01*
X137335147Y-117931426D01*
X137330000Y-117957301D01*
X137324853Y-117931426D01*
X137216680Y-117670273D01*
X137059637Y-117435241D01*
X136859759Y-117235363D01*
X136624727Y-117078320D01*
X136363574Y-116970147D01*
X136086335Y-116915000D01*
X135803665Y-116915000D01*
X135526426Y-116970147D01*
X135265273Y-117078320D01*
X135030241Y-117235363D01*
X134830363Y-117435241D01*
X134673320Y-117670273D01*
X134565147Y-117931426D01*
X134560000Y-117957301D01*
X134554853Y-117931426D01*
X134446680Y-117670273D01*
X134289637Y-117435241D01*
X134089759Y-117235363D01*
X133854727Y-117078320D01*
X133593574Y-116970147D01*
X133316335Y-116915000D01*
X133033665Y-116915000D01*
X132756426Y-116970147D01*
X132495273Y-117078320D01*
X132260241Y-117235363D01*
X132060363Y-117435241D01*
X131903320Y-117670273D01*
X131795147Y-117931426D01*
X131790000Y-117957301D01*
X131784853Y-117931426D01*
X131676680Y-117670273D01*
X131519637Y-117435241D01*
X131319759Y-117235363D01*
X131084727Y-117078320D01*
X130823574Y-116970147D01*
X130546335Y-116915000D01*
X130263665Y-116915000D01*
X129986426Y-116970147D01*
X129725273Y-117078320D01*
X129490241Y-117235363D01*
X129290363Y-117435241D01*
X129133320Y-117670273D01*
X129025147Y-117931426D01*
X129020000Y-117957301D01*
X129014853Y-117931426D01*
X128906680Y-117670273D01*
X128749637Y-117435241D01*
X128549759Y-117235363D01*
X128314727Y-117078320D01*
X128053574Y-116970147D01*
X127776335Y-116915000D01*
X127493665Y-116915000D01*
X127216426Y-116970147D01*
X126955273Y-117078320D01*
X126720241Y-117235363D01*
X126520363Y-117435241D01*
X126363320Y-117670273D01*
X126255147Y-117931426D01*
X126250000Y-117957301D01*
X126244853Y-117931426D01*
X126136680Y-117670273D01*
X125979637Y-117435241D01*
X125779759Y-117235363D01*
X125544727Y-117078320D01*
X125283574Y-116970147D01*
X125006335Y-116915000D01*
X124723665Y-116915000D01*
X124446426Y-116970147D01*
X124185273Y-117078320D01*
X123950241Y-117235363D01*
X123750363Y-117435241D01*
X123593320Y-117670273D01*
X123485147Y-117931426D01*
X123480000Y-117957301D01*
X123474853Y-117931426D01*
X123366680Y-117670273D01*
X123209637Y-117435241D01*
X123009759Y-117235363D01*
X122774727Y-117078320D01*
X122513574Y-116970147D01*
X122236335Y-116915000D01*
X121953665Y-116915000D01*
X121676426Y-116970147D01*
X121415273Y-117078320D01*
X121180241Y-117235363D01*
X120980363Y-117435241D01*
X120823320Y-117670273D01*
X120715147Y-117931426D01*
X120660000Y-118208665D01*
X116059854Y-118208665D01*
X116209938Y-117921895D01*
X116356275Y-117423902D01*
X116402648Y-116906929D01*
X116347273Y-116390841D01*
X116192279Y-115895474D01*
X115969258Y-115478228D01*
X115602499Y-115262106D01*
X113934605Y-116930000D01*
X113575395Y-116930000D01*
X111907501Y-115262106D01*
X111540742Y-115478228D01*
X111435000Y-115680274D01*
X111435000Y-115082501D01*
X112087106Y-115082501D01*
X113755000Y-116750395D01*
X115422894Y-115082501D01*
X115206772Y-114715742D01*
X114746895Y-114475062D01*
X114248902Y-114328725D01*
X113731929Y-114282352D01*
X113215841Y-114337727D01*
X112720474Y-114492721D01*
X112303228Y-114715742D01*
X112087106Y-115082501D01*
X111435000Y-115082501D01*
X111435000Y-107600000D01*
X114888057Y-107600000D01*
X114915764Y-107881309D01*
X114997818Y-108151808D01*
X115131068Y-108401101D01*
X115310392Y-108619608D01*
X115528899Y-108798932D01*
X115778192Y-108932182D01*
X116048691Y-109014236D01*
X116259508Y-109035000D01*
X116400492Y-109035000D01*
X116611309Y-109014236D01*
X116881808Y-108932182D01*
X117131101Y-108798932D01*
X117349608Y-108619608D01*
X117528932Y-108401101D01*
X117662182Y-108151808D01*
X117744236Y-107881309D01*
X117771943Y-107600000D01*
X117744236Y-107318691D01*
X117662182Y-107048192D01*
X117528932Y-106798899D01*
X117349608Y-106580392D01*
X117131101Y-106401068D01*
X116993318Y-106327421D01*
X117185131Y-106212385D01*
X117393519Y-106023414D01*
X117561037Y-105797420D01*
X117681246Y-105543087D01*
X117721904Y-105409039D01*
X117599915Y-105187000D01*
X116457000Y-105187000D01*
X116457000Y-105207000D01*
X116203000Y-105207000D01*
X116203000Y-105187000D01*
X115060085Y-105187000D01*
X114938096Y-105409039D01*
X114978754Y-105543087D01*
X115098963Y-105797420D01*
X115266481Y-106023414D01*
X115474869Y-106212385D01*
X115666682Y-106327421D01*
X115528899Y-106401068D01*
X115310392Y-106580392D01*
X115131068Y-106798899D01*
X114997818Y-107048192D01*
X114915764Y-107318691D01*
X114888057Y-107600000D01*
X111435000Y-107600000D01*
X111435000Y-72040000D01*
X114888057Y-72040000D01*
X114915764Y-72321309D01*
X114997818Y-72591808D01*
X115131068Y-72841101D01*
X115310392Y-73059608D01*
X115528899Y-73238932D01*
X115661858Y-73310000D01*
X115528899Y-73381068D01*
X115310392Y-73560392D01*
X115131068Y-73778899D01*
X114997818Y-74028192D01*
X114915764Y-74298691D01*
X114888057Y-74580000D01*
X114915764Y-74861309D01*
X114997818Y-75131808D01*
X115131068Y-75381101D01*
X115310392Y-75599608D01*
X115528899Y-75778932D01*
X115661858Y-75850000D01*
X115528899Y-75921068D01*
X115310392Y-76100392D01*
X115131068Y-76318899D01*
X114997818Y-76568192D01*
X114915764Y-76838691D01*
X114888057Y-77120000D01*
X114915764Y-77401309D01*
X114997818Y-77671808D01*
X115131068Y-77921101D01*
X115310392Y-78139608D01*
X115528899Y-78318932D01*
X115661858Y-78390000D01*
X115528899Y-78461068D01*
X115310392Y-78640392D01*
X115131068Y-78858899D01*
X114997818Y-79108192D01*
X114915764Y-79378691D01*
X114888057Y-79660000D01*
X114915764Y-79941309D01*
X114997818Y-80211808D01*
X115131068Y-80461101D01*
X115310392Y-80679608D01*
X115528899Y-80858932D01*
X115661858Y-80930000D01*
X115528899Y-81001068D01*
X115310392Y-81180392D01*
X115131068Y-81398899D01*
X114997818Y-81648192D01*
X114915764Y-81918691D01*
X114888057Y-82200000D01*
X114915764Y-82481309D01*
X114997818Y-82751808D01*
X115131068Y-83001101D01*
X115310392Y-83219608D01*
X115528899Y-83398932D01*
X115661858Y-83470000D01*
X115528899Y-83541068D01*
X115310392Y-83720392D01*
X115131068Y-83938899D01*
X114997818Y-84188192D01*
X114915764Y-84458691D01*
X114888057Y-84740000D01*
X114915764Y-85021309D01*
X114997818Y-85291808D01*
X115131068Y-85541101D01*
X115310392Y-85759608D01*
X115528899Y-85938932D01*
X115661858Y-86010000D01*
X115528899Y-86081068D01*
X115310392Y-86260392D01*
X115131068Y-86478899D01*
X114997818Y-86728192D01*
X114915764Y-86998691D01*
X114888057Y-87280000D01*
X114915764Y-87561309D01*
X114997818Y-87831808D01*
X115131068Y-88081101D01*
X115310392Y-88299608D01*
X115528899Y-88478932D01*
X115661858Y-88550000D01*
X115528899Y-88621068D01*
X115310392Y-88800392D01*
X115131068Y-89018899D01*
X114997818Y-89268192D01*
X114915764Y-89538691D01*
X114888057Y-89820000D01*
X114915764Y-90101309D01*
X114997818Y-90371808D01*
X115131068Y-90621101D01*
X115310392Y-90839608D01*
X115528899Y-91018932D01*
X115661858Y-91090000D01*
X115528899Y-91161068D01*
X115310392Y-91340392D01*
X115131068Y-91558899D01*
X114997818Y-91808192D01*
X114915764Y-92078691D01*
X114888057Y-92360000D01*
X114915764Y-92641309D01*
X114997818Y-92911808D01*
X115131068Y-93161101D01*
X115310392Y-93379608D01*
X115528899Y-93558932D01*
X115661858Y-93630000D01*
X115528899Y-93701068D01*
X115310392Y-93880392D01*
X115131068Y-94098899D01*
X114997818Y-94348192D01*
X114915764Y-94618691D01*
X114888057Y-94900000D01*
X114915764Y-95181309D01*
X114997818Y-95451808D01*
X115131068Y-95701101D01*
X115310392Y-95919608D01*
X115528899Y-96098932D01*
X115661858Y-96170000D01*
X115528899Y-96241068D01*
X115310392Y-96420392D01*
X115131068Y-96638899D01*
X114997818Y-96888192D01*
X114915764Y-97158691D01*
X114888057Y-97440000D01*
X114915764Y-97721309D01*
X114997818Y-97991808D01*
X115131068Y-98241101D01*
X115310392Y-98459608D01*
X115528899Y-98638932D01*
X115661858Y-98710000D01*
X115528899Y-98781068D01*
X115310392Y-98960392D01*
X115131068Y-99178899D01*
X114997818Y-99428192D01*
X114915764Y-99698691D01*
X114888057Y-99980000D01*
X114915764Y-100261309D01*
X114997818Y-100531808D01*
X115131068Y-100781101D01*
X115310392Y-100999608D01*
X115528899Y-101178932D01*
X115661858Y-101250000D01*
X115528899Y-101321068D01*
X115310392Y-101500392D01*
X115131068Y-101718899D01*
X114997818Y-101968192D01*
X114915764Y-102238691D01*
X114888057Y-102520000D01*
X114915764Y-102801309D01*
X114997818Y-103071808D01*
X115131068Y-103321101D01*
X115310392Y-103539608D01*
X115528899Y-103718932D01*
X115666682Y-103792579D01*
X115474869Y-103907615D01*
X115266481Y-104096586D01*
X115098963Y-104322580D01*
X114978754Y-104576913D01*
X114938096Y-104710961D01*
X115060085Y-104933000D01*
X116203000Y-104933000D01*
X116203000Y-104913000D01*
X116457000Y-104913000D01*
X116457000Y-104933000D01*
X117599915Y-104933000D01*
X117721904Y-104710961D01*
X117681246Y-104576913D01*
X117561037Y-104322580D01*
X117393519Y-104096586D01*
X117185131Y-103907615D01*
X116993318Y-103792579D01*
X117131101Y-103718932D01*
X117349608Y-103539608D01*
X117528932Y-103321101D01*
X117662182Y-103071808D01*
X117744236Y-102801309D01*
X117767722Y-102562855D01*
X117790000Y-102590001D01*
X117818998Y-102613799D01*
X129309713Y-114104515D01*
X129161335Y-114075000D01*
X128878665Y-114075000D01*
X128601426Y-114130147D01*
X128340273Y-114238320D01*
X128105241Y-114395363D01*
X127905363Y-114595241D01*
X127748320Y-114830273D01*
X127640147Y-115091426D01*
X127635000Y-115117301D01*
X127629853Y-115091426D01*
X127521680Y-114830273D01*
X127364637Y-114595241D01*
X127164759Y-114395363D01*
X126929727Y-114238320D01*
X126668574Y-114130147D01*
X126391335Y-114075000D01*
X126108665Y-114075000D01*
X125831426Y-114130147D01*
X125570273Y-114238320D01*
X125335241Y-114395363D01*
X125135363Y-114595241D01*
X124978320Y-114830273D01*
X124870147Y-115091426D01*
X124865000Y-115117301D01*
X124859853Y-115091426D01*
X124751680Y-114830273D01*
X124594637Y-114595241D01*
X124394759Y-114395363D01*
X124159727Y-114238320D01*
X123898574Y-114130147D01*
X123621335Y-114075000D01*
X123338665Y-114075000D01*
X123061426Y-114130147D01*
X122800273Y-114238320D01*
X122565241Y-114395363D01*
X122365363Y-114595241D01*
X122208320Y-114830273D01*
X122100147Y-115091426D01*
X122095000Y-115117301D01*
X122089853Y-115091426D01*
X121981680Y-114830273D01*
X121824637Y-114595241D01*
X121624759Y-114395363D01*
X121389727Y-114238320D01*
X121128574Y-114130147D01*
X120851335Y-114075000D01*
X120568665Y-114075000D01*
X120291426Y-114130147D01*
X120030273Y-114238320D01*
X119795241Y-114395363D01*
X119595363Y-114595241D01*
X119438320Y-114830273D01*
X119330147Y-115091426D01*
X119275000Y-115368665D01*
X119275000Y-115651335D01*
X119330147Y-115928574D01*
X119438320Y-116189727D01*
X119595363Y-116424759D01*
X119795241Y-116624637D01*
X120030273Y-116781680D01*
X120291426Y-116889853D01*
X120568665Y-116945000D01*
X120851335Y-116945000D01*
X121128574Y-116889853D01*
X121389727Y-116781680D01*
X121624759Y-116624637D01*
X121824637Y-116424759D01*
X121981680Y-116189727D01*
X122089853Y-115928574D01*
X122095000Y-115902699D01*
X122100147Y-115928574D01*
X122208320Y-116189727D01*
X122365363Y-116424759D01*
X122565241Y-116624637D01*
X122800273Y-116781680D01*
X123061426Y-116889853D01*
X123338665Y-116945000D01*
X123621335Y-116945000D01*
X123898574Y-116889853D01*
X124159727Y-116781680D01*
X124394759Y-116624637D01*
X124594637Y-116424759D01*
X124751680Y-116189727D01*
X124859853Y-115928574D01*
X124865000Y-115902699D01*
X124870147Y-115928574D01*
X124978320Y-116189727D01*
X125135363Y-116424759D01*
X125335241Y-116624637D01*
X125570273Y-116781680D01*
X125831426Y-116889853D01*
X126108665Y-116945000D01*
X126391335Y-116945000D01*
X126668574Y-116889853D01*
X126929727Y-116781680D01*
X127164759Y-116624637D01*
X127364637Y-116424759D01*
X127521680Y-116189727D01*
X127629853Y-115928574D01*
X127635000Y-115902699D01*
X127640147Y-115928574D01*
X127748320Y-116189727D01*
X127905363Y-116424759D01*
X128105241Y-116624637D01*
X128340273Y-116781680D01*
X128601426Y-116889853D01*
X128878665Y-116945000D01*
X129161335Y-116945000D01*
X129438574Y-116889853D01*
X129699727Y-116781680D01*
X129934759Y-116624637D01*
X130134637Y-116424759D01*
X130291680Y-116189727D01*
X130399853Y-115928574D01*
X130405000Y-115902699D01*
X130410147Y-115928574D01*
X130518320Y-116189727D01*
X130675363Y-116424759D01*
X130875241Y-116624637D01*
X131110273Y-116781680D01*
X131371426Y-116889853D01*
X131648665Y-116945000D01*
X131931335Y-116945000D01*
X132208574Y-116889853D01*
X132469727Y-116781680D01*
X132704759Y-116624637D01*
X132904637Y-116424759D01*
X133061680Y-116189727D01*
X133169853Y-115928574D01*
X133175000Y-115902699D01*
X133180147Y-115928574D01*
X133288320Y-116189727D01*
X133445363Y-116424759D01*
X133645241Y-116624637D01*
X133880273Y-116781680D01*
X134141426Y-116889853D01*
X134418665Y-116945000D01*
X134701335Y-116945000D01*
X134978574Y-116889853D01*
X135239727Y-116781680D01*
X135474759Y-116624637D01*
X135674637Y-116424759D01*
X135831680Y-116189727D01*
X135939853Y-115928574D01*
X135945000Y-115902699D01*
X135950147Y-115928574D01*
X136058320Y-116189727D01*
X136215363Y-116424759D01*
X136415241Y-116624637D01*
X136650273Y-116781680D01*
X136911426Y-116889853D01*
X137188665Y-116945000D01*
X137471335Y-116945000D01*
X137748574Y-116889853D01*
X138009727Y-116781680D01*
X138244759Y-116624637D01*
X138444637Y-116424759D01*
X138601680Y-116189727D01*
X138665000Y-116036859D01*
X138665000Y-116372542D01*
X138689403Y-116495223D01*
X138737270Y-116610785D01*
X138806763Y-116714789D01*
X138895211Y-116803237D01*
X138999215Y-116872730D01*
X139114777Y-116920597D01*
X139237458Y-116945000D01*
X139814250Y-116945000D01*
X139973000Y-116786250D01*
X139973000Y-115637000D01*
X140227000Y-115637000D01*
X140227000Y-116786250D01*
X140385750Y-116945000D01*
X140962542Y-116945000D01*
X141085223Y-116920597D01*
X141200785Y-116872730D01*
X141304789Y-116803237D01*
X141393237Y-116714789D01*
X141462730Y-116610785D01*
X141510597Y-116495223D01*
X141535000Y-116372542D01*
X141535000Y-115795750D01*
X141376250Y-115637000D01*
X140227000Y-115637000D01*
X139973000Y-115637000D01*
X139953000Y-115637000D01*
X139953000Y-115383000D01*
X139973000Y-115383000D01*
X139973000Y-114233750D01*
X140227000Y-114233750D01*
X140227000Y-115383000D01*
X141376250Y-115383000D01*
X141535000Y-115224250D01*
X141535000Y-115082501D01*
X145387106Y-115082501D01*
X147055000Y-116750395D01*
X148722894Y-115082501D01*
X148506772Y-114715742D01*
X148046895Y-114475062D01*
X147548902Y-114328725D01*
X147031929Y-114282352D01*
X146515841Y-114337727D01*
X146020474Y-114492721D01*
X145603228Y-114715742D01*
X145387106Y-115082501D01*
X141535000Y-115082501D01*
X141535000Y-114647458D01*
X141510597Y-114524777D01*
X141462730Y-114409215D01*
X141393237Y-114305211D01*
X141304789Y-114216763D01*
X141200785Y-114147270D01*
X141085223Y-114099403D01*
X140962542Y-114075000D01*
X140385750Y-114075000D01*
X140227000Y-114233750D01*
X139973000Y-114233750D01*
X139814250Y-114075000D01*
X139237458Y-114075000D01*
X139114777Y-114099403D01*
X138999215Y-114147270D01*
X138895211Y-114216763D01*
X138806763Y-114305211D01*
X138737270Y-114409215D01*
X138689403Y-114524777D01*
X138665000Y-114647458D01*
X138665000Y-114983141D01*
X138601680Y-114830273D01*
X138444637Y-114595241D01*
X138244759Y-114395363D01*
X138009727Y-114238320D01*
X137748574Y-114130147D01*
X137471335Y-114075000D01*
X137188665Y-114075000D01*
X136911426Y-114130147D01*
X136650273Y-114238320D01*
X136415241Y-114395363D01*
X136215363Y-114595241D01*
X136058320Y-114830273D01*
X135950147Y-115091426D01*
X135945000Y-115117301D01*
X135939853Y-115091426D01*
X135831680Y-114830273D01*
X135674637Y-114595241D01*
X135474759Y-114395363D01*
X135239727Y-114238320D01*
X134978574Y-114130147D01*
X134701335Y-114075000D01*
X134418665Y-114075000D01*
X134141426Y-114130147D01*
X133880273Y-114238320D01*
X133645241Y-114395363D01*
X133445363Y-114595241D01*
X133288320Y-114830273D01*
X133180147Y-115091426D01*
X133175000Y-115117301D01*
X133169853Y-115091426D01*
X133061680Y-114830273D01*
X132904637Y-114595241D01*
X132704759Y-114395363D01*
X132469727Y-114238320D01*
X132208574Y-114130147D01*
X131931335Y-114075000D01*
X131648665Y-114075000D01*
X131466114Y-114111312D01*
X121521152Y-104166351D01*
X121604744Y-104222205D01*
X121793102Y-104300226D01*
X121993061Y-104340000D01*
X122196939Y-104340000D01*
X122396898Y-104300226D01*
X122585256Y-104222205D01*
X122754774Y-104108937D01*
X122898937Y-103964774D01*
X123012205Y-103795256D01*
X123090226Y-103606898D01*
X123130000Y-103406939D01*
X123130000Y-103203061D01*
X123091467Y-103009340D01*
X123178102Y-103045226D01*
X123378061Y-103085000D01*
X123581939Y-103085000D01*
X123781898Y-103045226D01*
X123970256Y-102967205D01*
X124139774Y-102853937D01*
X124283937Y-102709774D01*
X124397205Y-102540256D01*
X124405595Y-102520000D01*
X130128057Y-102520000D01*
X130155764Y-102801309D01*
X130237818Y-103071808D01*
X130371068Y-103321101D01*
X130550392Y-103539608D01*
X130768899Y-103718932D01*
X130901858Y-103790000D01*
X130768899Y-103861068D01*
X130550392Y-104040392D01*
X130371068Y-104258899D01*
X130237818Y-104508192D01*
X130155764Y-104778691D01*
X130128057Y-105060000D01*
X130155764Y-105341309D01*
X130237818Y-105611808D01*
X130371068Y-105861101D01*
X130550392Y-106079608D01*
X130663482Y-106172419D01*
X130645518Y-106174188D01*
X130525820Y-106210498D01*
X130415506Y-106269463D01*
X130318815Y-106348815D01*
X130239463Y-106445506D01*
X130180498Y-106555820D01*
X130144188Y-106675518D01*
X130131928Y-106800000D01*
X130131928Y-108400000D01*
X130144188Y-108524482D01*
X130180498Y-108644180D01*
X130239463Y-108754494D01*
X130318815Y-108851185D01*
X130415506Y-108930537D01*
X130525820Y-108989502D01*
X130645518Y-109025812D01*
X130770000Y-109038072D01*
X132370000Y-109038072D01*
X132494482Y-109025812D01*
X132614180Y-108989502D01*
X132724494Y-108930537D01*
X132821185Y-108851185D01*
X132900537Y-108754494D01*
X132959502Y-108644180D01*
X132995812Y-108524482D01*
X133008072Y-108400000D01*
X133008072Y-106800000D01*
X132995812Y-106675518D01*
X132959502Y-106555820D01*
X132900537Y-106445506D01*
X132821185Y-106348815D01*
X132724494Y-106269463D01*
X132614180Y-106210498D01*
X132494482Y-106174188D01*
X132476518Y-106172419D01*
X132589608Y-106079608D01*
X132768932Y-105861101D01*
X132812833Y-105778967D01*
X140625000Y-105778967D01*
X140625000Y-106101033D01*
X140687832Y-106416912D01*
X140811082Y-106714463D01*
X140990013Y-106982252D01*
X141217748Y-107209987D01*
X141485537Y-107388918D01*
X141783088Y-107512168D01*
X142098967Y-107575000D01*
X142421033Y-107575000D01*
X142736912Y-107512168D01*
X143034463Y-107388918D01*
X143302252Y-107209987D01*
X143529987Y-106982252D01*
X143708918Y-106714463D01*
X143832168Y-106416912D01*
X143895000Y-106101033D01*
X143895000Y-105778967D01*
X143832168Y-105463088D01*
X143708918Y-105165537D01*
X143529987Y-104897748D01*
X143302252Y-104670013D01*
X143034463Y-104491082D01*
X142736912Y-104367832D01*
X142421033Y-104305000D01*
X142098967Y-104305000D01*
X141783088Y-104367832D01*
X141485537Y-104491082D01*
X141217748Y-104670013D01*
X140990013Y-104897748D01*
X140811082Y-105165537D01*
X140687832Y-105463088D01*
X140625000Y-105778967D01*
X132812833Y-105778967D01*
X132902182Y-105611808D01*
X132984236Y-105341309D01*
X133011943Y-105060000D01*
X132984236Y-104778691D01*
X132902182Y-104508192D01*
X132768932Y-104258899D01*
X132589608Y-104040392D01*
X132371101Y-103861068D01*
X132238142Y-103790000D01*
X132371101Y-103718932D01*
X132589608Y-103539608D01*
X132768932Y-103321101D01*
X132902182Y-103071808D01*
X132984236Y-102801309D01*
X133011943Y-102520000D01*
X132984236Y-102238691D01*
X132902182Y-101968192D01*
X132801040Y-101778967D01*
X140625000Y-101778967D01*
X140625000Y-102101033D01*
X140687832Y-102416912D01*
X140811082Y-102714463D01*
X140990013Y-102982252D01*
X141217748Y-103209987D01*
X141485537Y-103388918D01*
X141783088Y-103512168D01*
X142098967Y-103575000D01*
X142421033Y-103575000D01*
X142736912Y-103512168D01*
X143034463Y-103388918D01*
X143302252Y-103209987D01*
X143529987Y-102982252D01*
X143708918Y-102714463D01*
X143832168Y-102416912D01*
X143895000Y-102101033D01*
X143895000Y-101778967D01*
X143832168Y-101463088D01*
X143708918Y-101165537D01*
X143529987Y-100897748D01*
X143302252Y-100670013D01*
X143034463Y-100491082D01*
X142736912Y-100367832D01*
X142421033Y-100305000D01*
X142098967Y-100305000D01*
X141783088Y-100367832D01*
X141485537Y-100491082D01*
X141217748Y-100670013D01*
X140990013Y-100897748D01*
X140811082Y-101165537D01*
X140687832Y-101463088D01*
X140625000Y-101778967D01*
X132801040Y-101778967D01*
X132768932Y-101718899D01*
X132589608Y-101500392D01*
X132371101Y-101321068D01*
X132233318Y-101247421D01*
X132425131Y-101132385D01*
X132633519Y-100943414D01*
X132801037Y-100717420D01*
X132921246Y-100463087D01*
X132961904Y-100329039D01*
X132839915Y-100107000D01*
X131697000Y-100107000D01*
X131697000Y-100127000D01*
X131443000Y-100127000D01*
X131443000Y-100107000D01*
X130300085Y-100107000D01*
X130178096Y-100329039D01*
X130218754Y-100463087D01*
X130338963Y-100717420D01*
X130506481Y-100943414D01*
X130714869Y-101132385D01*
X130906682Y-101247421D01*
X130768899Y-101321068D01*
X130550392Y-101500392D01*
X130371068Y-101718899D01*
X130237818Y-101968192D01*
X130155764Y-102238691D01*
X130128057Y-102520000D01*
X124405595Y-102520000D01*
X124475226Y-102351898D01*
X124515000Y-102151939D01*
X124515000Y-101948061D01*
X124475226Y-101748102D01*
X124397205Y-101559744D01*
X124283937Y-101390226D01*
X124139774Y-101246063D01*
X124130000Y-101239532D01*
X124130000Y-95794801D01*
X130130598Y-89794204D01*
X130128057Y-89820000D01*
X130155764Y-90101309D01*
X130237818Y-90371808D01*
X130371068Y-90621101D01*
X130550392Y-90839608D01*
X130768899Y-91018932D01*
X130901858Y-91090000D01*
X130768899Y-91161068D01*
X130550392Y-91340392D01*
X130371068Y-91558899D01*
X130237818Y-91808192D01*
X130155764Y-92078691D01*
X130128057Y-92360000D01*
X130155764Y-92641309D01*
X130237818Y-92911808D01*
X130371068Y-93161101D01*
X130550392Y-93379608D01*
X130768899Y-93558932D01*
X130901858Y-93630000D01*
X130768899Y-93701068D01*
X130550392Y-93880392D01*
X130371068Y-94098899D01*
X130237818Y-94348192D01*
X130155764Y-94618691D01*
X130128057Y-94900000D01*
X130155764Y-95181309D01*
X130237818Y-95451808D01*
X130371068Y-95701101D01*
X130550392Y-95919608D01*
X130768899Y-96098932D01*
X130901858Y-96170000D01*
X130768899Y-96241068D01*
X130550392Y-96420392D01*
X130371068Y-96638899D01*
X130237818Y-96888192D01*
X130155764Y-97158691D01*
X130128057Y-97440000D01*
X130155764Y-97721309D01*
X130237818Y-97991808D01*
X130371068Y-98241101D01*
X130550392Y-98459608D01*
X130768899Y-98638932D01*
X130906682Y-98712579D01*
X130714869Y-98827615D01*
X130506481Y-99016586D01*
X130338963Y-99242580D01*
X130218754Y-99496913D01*
X130178096Y-99630961D01*
X130300085Y-99853000D01*
X131443000Y-99853000D01*
X131443000Y-99833000D01*
X131697000Y-99833000D01*
X131697000Y-99853000D01*
X132839915Y-99853000D01*
X132961904Y-99630961D01*
X132921246Y-99496913D01*
X132801037Y-99242580D01*
X132633519Y-99016586D01*
X132425131Y-98827615D01*
X132233318Y-98712579D01*
X132371101Y-98638932D01*
X132589608Y-98459608D01*
X132768932Y-98241101D01*
X132902182Y-97991808D01*
X132984236Y-97721309D01*
X133011943Y-97440000D01*
X132984236Y-97158691D01*
X132902182Y-96888192D01*
X132768932Y-96638899D01*
X132589608Y-96420392D01*
X132371101Y-96241068D01*
X132238142Y-96170000D01*
X132371101Y-96098932D01*
X132589608Y-95919608D01*
X132768932Y-95701101D01*
X132902182Y-95451808D01*
X132984236Y-95181309D01*
X133011943Y-94900000D01*
X133009402Y-94874204D01*
X136586201Y-98451003D01*
X136609999Y-98480001D01*
X136725724Y-98574974D01*
X136857753Y-98645546D01*
X137001014Y-98689003D01*
X137112667Y-98700000D01*
X137112675Y-98700000D01*
X137150000Y-98703676D01*
X137187325Y-98700000D01*
X140805091Y-98700000D01*
X140811082Y-98714463D01*
X140990013Y-98982252D01*
X141217748Y-99209987D01*
X141485537Y-99388918D01*
X141783088Y-99512168D01*
X142098967Y-99575000D01*
X142421033Y-99575000D01*
X142736912Y-99512168D01*
X143034463Y-99388918D01*
X143302252Y-99209987D01*
X143529987Y-98982252D01*
X143708918Y-98714463D01*
X143832168Y-98416912D01*
X143895000Y-98101033D01*
X143895000Y-97778967D01*
X143832168Y-97463088D01*
X143708918Y-97165537D01*
X143529987Y-96897748D01*
X143302252Y-96670013D01*
X143034463Y-96491082D01*
X142736912Y-96367832D01*
X142421033Y-96305000D01*
X142098967Y-96305000D01*
X141783088Y-96367832D01*
X141485537Y-96491082D01*
X141217748Y-96670013D01*
X140990013Y-96897748D01*
X140811082Y-97165537D01*
X140805091Y-97180000D01*
X137464802Y-97180000D01*
X132970708Y-92685906D01*
X132984236Y-92641309D01*
X133011943Y-92360000D01*
X133009402Y-92334204D01*
X135126201Y-94451003D01*
X135149999Y-94480001D01*
X135178997Y-94503799D01*
X135265723Y-94574974D01*
X135386023Y-94639276D01*
X135397753Y-94645546D01*
X135541014Y-94689003D01*
X135652667Y-94700000D01*
X135652677Y-94700000D01*
X135690000Y-94703676D01*
X135727323Y-94700000D01*
X140805091Y-94700000D01*
X140811082Y-94714463D01*
X140990013Y-94982252D01*
X141217748Y-95209987D01*
X141485537Y-95388918D01*
X141783088Y-95512168D01*
X142098967Y-95575000D01*
X142421033Y-95575000D01*
X142736912Y-95512168D01*
X143034463Y-95388918D01*
X143302252Y-95209987D01*
X143529987Y-94982252D01*
X143708918Y-94714463D01*
X143832168Y-94416912D01*
X143895000Y-94101033D01*
X143895000Y-93778967D01*
X143832168Y-93463088D01*
X143708918Y-93165537D01*
X143529987Y-92897748D01*
X143302252Y-92670013D01*
X143034463Y-92491082D01*
X142736912Y-92367832D01*
X142421033Y-92305000D01*
X142098967Y-92305000D01*
X141783088Y-92367832D01*
X141485537Y-92491082D01*
X141217748Y-92670013D01*
X140990013Y-92897748D01*
X140811082Y-93165537D01*
X140805091Y-93180000D01*
X136004802Y-93180000D01*
X134256455Y-91431653D01*
X135447952Y-91431653D01*
X135603962Y-91747214D01*
X135978745Y-91938020D01*
X136383551Y-92052044D01*
X136802824Y-92084902D01*
X137220451Y-92035334D01*
X137620383Y-91905243D01*
X137916038Y-91747214D01*
X138072048Y-91431653D01*
X136760000Y-90119605D01*
X135447952Y-91431653D01*
X134256455Y-91431653D01*
X132970708Y-90145906D01*
X132984236Y-90101309D01*
X132995905Y-89982824D01*
X134615098Y-89982824D01*
X134664666Y-90400451D01*
X134794757Y-90800383D01*
X134952786Y-91096038D01*
X135268347Y-91252048D01*
X136580395Y-89940000D01*
X136939605Y-89940000D01*
X138251653Y-91252048D01*
X138567214Y-91096038D01*
X138758020Y-90721255D01*
X138872044Y-90316449D01*
X138904902Y-89897176D01*
X138890872Y-89778967D01*
X140625000Y-89778967D01*
X140625000Y-90101033D01*
X140687832Y-90416912D01*
X140811082Y-90714463D01*
X140990013Y-90982252D01*
X141217748Y-91209987D01*
X141485537Y-91388918D01*
X141783088Y-91512168D01*
X142098967Y-91575000D01*
X142421033Y-91575000D01*
X142736912Y-91512168D01*
X143034463Y-91388918D01*
X143302252Y-91209987D01*
X143529987Y-90982252D01*
X143708918Y-90714463D01*
X143832168Y-90416912D01*
X143895000Y-90101033D01*
X143895000Y-89778967D01*
X143832168Y-89463088D01*
X143708918Y-89165537D01*
X143529987Y-88897748D01*
X143302252Y-88670013D01*
X143034463Y-88491082D01*
X142736912Y-88367832D01*
X142421033Y-88305000D01*
X142098967Y-88305000D01*
X141783088Y-88367832D01*
X141485537Y-88491082D01*
X141217748Y-88670013D01*
X140990013Y-88897748D01*
X140811082Y-89165537D01*
X140687832Y-89463088D01*
X140625000Y-89778967D01*
X138890872Y-89778967D01*
X138855334Y-89479549D01*
X138725243Y-89079617D01*
X138567214Y-88783962D01*
X138251653Y-88627952D01*
X136939605Y-89940000D01*
X136580395Y-89940000D01*
X135268347Y-88627952D01*
X134952786Y-88783962D01*
X134761980Y-89158745D01*
X134647956Y-89563551D01*
X134615098Y-89982824D01*
X132995905Y-89982824D01*
X133011943Y-89820000D01*
X132984236Y-89538691D01*
X132902182Y-89268192D01*
X132768932Y-89018899D01*
X132589608Y-88800392D01*
X132371101Y-88621068D01*
X132238142Y-88550000D01*
X132371101Y-88478932D01*
X132408368Y-88448347D01*
X135447952Y-88448347D01*
X136760000Y-89760395D01*
X138072048Y-88448347D01*
X137916038Y-88132786D01*
X137541255Y-87941980D01*
X137136449Y-87827956D01*
X136717176Y-87795098D01*
X136299549Y-87844666D01*
X135899617Y-87974757D01*
X135603962Y-88132786D01*
X135447952Y-88448347D01*
X132408368Y-88448347D01*
X132589608Y-88299608D01*
X132768932Y-88081101D01*
X132902182Y-87831808D01*
X132984236Y-87561309D01*
X133011943Y-87280000D01*
X132991793Y-87075413D01*
X141304192Y-87075413D01*
X141399956Y-87339814D01*
X141689571Y-87480704D01*
X142001108Y-87562384D01*
X142322595Y-87581718D01*
X142641675Y-87537961D01*
X142946088Y-87432795D01*
X143120044Y-87339814D01*
X143215808Y-87075413D01*
X142260000Y-86119605D01*
X141304192Y-87075413D01*
X132991793Y-87075413D01*
X132984236Y-86998691D01*
X132902182Y-86728192D01*
X132768932Y-86478899D01*
X132589608Y-86260392D01*
X132371101Y-86081068D01*
X132238142Y-86010000D01*
X132251995Y-86002595D01*
X140618282Y-86002595D01*
X140662039Y-86321675D01*
X140767205Y-86626088D01*
X140860186Y-86800044D01*
X141124587Y-86895808D01*
X142080395Y-85940000D01*
X142439605Y-85940000D01*
X143395413Y-86895808D01*
X143659814Y-86800044D01*
X143800704Y-86510429D01*
X143882384Y-86198892D01*
X143901718Y-85877405D01*
X143857961Y-85558325D01*
X143752795Y-85253912D01*
X143659814Y-85079956D01*
X143395413Y-84984192D01*
X142439605Y-85940000D01*
X142080395Y-85940000D01*
X141124587Y-84984192D01*
X140860186Y-85079956D01*
X140719296Y-85369571D01*
X140637616Y-85681108D01*
X140618282Y-86002595D01*
X132251995Y-86002595D01*
X132371101Y-85938932D01*
X132589608Y-85759608D01*
X132768932Y-85541101D01*
X132902182Y-85291808D01*
X132984236Y-85021309D01*
X133005581Y-84804587D01*
X141304192Y-84804587D01*
X142260000Y-85760395D01*
X143215808Y-84804587D01*
X143120044Y-84540186D01*
X142830429Y-84399296D01*
X142518892Y-84317616D01*
X142197405Y-84298282D01*
X141878325Y-84342039D01*
X141573912Y-84447205D01*
X141399956Y-84540186D01*
X141304192Y-84804587D01*
X133005581Y-84804587D01*
X133011943Y-84740000D01*
X132984236Y-84458691D01*
X132902182Y-84188192D01*
X132768932Y-83938899D01*
X132589608Y-83720392D01*
X132371101Y-83541068D01*
X132238142Y-83470000D01*
X132371101Y-83398932D01*
X132589608Y-83219608D01*
X132768932Y-83001101D01*
X132902182Y-82751808D01*
X132984236Y-82481309D01*
X133011943Y-82200000D01*
X132984236Y-81918691D01*
X132941852Y-81778967D01*
X140625000Y-81778967D01*
X140625000Y-82101033D01*
X140687832Y-82416912D01*
X140811082Y-82714463D01*
X140990013Y-82982252D01*
X141217748Y-83209987D01*
X141485537Y-83388918D01*
X141783088Y-83512168D01*
X142098967Y-83575000D01*
X142421033Y-83575000D01*
X142736912Y-83512168D01*
X143034463Y-83388918D01*
X143302252Y-83209987D01*
X143529987Y-82982252D01*
X143708918Y-82714463D01*
X143832168Y-82416912D01*
X143895000Y-82101033D01*
X143895000Y-81778967D01*
X143832168Y-81463088D01*
X143708918Y-81165537D01*
X143529987Y-80897748D01*
X143302252Y-80670013D01*
X143034463Y-80491082D01*
X142736912Y-80367832D01*
X142421033Y-80305000D01*
X142098967Y-80305000D01*
X141783088Y-80367832D01*
X141485537Y-80491082D01*
X141217748Y-80670013D01*
X140990013Y-80897748D01*
X140811082Y-81165537D01*
X140687832Y-81463088D01*
X140625000Y-81778967D01*
X132941852Y-81778967D01*
X132902182Y-81648192D01*
X132768932Y-81398899D01*
X132589608Y-81180392D01*
X132371101Y-81001068D01*
X132238142Y-80930000D01*
X132371101Y-80858932D01*
X132589608Y-80679608D01*
X132768932Y-80461101D01*
X132902182Y-80211808D01*
X132984236Y-79941309D01*
X133011943Y-79660000D01*
X132984236Y-79378691D01*
X132902182Y-79108192D01*
X132768932Y-78858899D01*
X132589608Y-78640392D01*
X132371101Y-78461068D01*
X132238142Y-78390000D01*
X132371101Y-78318932D01*
X132589608Y-78139608D01*
X132768932Y-77921101D01*
X132790901Y-77880000D01*
X140625000Y-77880000D01*
X140625000Y-78101033D01*
X140687832Y-78416912D01*
X140811082Y-78714463D01*
X140990013Y-78982252D01*
X141217748Y-79209987D01*
X141485537Y-79388918D01*
X141783088Y-79512168D01*
X142098967Y-79575000D01*
X142421033Y-79575000D01*
X142736912Y-79512168D01*
X143034463Y-79388918D01*
X143302252Y-79209987D01*
X143529987Y-78982252D01*
X143708918Y-78714463D01*
X143832168Y-78416912D01*
X143895000Y-78101033D01*
X143895000Y-77778967D01*
X143832168Y-77463088D01*
X143708918Y-77165537D01*
X143529987Y-76897748D01*
X143302252Y-76670013D01*
X143034463Y-76491082D01*
X142736912Y-76367832D01*
X142421033Y-76305000D01*
X142098967Y-76305000D01*
X141783088Y-76367832D01*
X141696622Y-76403647D01*
X141588986Y-76370997D01*
X141477333Y-76360000D01*
X141477322Y-76360000D01*
X141440000Y-76356324D01*
X141402678Y-76360000D01*
X132790901Y-76360000D01*
X132768932Y-76318899D01*
X132589608Y-76100392D01*
X132371101Y-75921068D01*
X132238142Y-75850000D01*
X132371101Y-75778932D01*
X132589608Y-75599608D01*
X132768932Y-75381101D01*
X132902182Y-75131808D01*
X132984236Y-74861309D01*
X133011943Y-74580000D01*
X132984236Y-74298691D01*
X132902182Y-74028192D01*
X132768932Y-73778899D01*
X132589608Y-73560392D01*
X132371101Y-73381068D01*
X132238142Y-73310000D01*
X132371101Y-73238932D01*
X132589608Y-73059608D01*
X132768932Y-72841101D01*
X132902182Y-72591808D01*
X132984236Y-72321309D01*
X133011943Y-72040000D01*
X133008003Y-72000001D01*
X139245200Y-72000001D01*
X140693823Y-73448625D01*
X140687832Y-73463088D01*
X140625000Y-73778967D01*
X140625000Y-74101033D01*
X140687832Y-74416912D01*
X140811082Y-74714463D01*
X140990013Y-74982252D01*
X141217748Y-75209987D01*
X141485537Y-75388918D01*
X141783088Y-75512168D01*
X142098967Y-75575000D01*
X142421033Y-75575000D01*
X142736912Y-75512168D01*
X143034463Y-75388918D01*
X143302252Y-75209987D01*
X143529987Y-74982252D01*
X143708918Y-74714463D01*
X143832168Y-74416912D01*
X143895000Y-74101033D01*
X143895000Y-73778967D01*
X143832168Y-73463088D01*
X143708918Y-73165537D01*
X143529987Y-72897748D01*
X143302252Y-72670013D01*
X143034463Y-72491082D01*
X142736912Y-72367832D01*
X142421033Y-72305000D01*
X142098967Y-72305000D01*
X141783088Y-72367832D01*
X141768625Y-72373823D01*
X140123805Y-70729004D01*
X140100002Y-70700000D01*
X139984277Y-70605027D01*
X139852248Y-70534455D01*
X139708987Y-70490998D01*
X139597334Y-70480001D01*
X139597323Y-70480001D01*
X139560001Y-70476325D01*
X139522679Y-70480001D01*
X132407321Y-70480001D01*
X132369998Y-70476325D01*
X132332675Y-70480001D01*
X132332666Y-70480001D01*
X132221013Y-70490998D01*
X132077752Y-70534455D01*
X131945723Y-70605027D01*
X131945721Y-70605028D01*
X131945722Y-70605028D01*
X131901794Y-70641078D01*
X131851309Y-70625764D01*
X131640492Y-70605000D01*
X131499508Y-70605000D01*
X131288691Y-70625764D01*
X131018192Y-70707818D01*
X130768899Y-70841068D01*
X130550392Y-71020392D01*
X130371068Y-71238899D01*
X130237818Y-71488192D01*
X130155764Y-71758691D01*
X130128057Y-72040000D01*
X130155764Y-72321309D01*
X130237818Y-72591808D01*
X130371068Y-72841101D01*
X130550392Y-73059608D01*
X130768899Y-73238932D01*
X130901858Y-73310000D01*
X130768899Y-73381068D01*
X130550392Y-73560392D01*
X130371068Y-73778899D01*
X130237818Y-74028192D01*
X130155764Y-74298691D01*
X130128057Y-74580000D01*
X130155764Y-74861309D01*
X130237818Y-75131808D01*
X130371068Y-75381101D01*
X130550392Y-75599608D01*
X130768899Y-75778932D01*
X130901858Y-75850000D01*
X130768899Y-75921068D01*
X130550392Y-76100392D01*
X130371068Y-76318899D01*
X130237818Y-76568192D01*
X130155764Y-76838691D01*
X130128057Y-77120000D01*
X130155764Y-77401309D01*
X130237818Y-77671808D01*
X130371068Y-77921101D01*
X130550392Y-78139608D01*
X130768899Y-78318932D01*
X130901858Y-78390000D01*
X130768899Y-78461068D01*
X130550392Y-78640392D01*
X130371068Y-78858899D01*
X130237818Y-79108192D01*
X130155764Y-79378691D01*
X130128057Y-79660000D01*
X130155764Y-79941309D01*
X130237818Y-80211808D01*
X130371068Y-80461101D01*
X130550392Y-80679608D01*
X130768899Y-80858932D01*
X130901858Y-80930000D01*
X130768899Y-81001068D01*
X130550392Y-81180392D01*
X130371068Y-81398899D01*
X130237818Y-81648192D01*
X130155764Y-81918691D01*
X130128057Y-82200000D01*
X130155764Y-82481309D01*
X130237818Y-82751808D01*
X130371068Y-83001101D01*
X130550392Y-83219608D01*
X130768899Y-83398932D01*
X130901858Y-83470000D01*
X130768899Y-83541068D01*
X130550392Y-83720392D01*
X130371068Y-83938899D01*
X130237818Y-84188192D01*
X130155764Y-84458691D01*
X130128057Y-84740000D01*
X130155764Y-85021309D01*
X130169292Y-85065906D01*
X121584003Y-93651196D01*
X121554999Y-93674999D01*
X121499871Y-93742174D01*
X121460026Y-93790724D01*
X121412097Y-93880392D01*
X121389454Y-93922754D01*
X121345997Y-94066015D01*
X121335000Y-94177668D01*
X121335000Y-94177678D01*
X121331324Y-94215000D01*
X121335000Y-94252322D01*
X121335001Y-102601288D01*
X121291063Y-102645226D01*
X121177795Y-102814744D01*
X121099774Y-103003102D01*
X121060000Y-103203061D01*
X121060000Y-103406939D01*
X121099774Y-103606898D01*
X121177795Y-103795256D01*
X121233649Y-103878848D01*
X119090000Y-101735199D01*
X119090000Y-81697322D01*
X119093676Y-81659999D01*
X119090000Y-81622676D01*
X119090000Y-81622667D01*
X119079003Y-81511014D01*
X119035546Y-81367753D01*
X118964975Y-81235725D01*
X118964974Y-81235723D01*
X118893799Y-81148997D01*
X118870001Y-81119999D01*
X118841004Y-81096202D01*
X117730708Y-79985906D01*
X117744236Y-79941309D01*
X117771943Y-79660000D01*
X117744236Y-79378691D01*
X117662182Y-79108192D01*
X117528932Y-78858899D01*
X117349608Y-78640392D01*
X117131101Y-78461068D01*
X116998142Y-78390000D01*
X117131101Y-78318932D01*
X117349608Y-78139608D01*
X117528932Y-77921101D01*
X117662182Y-77671808D01*
X117744236Y-77401309D01*
X117771943Y-77120000D01*
X117744236Y-76838691D01*
X117662182Y-76568192D01*
X117528932Y-76318899D01*
X117349608Y-76100392D01*
X117131101Y-75921068D01*
X116998142Y-75850000D01*
X117131101Y-75778932D01*
X117349608Y-75599608D01*
X117528932Y-75381101D01*
X117662182Y-75131808D01*
X117744236Y-74861309D01*
X117771943Y-74580000D01*
X117744236Y-74298691D01*
X117662182Y-74028192D01*
X117528932Y-73778899D01*
X117349608Y-73560392D01*
X117131101Y-73381068D01*
X116998142Y-73310000D01*
X117131101Y-73238932D01*
X117349608Y-73059608D01*
X117528932Y-72841101D01*
X117662182Y-72591808D01*
X117744236Y-72321309D01*
X117771943Y-72040000D01*
X117744236Y-71758691D01*
X117662182Y-71488192D01*
X117528932Y-71238899D01*
X117349608Y-71020392D01*
X117131101Y-70841068D01*
X116881808Y-70707818D01*
X116611309Y-70625764D01*
X116400492Y-70605000D01*
X116259508Y-70605000D01*
X116048691Y-70625764D01*
X115778192Y-70707818D01*
X115528899Y-70841068D01*
X115310392Y-71020392D01*
X115131068Y-71238899D01*
X114997818Y-71488192D01*
X114915764Y-71758691D01*
X114888057Y-72040000D01*
X111435000Y-72040000D01*
X111435000Y-65635000D01*
X149385000Y-65635000D01*
X149385001Y-115694769D01*
X149385001Y-115694769D01*
G37*
X149385001Y-115694769D02*
X149269258Y-115478228D01*
X148902499Y-115262106D01*
X147234605Y-116930000D01*
X148902499Y-118597894D01*
X149269258Y-118381772D01*
X149385001Y-118160617D01*
X149385001Y-125325000D01*
X111435000Y-125325000D01*
X111435000Y-118777499D01*
X112087106Y-118777499D01*
X112303228Y-119144258D01*
X112763105Y-119384938D01*
X113261098Y-119531275D01*
X113778071Y-119577648D01*
X114294159Y-119522273D01*
X114789526Y-119367279D01*
X115206772Y-119144258D01*
X115422894Y-118777499D01*
X113755000Y-117109605D01*
X112087106Y-118777499D01*
X111435000Y-118777499D01*
X111435000Y-118183941D01*
X111540742Y-118381772D01*
X111907501Y-118597894D01*
X113575395Y-116930000D01*
X113934605Y-116930000D01*
X115602499Y-118597894D01*
X115969258Y-118381772D01*
X116059854Y-118208665D01*
X120660000Y-118208665D01*
X120660000Y-118491335D01*
X120715147Y-118768574D01*
X120823320Y-119029727D01*
X120980363Y-119264759D01*
X121180241Y-119464637D01*
X121415273Y-119621680D01*
X121676426Y-119729853D01*
X121953665Y-119785000D01*
X122236335Y-119785000D01*
X122513574Y-119729853D01*
X122774727Y-119621680D01*
X123009759Y-119464637D01*
X123209637Y-119264759D01*
X123366680Y-119029727D01*
X123474853Y-118768574D01*
X123480000Y-118742699D01*
X123485147Y-118768574D01*
X123593320Y-119029727D01*
X123750363Y-119264759D01*
X123950241Y-119464637D01*
X124185273Y-119621680D01*
X124446426Y-119729853D01*
X124723665Y-119785000D01*
X125006335Y-119785000D01*
X125283574Y-119729853D01*
X125544727Y-119621680D01*
X125779759Y-119464637D01*
X125979637Y-119264759D01*
X126136680Y-119029727D01*
X126244853Y-118768574D01*
X126250000Y-118742699D01*
X126255147Y-118768574D01*
X126363320Y-119029727D01*
X126520363Y-119264759D01*
X126720241Y-119464637D01*
X126955273Y-119621680D01*
X127216426Y-119729853D01*
X127493665Y-119785000D01*
X127776335Y-119785000D01*
X128053574Y-119729853D01*
X128314727Y-119621680D01*
X128549759Y-119464637D01*
X128749637Y-119264759D01*
X128906680Y-119029727D01*
X129014853Y-118768574D01*
X129020000Y-118742699D01*
X129025147Y-118768574D01*
X129133320Y-119029727D01*
X129290363Y-119264759D01*
X129490241Y-119464637D01*
X129725273Y-119621680D01*
X129986426Y-119729853D01*
X130263665Y-119785000D01*
X130546335Y-119785000D01*
X130823574Y-119729853D01*
X131084727Y-119621680D01*
X131319759Y-119464637D01*
X131519637Y-119264759D01*
X131676680Y-119029727D01*
X131784853Y-118768574D01*
X131790000Y-118742699D01*
X131795147Y-118768574D01*
X131903320Y-119029727D01*
X132060363Y-119264759D01*
X132260241Y-119464637D01*
X132495273Y-119621680D01*
X132756426Y-119729853D01*
X133033665Y-119785000D01*
X133316335Y-119785000D01*
X133593574Y-119729853D01*
X133854727Y-119621680D01*
X134089759Y-119464637D01*
X134289637Y-119264759D01*
X134446680Y-119029727D01*
X134554853Y-118768574D01*
X134560000Y-118742699D01*
X134565147Y-118768574D01*
X134673320Y-119029727D01*
X134830363Y-119264759D01*
X135030241Y-119464637D01*
X135265273Y-119621680D01*
X135526426Y-119729853D01*
X135803665Y-119785000D01*
X136086335Y-119785000D01*
X136363574Y-119729853D01*
X136624727Y-119621680D01*
X136859759Y-119464637D01*
X137059637Y-119264759D01*
X137216680Y-119029727D01*
X137324853Y-118768574D01*
X137330000Y-118742699D01*
X137335147Y-118768574D01*
X137443320Y-119029727D01*
X137600363Y-119264759D01*
X137800241Y-119464637D01*
X138035273Y-119621680D01*
X138296426Y-119729853D01*
X138573665Y-119785000D01*
X138856335Y-119785000D01*
X139133574Y-119729853D01*
X139394727Y-119621680D01*
X139629759Y-119464637D01*
X139829637Y-119264759D01*
X139986680Y-119029727D01*
X140091156Y-118777499D01*
X145387106Y-118777499D01*
X145603228Y-119144258D01*
X146063105Y-119384938D01*
X146561098Y-119531275D01*
X147078071Y-119577648D01*
X147594159Y-119522273D01*
X148089526Y-119367279D01*
X148506772Y-119144258D01*
X148722894Y-118777499D01*
X147055000Y-117109605D01*
X145387106Y-118777499D01*
X140091156Y-118777499D01*
X140094853Y-118768574D01*
X140150000Y-118491335D01*
X140150000Y-118208665D01*
X140094853Y-117931426D01*
X139986680Y-117670273D01*
X139829637Y-117435241D01*
X139629759Y-117235363D01*
X139394727Y-117078320D01*
X139133574Y-116970147D01*
X139047729Y-116953071D01*
X144407352Y-116953071D01*
X144462727Y-117469159D01*
X144617721Y-117964526D01*
X144840742Y-118381772D01*
X145207501Y-118597894D01*
X146875395Y-116930000D01*
X145207501Y-115262106D01*
X144840742Y-115478228D01*
X144600062Y-115938105D01*
X144453725Y-116436098D01*
X144407352Y-116953071D01*
X139047729Y-116953071D01*
X138856335Y-116915000D01*
X138573665Y-116915000D01*
X138296426Y-116970147D01*
X138035273Y-117078320D01*
X137800241Y-117235363D01*
X137600363Y-117435241D01*
X137443320Y-117670273D01*
X137335147Y-117931426D01*
X137330000Y-117957301D01*
X137324853Y-117931426D01*
X137216680Y-117670273D01*
X137059637Y-117435241D01*
X136859759Y-117235363D01*
X136624727Y-117078320D01*
X136363574Y-116970147D01*
X136086335Y-116915000D01*
X135803665Y-116915000D01*
X135526426Y-116970147D01*
X135265273Y-117078320D01*
X135030241Y-117235363D01*
X134830363Y-117435241D01*
X134673320Y-117670273D01*
X134565147Y-117931426D01*
X134560000Y-117957301D01*
X134554853Y-117931426D01*
X134446680Y-117670273D01*
X134289637Y-117435241D01*
X134089759Y-117235363D01*
X133854727Y-117078320D01*
X133593574Y-116970147D01*
X133316335Y-116915000D01*
X133033665Y-116915000D01*
X132756426Y-116970147D01*
X132495273Y-117078320D01*
X132260241Y-117235363D01*
X132060363Y-117435241D01*
X131903320Y-117670273D01*
X131795147Y-117931426D01*
X131790000Y-117957301D01*
X131784853Y-117931426D01*
X131676680Y-117670273D01*
X131519637Y-117435241D01*
X131319759Y-117235363D01*
X131084727Y-117078320D01*
X130823574Y-116970147D01*
X130546335Y-116915000D01*
X130263665Y-116915000D01*
X129986426Y-116970147D01*
X129725273Y-117078320D01*
X129490241Y-117235363D01*
X129290363Y-117435241D01*
X129133320Y-117670273D01*
X129025147Y-117931426D01*
X129020000Y-117957301D01*
X129014853Y-117931426D01*
X128906680Y-117670273D01*
X128749637Y-117435241D01*
X128549759Y-117235363D01*
X128314727Y-117078320D01*
X128053574Y-116970147D01*
X127776335Y-116915000D01*
X127493665Y-116915000D01*
X127216426Y-116970147D01*
X126955273Y-117078320D01*
X126720241Y-117235363D01*
X126520363Y-117435241D01*
X126363320Y-117670273D01*
X126255147Y-117931426D01*
X126250000Y-117957301D01*
X126244853Y-117931426D01*
X126136680Y-117670273D01*
X125979637Y-117435241D01*
X125779759Y-117235363D01*
X125544727Y-117078320D01*
X125283574Y-116970147D01*
X125006335Y-116915000D01*
X124723665Y-116915000D01*
X124446426Y-116970147D01*
X124185273Y-117078320D01*
X123950241Y-117235363D01*
X123750363Y-117435241D01*
X123593320Y-117670273D01*
X123485147Y-117931426D01*
X123480000Y-117957301D01*
X123474853Y-117931426D01*
X123366680Y-117670273D01*
X123209637Y-117435241D01*
X123009759Y-117235363D01*
X122774727Y-117078320D01*
X122513574Y-116970147D01*
X122236335Y-116915000D01*
X121953665Y-116915000D01*
X121676426Y-116970147D01*
X121415273Y-117078320D01*
X121180241Y-117235363D01*
X120980363Y-117435241D01*
X120823320Y-117670273D01*
X120715147Y-117931426D01*
X120660000Y-118208665D01*
X116059854Y-118208665D01*
X116209938Y-117921895D01*
X116356275Y-117423902D01*
X116402648Y-116906929D01*
X116347273Y-116390841D01*
X116192279Y-115895474D01*
X115969258Y-115478228D01*
X115602499Y-115262106D01*
X113934605Y-116930000D01*
X113575395Y-116930000D01*
X111907501Y-115262106D01*
X111540742Y-115478228D01*
X111435000Y-115680274D01*
X111435000Y-115082501D01*
X112087106Y-115082501D01*
X113755000Y-116750395D01*
X115422894Y-115082501D01*
X115206772Y-114715742D01*
X114746895Y-114475062D01*
X114248902Y-114328725D01*
X113731929Y-114282352D01*
X113215841Y-114337727D01*
X112720474Y-114492721D01*
X112303228Y-114715742D01*
X112087106Y-115082501D01*
X111435000Y-115082501D01*
X111435000Y-107600000D01*
X114888057Y-107600000D01*
X114915764Y-107881309D01*
X114997818Y-108151808D01*
X115131068Y-108401101D01*
X115310392Y-108619608D01*
X115528899Y-108798932D01*
X115778192Y-108932182D01*
X116048691Y-109014236D01*
X116259508Y-109035000D01*
X116400492Y-109035000D01*
X116611309Y-109014236D01*
X116881808Y-108932182D01*
X117131101Y-108798932D01*
X117349608Y-108619608D01*
X117528932Y-108401101D01*
X117662182Y-108151808D01*
X117744236Y-107881309D01*
X117771943Y-107600000D01*
X117744236Y-107318691D01*
X117662182Y-107048192D01*
X117528932Y-106798899D01*
X117349608Y-106580392D01*
X117131101Y-106401068D01*
X116993318Y-106327421D01*
X117185131Y-106212385D01*
X117393519Y-106023414D01*
X117561037Y-105797420D01*
X117681246Y-105543087D01*
X117721904Y-105409039D01*
X117599915Y-105187000D01*
X116457000Y-105187000D01*
X116457000Y-105207000D01*
X116203000Y-105207000D01*
X116203000Y-105187000D01*
X115060085Y-105187000D01*
X114938096Y-105409039D01*
X114978754Y-105543087D01*
X115098963Y-105797420D01*
X115266481Y-106023414D01*
X115474869Y-106212385D01*
X115666682Y-106327421D01*
X115528899Y-106401068D01*
X115310392Y-106580392D01*
X115131068Y-106798899D01*
X114997818Y-107048192D01*
X114915764Y-107318691D01*
X114888057Y-107600000D01*
X111435000Y-107600000D01*
X111435000Y-72040000D01*
X114888057Y-72040000D01*
X114915764Y-72321309D01*
X114997818Y-72591808D01*
X115131068Y-72841101D01*
X115310392Y-73059608D01*
X115528899Y-73238932D01*
X115661858Y-73310000D01*
X115528899Y-73381068D01*
X115310392Y-73560392D01*
X115131068Y-73778899D01*
X114997818Y-74028192D01*
X114915764Y-74298691D01*
X114888057Y-74580000D01*
X114915764Y-74861309D01*
X114997818Y-75131808D01*
X115131068Y-75381101D01*
X115310392Y-75599608D01*
X115528899Y-75778932D01*
X115661858Y-75850000D01*
X115528899Y-75921068D01*
X115310392Y-76100392D01*
X115131068Y-76318899D01*
X114997818Y-76568192D01*
X114915764Y-76838691D01*
X114888057Y-77120000D01*
X114915764Y-77401309D01*
X114997818Y-77671808D01*
X115131068Y-77921101D01*
X115310392Y-78139608D01*
X115528899Y-78318932D01*
X115661858Y-78390000D01*
X115528899Y-78461068D01*
X115310392Y-78640392D01*
X115131068Y-78858899D01*
X114997818Y-79108192D01*
X114915764Y-79378691D01*
X114888057Y-79660000D01*
X114915764Y-79941309D01*
X114997818Y-80211808D01*
X115131068Y-80461101D01*
X115310392Y-80679608D01*
X115528899Y-80858932D01*
X115661858Y-80930000D01*
X115528899Y-81001068D01*
X115310392Y-81180392D01*
X115131068Y-81398899D01*
X114997818Y-81648192D01*
X114915764Y-81918691D01*
X114888057Y-82200000D01*
X114915764Y-82481309D01*
X114997818Y-82751808D01*
X115131068Y-83001101D01*
X115310392Y-83219608D01*
X115528899Y-83398932D01*
X115661858Y-83470000D01*
X115528899Y-83541068D01*
X115310392Y-83720392D01*
X115131068Y-83938899D01*
X114997818Y-84188192D01*
X114915764Y-84458691D01*
X114888057Y-84740000D01*
X114915764Y-85021309D01*
X114997818Y-85291808D01*
X115131068Y-85541101D01*
X115310392Y-85759608D01*
X115528899Y-85938932D01*
X115661858Y-86010000D01*
X115528899Y-86081068D01*
X115310392Y-86260392D01*
X115131068Y-86478899D01*
X114997818Y-86728192D01*
X114915764Y-86998691D01*
X114888057Y-87280000D01*
X114915764Y-87561309D01*
X114997818Y-87831808D01*
X115131068Y-88081101D01*
X115310392Y-88299608D01*
X115528899Y-88478932D01*
X115661858Y-88550000D01*
X115528899Y-88621068D01*
X115310392Y-88800392D01*
X115131068Y-89018899D01*
X114997818Y-89268192D01*
X114915764Y-89538691D01*
X114888057Y-89820000D01*
X114915764Y-90101309D01*
X114997818Y-90371808D01*
X115131068Y-90621101D01*
X115310392Y-90839608D01*
X115528899Y-91018932D01*
X115661858Y-91090000D01*
X115528899Y-91161068D01*
X115310392Y-91340392D01*
X115131068Y-91558899D01*
X114997818Y-91808192D01*
X114915764Y-92078691D01*
X114888057Y-92360000D01*
X114915764Y-92641309D01*
X114997818Y-92911808D01*
X115131068Y-93161101D01*
X115310392Y-93379608D01*
X115528899Y-93558932D01*
X115661858Y-93630000D01*
X115528899Y-93701068D01*
X115310392Y-93880392D01*
X115131068Y-94098899D01*
X114997818Y-94348192D01*
X114915764Y-94618691D01*
X114888057Y-94900000D01*
X114915764Y-95181309D01*
X114997818Y-95451808D01*
X115131068Y-95701101D01*
X115310392Y-95919608D01*
X115528899Y-96098932D01*
X115661858Y-96170000D01*
X115528899Y-96241068D01*
X115310392Y-96420392D01*
X115131068Y-96638899D01*
X114997818Y-96888192D01*
X114915764Y-97158691D01*
X114888057Y-97440000D01*
X114915764Y-97721309D01*
X114997818Y-97991808D01*
X115131068Y-98241101D01*
X115310392Y-98459608D01*
X115528899Y-98638932D01*
X115661858Y-98710000D01*
X115528899Y-98781068D01*
X115310392Y-98960392D01*
X115131068Y-99178899D01*
X114997818Y-99428192D01*
X114915764Y-99698691D01*
X114888057Y-99980000D01*
X114915764Y-100261309D01*
X114997818Y-100531808D01*
X115131068Y-100781101D01*
X115310392Y-100999608D01*
X115528899Y-101178932D01*
X115661858Y-101250000D01*
X115528899Y-101321068D01*
X115310392Y-101500392D01*
X115131068Y-101718899D01*
X114997818Y-101968192D01*
X114915764Y-102238691D01*
X114888057Y-102520000D01*
X114915764Y-102801309D01*
X114997818Y-103071808D01*
X115131068Y-103321101D01*
X115310392Y-103539608D01*
X115528899Y-103718932D01*
X115666682Y-103792579D01*
X115474869Y-103907615D01*
X115266481Y-104096586D01*
X115098963Y-104322580D01*
X114978754Y-104576913D01*
X114938096Y-104710961D01*
X115060085Y-104933000D01*
X116203000Y-104933000D01*
X116203000Y-104913000D01*
X116457000Y-104913000D01*
X116457000Y-104933000D01*
X117599915Y-104933000D01*
X117721904Y-104710961D01*
X117681246Y-104576913D01*
X117561037Y-104322580D01*
X117393519Y-104096586D01*
X117185131Y-103907615D01*
X116993318Y-103792579D01*
X117131101Y-103718932D01*
X117349608Y-103539608D01*
X117528932Y-103321101D01*
X117662182Y-103071808D01*
X117744236Y-102801309D01*
X117767722Y-102562855D01*
X117790000Y-102590001D01*
X117818998Y-102613799D01*
X129309713Y-114104515D01*
X129161335Y-114075000D01*
X128878665Y-114075000D01*
X128601426Y-114130147D01*
X128340273Y-114238320D01*
X128105241Y-114395363D01*
X127905363Y-114595241D01*
X127748320Y-114830273D01*
X127640147Y-115091426D01*
X127635000Y-115117301D01*
X127629853Y-115091426D01*
X127521680Y-114830273D01*
X127364637Y-114595241D01*
X127164759Y-114395363D01*
X126929727Y-114238320D01*
X126668574Y-114130147D01*
X126391335Y-114075000D01*
X126108665Y-114075000D01*
X125831426Y-114130147D01*
X125570273Y-114238320D01*
X125335241Y-114395363D01*
X125135363Y-114595241D01*
X124978320Y-114830273D01*
X124870147Y-115091426D01*
X124865000Y-115117301D01*
X124859853Y-115091426D01*
X124751680Y-114830273D01*
X124594637Y-114595241D01*
X124394759Y-114395363D01*
X124159727Y-114238320D01*
X123898574Y-114130147D01*
X123621335Y-114075000D01*
X123338665Y-114075000D01*
X123061426Y-114130147D01*
X122800273Y-114238320D01*
X122565241Y-114395363D01*
X122365363Y-114595241D01*
X122208320Y-114830273D01*
X122100147Y-115091426D01*
X122095000Y-115117301D01*
X122089853Y-115091426D01*
X121981680Y-114830273D01*
X121824637Y-114595241D01*
X121624759Y-114395363D01*
X121389727Y-114238320D01*
X121128574Y-114130147D01*
X120851335Y-114075000D01*
X120568665Y-114075000D01*
X120291426Y-114130147D01*
X120030273Y-114238320D01*
X119795241Y-114395363D01*
X119595363Y-114595241D01*
X119438320Y-114830273D01*
X119330147Y-115091426D01*
X119275000Y-115368665D01*
X119275000Y-115651335D01*
X119330147Y-115928574D01*
X119438320Y-116189727D01*
X119595363Y-116424759D01*
X119795241Y-116624637D01*
X120030273Y-116781680D01*
X120291426Y-116889853D01*
X120568665Y-116945000D01*
X120851335Y-116945000D01*
X121128574Y-116889853D01*
X121389727Y-116781680D01*
X121624759Y-116624637D01*
X121824637Y-116424759D01*
X121981680Y-116189727D01*
X122089853Y-115928574D01*
X122095000Y-115902699D01*
X122100147Y-115928574D01*
X122208320Y-116189727D01*
X122365363Y-116424759D01*
X122565241Y-116624637D01*
X122800273Y-116781680D01*
X123061426Y-116889853D01*
X123338665Y-116945000D01*
X123621335Y-116945000D01*
X123898574Y-116889853D01*
X124159727Y-116781680D01*
X124394759Y-116624637D01*
X124594637Y-116424759D01*
X124751680Y-116189727D01*
X124859853Y-115928574D01*
X124865000Y-115902699D01*
X124870147Y-115928574D01*
X124978320Y-116189727D01*
X125135363Y-116424759D01*
X125335241Y-116624637D01*
X125570273Y-116781680D01*
X125831426Y-116889853D01*
X126108665Y-116945000D01*
X126391335Y-116945000D01*
X126668574Y-116889853D01*
X126929727Y-116781680D01*
X127164759Y-116624637D01*
X127364637Y-116424759D01*
X127521680Y-116189727D01*
X127629853Y-115928574D01*
X127635000Y-115902699D01*
X127640147Y-115928574D01*
X127748320Y-116189727D01*
X127905363Y-116424759D01*
X128105241Y-116624637D01*
X128340273Y-116781680D01*
X128601426Y-116889853D01*
X128878665Y-116945000D01*
X129161335Y-116945000D01*
X129438574Y-116889853D01*
X129699727Y-116781680D01*
X129934759Y-116624637D01*
X130134637Y-116424759D01*
X130291680Y-116189727D01*
X130399853Y-115928574D01*
X130405000Y-115902699D01*
X130410147Y-115928574D01*
X130518320Y-116189727D01*
X130675363Y-116424759D01*
X130875241Y-116624637D01*
X131110273Y-116781680D01*
X131371426Y-116889853D01*
X131648665Y-116945000D01*
X131931335Y-116945000D01*
X132208574Y-116889853D01*
X132469727Y-116781680D01*
X132704759Y-116624637D01*
X132904637Y-116424759D01*
X133061680Y-116189727D01*
X133169853Y-115928574D01*
X133175000Y-115902699D01*
X133180147Y-115928574D01*
X133288320Y-116189727D01*
X133445363Y-116424759D01*
X133645241Y-116624637D01*
X133880273Y-116781680D01*
X134141426Y-116889853D01*
X134418665Y-116945000D01*
X134701335Y-116945000D01*
X134978574Y-116889853D01*
X135239727Y-116781680D01*
X135474759Y-116624637D01*
X135674637Y-116424759D01*
X135831680Y-116189727D01*
X135939853Y-115928574D01*
X135945000Y-115902699D01*
X135950147Y-115928574D01*
X136058320Y-116189727D01*
X136215363Y-116424759D01*
X136415241Y-116624637D01*
X136650273Y-116781680D01*
X136911426Y-116889853D01*
X137188665Y-116945000D01*
X137471335Y-116945000D01*
X137748574Y-116889853D01*
X138009727Y-116781680D01*
X138244759Y-116624637D01*
X138444637Y-116424759D01*
X138601680Y-116189727D01*
X138665000Y-116036859D01*
X138665000Y-116372542D01*
X138689403Y-116495223D01*
X138737270Y-116610785D01*
X138806763Y-116714789D01*
X138895211Y-116803237D01*
X138999215Y-116872730D01*
X139114777Y-116920597D01*
X139237458Y-116945000D01*
X139814250Y-116945000D01*
X139973000Y-116786250D01*
X139973000Y-115637000D01*
X140227000Y-115637000D01*
X140227000Y-116786250D01*
X140385750Y-116945000D01*
X140962542Y-116945000D01*
X141085223Y-116920597D01*
X141200785Y-116872730D01*
X141304789Y-116803237D01*
X141393237Y-116714789D01*
X141462730Y-116610785D01*
X141510597Y-116495223D01*
X141535000Y-116372542D01*
X141535000Y-115795750D01*
X141376250Y-115637000D01*
X140227000Y-115637000D01*
X139973000Y-115637000D01*
X139953000Y-115637000D01*
X139953000Y-115383000D01*
X139973000Y-115383000D01*
X139973000Y-114233750D01*
X140227000Y-114233750D01*
X140227000Y-115383000D01*
X141376250Y-115383000D01*
X141535000Y-115224250D01*
X141535000Y-115082501D01*
X145387106Y-115082501D01*
X147055000Y-116750395D01*
X148722894Y-115082501D01*
X148506772Y-114715742D01*
X148046895Y-114475062D01*
X147548902Y-114328725D01*
X147031929Y-114282352D01*
X146515841Y-114337727D01*
X146020474Y-114492721D01*
X145603228Y-114715742D01*
X145387106Y-115082501D01*
X141535000Y-115082501D01*
X141535000Y-114647458D01*
X141510597Y-114524777D01*
X141462730Y-114409215D01*
X141393237Y-114305211D01*
X141304789Y-114216763D01*
X141200785Y-114147270D01*
X141085223Y-114099403D01*
X140962542Y-114075000D01*
X140385750Y-114075000D01*
X140227000Y-114233750D01*
X139973000Y-114233750D01*
X139814250Y-114075000D01*
X139237458Y-114075000D01*
X139114777Y-114099403D01*
X138999215Y-114147270D01*
X138895211Y-114216763D01*
X138806763Y-114305211D01*
X138737270Y-114409215D01*
X138689403Y-114524777D01*
X138665000Y-114647458D01*
X138665000Y-114983141D01*
X138601680Y-114830273D01*
X138444637Y-114595241D01*
X138244759Y-114395363D01*
X138009727Y-114238320D01*
X137748574Y-114130147D01*
X137471335Y-114075000D01*
X137188665Y-114075000D01*
X136911426Y-114130147D01*
X136650273Y-114238320D01*
X136415241Y-114395363D01*
X136215363Y-114595241D01*
X136058320Y-114830273D01*
X135950147Y-115091426D01*
X135945000Y-115117301D01*
X135939853Y-115091426D01*
X135831680Y-114830273D01*
X135674637Y-114595241D01*
X135474759Y-114395363D01*
X135239727Y-114238320D01*
X134978574Y-114130147D01*
X134701335Y-114075000D01*
X134418665Y-114075000D01*
X134141426Y-114130147D01*
X133880273Y-114238320D01*
X133645241Y-114395363D01*
X133445363Y-114595241D01*
X133288320Y-114830273D01*
X133180147Y-115091426D01*
X133175000Y-115117301D01*
X133169853Y-115091426D01*
X133061680Y-114830273D01*
X132904637Y-114595241D01*
X132704759Y-114395363D01*
X132469727Y-114238320D01*
X132208574Y-114130147D01*
X131931335Y-114075000D01*
X131648665Y-114075000D01*
X131466114Y-114111312D01*
X121521152Y-104166351D01*
X121604744Y-104222205D01*
X121793102Y-104300226D01*
X121993061Y-104340000D01*
X122196939Y-104340000D01*
X122396898Y-104300226D01*
X122585256Y-104222205D01*
X122754774Y-104108937D01*
X122898937Y-103964774D01*
X123012205Y-103795256D01*
X123090226Y-103606898D01*
X123130000Y-103406939D01*
X123130000Y-103203061D01*
X123091467Y-103009340D01*
X123178102Y-103045226D01*
X123378061Y-103085000D01*
X123581939Y-103085000D01*
X123781898Y-103045226D01*
X123970256Y-102967205D01*
X124139774Y-102853937D01*
X124283937Y-102709774D01*
X124397205Y-102540256D01*
X124405595Y-102520000D01*
X130128057Y-102520000D01*
X130155764Y-102801309D01*
X130237818Y-103071808D01*
X130371068Y-103321101D01*
X130550392Y-103539608D01*
X130768899Y-103718932D01*
X130901858Y-103790000D01*
X130768899Y-103861068D01*
X130550392Y-104040392D01*
X130371068Y-104258899D01*
X130237818Y-104508192D01*
X130155764Y-104778691D01*
X130128057Y-105060000D01*
X130155764Y-105341309D01*
X130237818Y-105611808D01*
X130371068Y-105861101D01*
X130550392Y-106079608D01*
X130663482Y-106172419D01*
X130645518Y-106174188D01*
X130525820Y-106210498D01*
X130415506Y-106269463D01*
X130318815Y-106348815D01*
X130239463Y-106445506D01*
X130180498Y-106555820D01*
X130144188Y-106675518D01*
X130131928Y-106800000D01*
X130131928Y-108400000D01*
X130144188Y-108524482D01*
X130180498Y-108644180D01*
X130239463Y-108754494D01*
X130318815Y-108851185D01*
X130415506Y-108930537D01*
X130525820Y-108989502D01*
X130645518Y-109025812D01*
X130770000Y-109038072D01*
X132370000Y-109038072D01*
X132494482Y-109025812D01*
X132614180Y-108989502D01*
X132724494Y-108930537D01*
X132821185Y-108851185D01*
X132900537Y-108754494D01*
X132959502Y-108644180D01*
X132995812Y-108524482D01*
X133008072Y-108400000D01*
X133008072Y-106800000D01*
X132995812Y-106675518D01*
X132959502Y-106555820D01*
X132900537Y-106445506D01*
X132821185Y-106348815D01*
X132724494Y-106269463D01*
X132614180Y-106210498D01*
X132494482Y-106174188D01*
X132476518Y-106172419D01*
X132589608Y-106079608D01*
X132768932Y-105861101D01*
X132812833Y-105778967D01*
X140625000Y-105778967D01*
X140625000Y-106101033D01*
X140687832Y-106416912D01*
X140811082Y-106714463D01*
X140990013Y-106982252D01*
X141217748Y-107209987D01*
X141485537Y-107388918D01*
X141783088Y-107512168D01*
X142098967Y-107575000D01*
X142421033Y-107575000D01*
X142736912Y-107512168D01*
X143034463Y-107388918D01*
X143302252Y-107209987D01*
X143529987Y-106982252D01*
X143708918Y-106714463D01*
X143832168Y-106416912D01*
X143895000Y-106101033D01*
X143895000Y-105778967D01*
X143832168Y-105463088D01*
X143708918Y-105165537D01*
X143529987Y-104897748D01*
X143302252Y-104670013D01*
X143034463Y-104491082D01*
X142736912Y-104367832D01*
X142421033Y-104305000D01*
X142098967Y-104305000D01*
X141783088Y-104367832D01*
X141485537Y-104491082D01*
X141217748Y-104670013D01*
X140990013Y-104897748D01*
X140811082Y-105165537D01*
X140687832Y-105463088D01*
X140625000Y-105778967D01*
X132812833Y-105778967D01*
X132902182Y-105611808D01*
X132984236Y-105341309D01*
X133011943Y-105060000D01*
X132984236Y-104778691D01*
X132902182Y-104508192D01*
X132768932Y-104258899D01*
X132589608Y-104040392D01*
X132371101Y-103861068D01*
X132238142Y-103790000D01*
X132371101Y-103718932D01*
X132589608Y-103539608D01*
X132768932Y-103321101D01*
X132902182Y-103071808D01*
X132984236Y-102801309D01*
X133011943Y-102520000D01*
X132984236Y-102238691D01*
X132902182Y-101968192D01*
X132801040Y-101778967D01*
X140625000Y-101778967D01*
X140625000Y-102101033D01*
X140687832Y-102416912D01*
X140811082Y-102714463D01*
X140990013Y-102982252D01*
X141217748Y-103209987D01*
X141485537Y-103388918D01*
X141783088Y-103512168D01*
X142098967Y-103575000D01*
X142421033Y-103575000D01*
X142736912Y-103512168D01*
X143034463Y-103388918D01*
X143302252Y-103209987D01*
X143529987Y-102982252D01*
X143708918Y-102714463D01*
X143832168Y-102416912D01*
X143895000Y-102101033D01*
X143895000Y-101778967D01*
X143832168Y-101463088D01*
X143708918Y-101165537D01*
X143529987Y-100897748D01*
X143302252Y-100670013D01*
X143034463Y-100491082D01*
X142736912Y-100367832D01*
X142421033Y-100305000D01*
X142098967Y-100305000D01*
X141783088Y-100367832D01*
X141485537Y-100491082D01*
X141217748Y-100670013D01*
X140990013Y-100897748D01*
X140811082Y-101165537D01*
X140687832Y-101463088D01*
X140625000Y-101778967D01*
X132801040Y-101778967D01*
X132768932Y-101718899D01*
X132589608Y-101500392D01*
X132371101Y-101321068D01*
X132233318Y-101247421D01*
X132425131Y-101132385D01*
X132633519Y-100943414D01*
X132801037Y-100717420D01*
X132921246Y-100463087D01*
X132961904Y-100329039D01*
X132839915Y-100107000D01*
X131697000Y-100107000D01*
X131697000Y-100127000D01*
X131443000Y-100127000D01*
X131443000Y-100107000D01*
X130300085Y-100107000D01*
X130178096Y-100329039D01*
X130218754Y-100463087D01*
X130338963Y-100717420D01*
X130506481Y-100943414D01*
X130714869Y-101132385D01*
X130906682Y-101247421D01*
X130768899Y-101321068D01*
X130550392Y-101500392D01*
X130371068Y-101718899D01*
X130237818Y-101968192D01*
X130155764Y-102238691D01*
X130128057Y-102520000D01*
X124405595Y-102520000D01*
X124475226Y-102351898D01*
X124515000Y-102151939D01*
X124515000Y-101948061D01*
X124475226Y-101748102D01*
X124397205Y-101559744D01*
X124283937Y-101390226D01*
X124139774Y-101246063D01*
X124130000Y-101239532D01*
X124130000Y-95794801D01*
X130130598Y-89794204D01*
X130128057Y-89820000D01*
X130155764Y-90101309D01*
X130237818Y-90371808D01*
X130371068Y-90621101D01*
X130550392Y-90839608D01*
X130768899Y-91018932D01*
X130901858Y-91090000D01*
X130768899Y-91161068D01*
X130550392Y-91340392D01*
X130371068Y-91558899D01*
X130237818Y-91808192D01*
X130155764Y-92078691D01*
X130128057Y-92360000D01*
X130155764Y-92641309D01*
X130237818Y-92911808D01*
X130371068Y-93161101D01*
X130550392Y-93379608D01*
X130768899Y-93558932D01*
X130901858Y-93630000D01*
X130768899Y-93701068D01*
X130550392Y-93880392D01*
X130371068Y-94098899D01*
X130237818Y-94348192D01*
X130155764Y-94618691D01*
X130128057Y-94900000D01*
X130155764Y-95181309D01*
X130237818Y-95451808D01*
X130371068Y-95701101D01*
X130550392Y-95919608D01*
X130768899Y-96098932D01*
X130901858Y-96170000D01*
X130768899Y-96241068D01*
X130550392Y-96420392D01*
X130371068Y-96638899D01*
X130237818Y-96888192D01*
X130155764Y-97158691D01*
X130128057Y-97440000D01*
X130155764Y-97721309D01*
X130237818Y-97991808D01*
X130371068Y-98241101D01*
X130550392Y-98459608D01*
X130768899Y-98638932D01*
X130906682Y-98712579D01*
X130714869Y-98827615D01*
X130506481Y-99016586D01*
X130338963Y-99242580D01*
X130218754Y-99496913D01*
X130178096Y-99630961D01*
X130300085Y-99853000D01*
X131443000Y-99853000D01*
X131443000Y-99833000D01*
X131697000Y-99833000D01*
X131697000Y-99853000D01*
X132839915Y-99853000D01*
X132961904Y-99630961D01*
X132921246Y-99496913D01*
X132801037Y-99242580D01*
X132633519Y-99016586D01*
X132425131Y-98827615D01*
X132233318Y-98712579D01*
X132371101Y-98638932D01*
X132589608Y-98459608D01*
X132768932Y-98241101D01*
X132902182Y-97991808D01*
X132984236Y-97721309D01*
X133011943Y-97440000D01*
X132984236Y-97158691D01*
X132902182Y-96888192D01*
X132768932Y-96638899D01*
X132589608Y-96420392D01*
X132371101Y-96241068D01*
X132238142Y-96170000D01*
X132371101Y-96098932D01*
X132589608Y-95919608D01*
X132768932Y-95701101D01*
X132902182Y-95451808D01*
X132984236Y-95181309D01*
X133011943Y-94900000D01*
X133009402Y-94874204D01*
X136586201Y-98451003D01*
X136609999Y-98480001D01*
X136725724Y-98574974D01*
X136857753Y-98645546D01*
X137001014Y-98689003D01*
X137112667Y-98700000D01*
X137112675Y-98700000D01*
X137150000Y-98703676D01*
X137187325Y-98700000D01*
X140805091Y-98700000D01*
X140811082Y-98714463D01*
X140990013Y-98982252D01*
X141217748Y-99209987D01*
X141485537Y-99388918D01*
X141783088Y-99512168D01*
X142098967Y-99575000D01*
X142421033Y-99575000D01*
X142736912Y-99512168D01*
X143034463Y-99388918D01*
X143302252Y-99209987D01*
X143529987Y-98982252D01*
X143708918Y-98714463D01*
X143832168Y-98416912D01*
X143895000Y-98101033D01*
X143895000Y-97778967D01*
X143832168Y-97463088D01*
X143708918Y-97165537D01*
X143529987Y-96897748D01*
X143302252Y-96670013D01*
X143034463Y-96491082D01*
X142736912Y-96367832D01*
X142421033Y-96305000D01*
X142098967Y-96305000D01*
X141783088Y-96367832D01*
X141485537Y-96491082D01*
X141217748Y-96670013D01*
X140990013Y-96897748D01*
X140811082Y-97165537D01*
X140805091Y-97180000D01*
X137464802Y-97180000D01*
X132970708Y-92685906D01*
X132984236Y-92641309D01*
X133011943Y-92360000D01*
X133009402Y-92334204D01*
X135126201Y-94451003D01*
X135149999Y-94480001D01*
X135178997Y-94503799D01*
X135265723Y-94574974D01*
X135386023Y-94639276D01*
X135397753Y-94645546D01*
X135541014Y-94689003D01*
X135652667Y-94700000D01*
X135652677Y-94700000D01*
X135690000Y-94703676D01*
X135727323Y-94700000D01*
X140805091Y-94700000D01*
X140811082Y-94714463D01*
X140990013Y-94982252D01*
X141217748Y-95209987D01*
X141485537Y-95388918D01*
X141783088Y-95512168D01*
X142098967Y-95575000D01*
X142421033Y-95575000D01*
X142736912Y-95512168D01*
X143034463Y-95388918D01*
X143302252Y-95209987D01*
X143529987Y-94982252D01*
X143708918Y-94714463D01*
X143832168Y-94416912D01*
X143895000Y-94101033D01*
X143895000Y-93778967D01*
X143832168Y-93463088D01*
X143708918Y-93165537D01*
X143529987Y-92897748D01*
X143302252Y-92670013D01*
X143034463Y-92491082D01*
X142736912Y-92367832D01*
X142421033Y-92305000D01*
X142098967Y-92305000D01*
X141783088Y-92367832D01*
X141485537Y-92491082D01*
X141217748Y-92670013D01*
X140990013Y-92897748D01*
X140811082Y-93165537D01*
X140805091Y-93180000D01*
X136004802Y-93180000D01*
X134256455Y-91431653D01*
X135447952Y-91431653D01*
X135603962Y-91747214D01*
X135978745Y-91938020D01*
X136383551Y-92052044D01*
X136802824Y-92084902D01*
X137220451Y-92035334D01*
X137620383Y-91905243D01*
X137916038Y-91747214D01*
X138072048Y-91431653D01*
X136760000Y-90119605D01*
X135447952Y-91431653D01*
X134256455Y-91431653D01*
X132970708Y-90145906D01*
X132984236Y-90101309D01*
X132995905Y-89982824D01*
X134615098Y-89982824D01*
X134664666Y-90400451D01*
X134794757Y-90800383D01*
X134952786Y-91096038D01*
X135268347Y-91252048D01*
X136580395Y-89940000D01*
X136939605Y-89940000D01*
X138251653Y-91252048D01*
X138567214Y-91096038D01*
X138758020Y-90721255D01*
X138872044Y-90316449D01*
X138904902Y-89897176D01*
X138890872Y-89778967D01*
X140625000Y-89778967D01*
X140625000Y-90101033D01*
X140687832Y-90416912D01*
X140811082Y-90714463D01*
X140990013Y-90982252D01*
X141217748Y-91209987D01*
X141485537Y-91388918D01*
X141783088Y-91512168D01*
X142098967Y-91575000D01*
X142421033Y-91575000D01*
X142736912Y-91512168D01*
X143034463Y-91388918D01*
X143302252Y-91209987D01*
X143529987Y-90982252D01*
X143708918Y-90714463D01*
X143832168Y-90416912D01*
X143895000Y-90101033D01*
X143895000Y-89778967D01*
X143832168Y-89463088D01*
X143708918Y-89165537D01*
X143529987Y-88897748D01*
X143302252Y-88670013D01*
X143034463Y-88491082D01*
X142736912Y-88367832D01*
X142421033Y-88305000D01*
X142098967Y-88305000D01*
X141783088Y-88367832D01*
X141485537Y-88491082D01*
X141217748Y-88670013D01*
X140990013Y-88897748D01*
X140811082Y-89165537D01*
X140687832Y-89463088D01*
X140625000Y-89778967D01*
X138890872Y-89778967D01*
X138855334Y-89479549D01*
X138725243Y-89079617D01*
X138567214Y-88783962D01*
X138251653Y-88627952D01*
X136939605Y-89940000D01*
X136580395Y-89940000D01*
X135268347Y-88627952D01*
X134952786Y-88783962D01*
X134761980Y-89158745D01*
X134647956Y-89563551D01*
X134615098Y-89982824D01*
X132995905Y-89982824D01*
X133011943Y-89820000D01*
X132984236Y-89538691D01*
X132902182Y-89268192D01*
X132768932Y-89018899D01*
X132589608Y-88800392D01*
X132371101Y-88621068D01*
X132238142Y-88550000D01*
X132371101Y-88478932D01*
X132408368Y-88448347D01*
X135447952Y-88448347D01*
X136760000Y-89760395D01*
X138072048Y-88448347D01*
X137916038Y-88132786D01*
X137541255Y-87941980D01*
X137136449Y-87827956D01*
X136717176Y-87795098D01*
X136299549Y-87844666D01*
X135899617Y-87974757D01*
X135603962Y-88132786D01*
X135447952Y-88448347D01*
X132408368Y-88448347D01*
X132589608Y-88299608D01*
X132768932Y-88081101D01*
X132902182Y-87831808D01*
X132984236Y-87561309D01*
X133011943Y-87280000D01*
X132991793Y-87075413D01*
X141304192Y-87075413D01*
X141399956Y-87339814D01*
X141689571Y-87480704D01*
X142001108Y-87562384D01*
X142322595Y-87581718D01*
X142641675Y-87537961D01*
X142946088Y-87432795D01*
X143120044Y-87339814D01*
X143215808Y-87075413D01*
X142260000Y-86119605D01*
X141304192Y-87075413D01*
X132991793Y-87075413D01*
X132984236Y-86998691D01*
X132902182Y-86728192D01*
X132768932Y-86478899D01*
X132589608Y-86260392D01*
X132371101Y-86081068D01*
X132238142Y-86010000D01*
X132251995Y-86002595D01*
X140618282Y-86002595D01*
X140662039Y-86321675D01*
X140767205Y-86626088D01*
X140860186Y-86800044D01*
X141124587Y-86895808D01*
X142080395Y-85940000D01*
X142439605Y-85940000D01*
X143395413Y-86895808D01*
X143659814Y-86800044D01*
X143800704Y-86510429D01*
X143882384Y-86198892D01*
X143901718Y-85877405D01*
X143857961Y-85558325D01*
X143752795Y-85253912D01*
X143659814Y-85079956D01*
X143395413Y-84984192D01*
X142439605Y-85940000D01*
X142080395Y-85940000D01*
X141124587Y-84984192D01*
X140860186Y-85079956D01*
X140719296Y-85369571D01*
X140637616Y-85681108D01*
X140618282Y-86002595D01*
X132251995Y-86002595D01*
X132371101Y-85938932D01*
X132589608Y-85759608D01*
X132768932Y-85541101D01*
X132902182Y-85291808D01*
X132984236Y-85021309D01*
X133005581Y-84804587D01*
X141304192Y-84804587D01*
X142260000Y-85760395D01*
X143215808Y-84804587D01*
X143120044Y-84540186D01*
X142830429Y-84399296D01*
X142518892Y-84317616D01*
X142197405Y-84298282D01*
X141878325Y-84342039D01*
X141573912Y-84447205D01*
X141399956Y-84540186D01*
X141304192Y-84804587D01*
X133005581Y-84804587D01*
X133011943Y-84740000D01*
X132984236Y-84458691D01*
X132902182Y-84188192D01*
X132768932Y-83938899D01*
X132589608Y-83720392D01*
X132371101Y-83541068D01*
X132238142Y-83470000D01*
X132371101Y-83398932D01*
X132589608Y-83219608D01*
X132768932Y-83001101D01*
X132902182Y-82751808D01*
X132984236Y-82481309D01*
X133011943Y-82200000D01*
X132984236Y-81918691D01*
X132941852Y-81778967D01*
X140625000Y-81778967D01*
X140625000Y-82101033D01*
X140687832Y-82416912D01*
X140811082Y-82714463D01*
X140990013Y-82982252D01*
X141217748Y-83209987D01*
X141485537Y-83388918D01*
X141783088Y-83512168D01*
X142098967Y-83575000D01*
X142421033Y-83575000D01*
X142736912Y-83512168D01*
X143034463Y-83388918D01*
X143302252Y-83209987D01*
X143529987Y-82982252D01*
X143708918Y-82714463D01*
X143832168Y-82416912D01*
X143895000Y-82101033D01*
X143895000Y-81778967D01*
X143832168Y-81463088D01*
X143708918Y-81165537D01*
X143529987Y-80897748D01*
X143302252Y-80670013D01*
X143034463Y-80491082D01*
X142736912Y-80367832D01*
X142421033Y-80305000D01*
X142098967Y-80305000D01*
X141783088Y-80367832D01*
X141485537Y-80491082D01*
X141217748Y-80670013D01*
X140990013Y-80897748D01*
X140811082Y-81165537D01*
X140687832Y-81463088D01*
X140625000Y-81778967D01*
X132941852Y-81778967D01*
X132902182Y-81648192D01*
X132768932Y-81398899D01*
X132589608Y-81180392D01*
X132371101Y-81001068D01*
X132238142Y-80930000D01*
X132371101Y-80858932D01*
X132589608Y-80679608D01*
X132768932Y-80461101D01*
X132902182Y-80211808D01*
X132984236Y-79941309D01*
X133011943Y-79660000D01*
X132984236Y-79378691D01*
X132902182Y-79108192D01*
X132768932Y-78858899D01*
X132589608Y-78640392D01*
X132371101Y-78461068D01*
X132238142Y-78390000D01*
X132371101Y-78318932D01*
X132589608Y-78139608D01*
X132768932Y-77921101D01*
X132790901Y-77880000D01*
X140625000Y-77880000D01*
X140625000Y-78101033D01*
X140687832Y-78416912D01*
X140811082Y-78714463D01*
X140990013Y-78982252D01*
X141217748Y-79209987D01*
X141485537Y-79388918D01*
X141783088Y-79512168D01*
X142098967Y-79575000D01*
X142421033Y-79575000D01*
X142736912Y-79512168D01*
X143034463Y-79388918D01*
X143302252Y-79209987D01*
X143529987Y-78982252D01*
X143708918Y-78714463D01*
X143832168Y-78416912D01*
X143895000Y-78101033D01*
X143895000Y-77778967D01*
X143832168Y-77463088D01*
X143708918Y-77165537D01*
X143529987Y-76897748D01*
X143302252Y-76670013D01*
X143034463Y-76491082D01*
X142736912Y-76367832D01*
X142421033Y-76305000D01*
X142098967Y-76305000D01*
X141783088Y-76367832D01*
X141696622Y-76403647D01*
X141588986Y-76370997D01*
X141477333Y-76360000D01*
X141477322Y-76360000D01*
X141440000Y-76356324D01*
X141402678Y-76360000D01*
X132790901Y-76360000D01*
X132768932Y-76318899D01*
X132589608Y-76100392D01*
X132371101Y-75921068D01*
X132238142Y-75850000D01*
X132371101Y-75778932D01*
X132589608Y-75599608D01*
X132768932Y-75381101D01*
X132902182Y-75131808D01*
X132984236Y-74861309D01*
X133011943Y-74580000D01*
X132984236Y-74298691D01*
X132902182Y-74028192D01*
X132768932Y-73778899D01*
X132589608Y-73560392D01*
X132371101Y-73381068D01*
X132238142Y-73310000D01*
X132371101Y-73238932D01*
X132589608Y-73059608D01*
X132768932Y-72841101D01*
X132902182Y-72591808D01*
X132984236Y-72321309D01*
X133011943Y-72040000D01*
X133008003Y-72000001D01*
X139245200Y-72000001D01*
X140693823Y-73448625D01*
X140687832Y-73463088D01*
X140625000Y-73778967D01*
X140625000Y-74101033D01*
X140687832Y-74416912D01*
X140811082Y-74714463D01*
X140990013Y-74982252D01*
X141217748Y-75209987D01*
X141485537Y-75388918D01*
X141783088Y-75512168D01*
X142098967Y-75575000D01*
X142421033Y-75575000D01*
X142736912Y-75512168D01*
X143034463Y-75388918D01*
X143302252Y-75209987D01*
X143529987Y-74982252D01*
X143708918Y-74714463D01*
X143832168Y-74416912D01*
X143895000Y-74101033D01*
X143895000Y-73778967D01*
X143832168Y-73463088D01*
X143708918Y-73165537D01*
X143529987Y-72897748D01*
X143302252Y-72670013D01*
X143034463Y-72491082D01*
X142736912Y-72367832D01*
X142421033Y-72305000D01*
X142098967Y-72305000D01*
X141783088Y-72367832D01*
X141768625Y-72373823D01*
X140123805Y-70729004D01*
X140100002Y-70700000D01*
X139984277Y-70605027D01*
X139852248Y-70534455D01*
X139708987Y-70490998D01*
X139597334Y-70480001D01*
X139597323Y-70480001D01*
X139560001Y-70476325D01*
X139522679Y-70480001D01*
X132407321Y-70480001D01*
X132369998Y-70476325D01*
X132332675Y-70480001D01*
X132332666Y-70480001D01*
X132221013Y-70490998D01*
X132077752Y-70534455D01*
X131945723Y-70605027D01*
X131945721Y-70605028D01*
X131945722Y-70605028D01*
X131901794Y-70641078D01*
X131851309Y-70625764D01*
X131640492Y-70605000D01*
X131499508Y-70605000D01*
X131288691Y-70625764D01*
X131018192Y-70707818D01*
X130768899Y-70841068D01*
X130550392Y-71020392D01*
X130371068Y-71238899D01*
X130237818Y-71488192D01*
X130155764Y-71758691D01*
X130128057Y-72040000D01*
X130155764Y-72321309D01*
X130237818Y-72591808D01*
X130371068Y-72841101D01*
X130550392Y-73059608D01*
X130768899Y-73238932D01*
X130901858Y-73310000D01*
X130768899Y-73381068D01*
X130550392Y-73560392D01*
X130371068Y-73778899D01*
X130237818Y-74028192D01*
X130155764Y-74298691D01*
X130128057Y-74580000D01*
X130155764Y-74861309D01*
X130237818Y-75131808D01*
X130371068Y-75381101D01*
X130550392Y-75599608D01*
X130768899Y-75778932D01*
X130901858Y-75850000D01*
X130768899Y-75921068D01*
X130550392Y-76100392D01*
X130371068Y-76318899D01*
X130237818Y-76568192D01*
X130155764Y-76838691D01*
X130128057Y-77120000D01*
X130155764Y-77401309D01*
X130237818Y-77671808D01*
X130371068Y-77921101D01*
X130550392Y-78139608D01*
X130768899Y-78318932D01*
X130901858Y-78390000D01*
X130768899Y-78461068D01*
X130550392Y-78640392D01*
X130371068Y-78858899D01*
X130237818Y-79108192D01*
X130155764Y-79378691D01*
X130128057Y-79660000D01*
X130155764Y-79941309D01*
X130237818Y-80211808D01*
X130371068Y-80461101D01*
X130550392Y-80679608D01*
X130768899Y-80858932D01*
X130901858Y-80930000D01*
X130768899Y-81001068D01*
X130550392Y-81180392D01*
X130371068Y-81398899D01*
X130237818Y-81648192D01*
X130155764Y-81918691D01*
X130128057Y-82200000D01*
X130155764Y-82481309D01*
X130237818Y-82751808D01*
X130371068Y-83001101D01*
X130550392Y-83219608D01*
X130768899Y-83398932D01*
X130901858Y-83470000D01*
X130768899Y-83541068D01*
X130550392Y-83720392D01*
X130371068Y-83938899D01*
X130237818Y-84188192D01*
X130155764Y-84458691D01*
X130128057Y-84740000D01*
X130155764Y-85021309D01*
X130169292Y-85065906D01*
X121584003Y-93651196D01*
X121554999Y-93674999D01*
X121499871Y-93742174D01*
X121460026Y-93790724D01*
X121412097Y-93880392D01*
X121389454Y-93922754D01*
X121345997Y-94066015D01*
X121335000Y-94177668D01*
X121335000Y-94177678D01*
X121331324Y-94215000D01*
X121335000Y-94252322D01*
X121335001Y-102601288D01*
X121291063Y-102645226D01*
X121177795Y-102814744D01*
X121099774Y-103003102D01*
X121060000Y-103203061D01*
X121060000Y-103406939D01*
X121099774Y-103606898D01*
X121177795Y-103795256D01*
X121233649Y-103878848D01*
X119090000Y-101735199D01*
X119090000Y-81697322D01*
X119093676Y-81659999D01*
X119090000Y-81622676D01*
X119090000Y-81622667D01*
X119079003Y-81511014D01*
X119035546Y-81367753D01*
X118964975Y-81235725D01*
X118964974Y-81235723D01*
X118893799Y-81148997D01*
X118870001Y-81119999D01*
X118841004Y-81096202D01*
X117730708Y-79985906D01*
X117744236Y-79941309D01*
X117771943Y-79660000D01*
X117744236Y-79378691D01*
X117662182Y-79108192D01*
X117528932Y-78858899D01*
X117349608Y-78640392D01*
X117131101Y-78461068D01*
X116998142Y-78390000D01*
X117131101Y-78318932D01*
X117349608Y-78139608D01*
X117528932Y-77921101D01*
X117662182Y-77671808D01*
X117744236Y-77401309D01*
X117771943Y-77120000D01*
X117744236Y-76838691D01*
X117662182Y-76568192D01*
X117528932Y-76318899D01*
X117349608Y-76100392D01*
X117131101Y-75921068D01*
X116998142Y-75850000D01*
X117131101Y-75778932D01*
X117349608Y-75599608D01*
X117528932Y-75381101D01*
X117662182Y-75131808D01*
X117744236Y-74861309D01*
X117771943Y-74580000D01*
X117744236Y-74298691D01*
X117662182Y-74028192D01*
X117528932Y-73778899D01*
X117349608Y-73560392D01*
X117131101Y-73381068D01*
X116998142Y-73310000D01*
X117131101Y-73238932D01*
X117349608Y-73059608D01*
X117528932Y-72841101D01*
X117662182Y-72591808D01*
X117744236Y-72321309D01*
X117771943Y-72040000D01*
X117744236Y-71758691D01*
X117662182Y-71488192D01*
X117528932Y-71238899D01*
X117349608Y-71020392D01*
X117131101Y-70841068D01*
X116881808Y-70707818D01*
X116611309Y-70625764D01*
X116400492Y-70605000D01*
X116259508Y-70605000D01*
X116048691Y-70625764D01*
X115778192Y-70707818D01*
X115528899Y-70841068D01*
X115310392Y-71020392D01*
X115131068Y-71238899D01*
X114997818Y-71488192D01*
X114915764Y-71758691D01*
X114888057Y-72040000D01*
X111435000Y-72040000D01*
X111435000Y-65635000D01*
X149385000Y-65635000D01*
X149385001Y-115694769D01*
G04 #@! TD*
M02*
