M48
METRIC,TZ
T1C0.400
T2C0.800
T3C1.000
T4C1.200
T5C1.500
T6C3.200
%
G90
G05
T1
X122095Y-103305
X123480Y-102050
T2
X116330Y-72040
X116330Y-74580
X116330Y-77120
X116330Y-79660
X116330Y-82200
X116330Y-84740
X116330Y-87280
X116330Y-89820
X116330Y-92360
X116330Y-94900
X116330Y-97440
X116330Y-99980
X116330Y-102520
X116330Y-105060
X116330Y-107600
X131570Y-72040
X131570Y-74580
X131570Y-77120
X131570Y-79660
X131570Y-82200
X131570Y-84740
X131570Y-87280
X131570Y-89820
X131570Y-92360
X131570Y-94900
X131570Y-97440
X131570Y-99980
X131570Y-102520
X131570Y-105060
X131570Y-107600
T3
X120710Y-115510
X122095Y-118350
X123480Y-115510
X124865Y-118350
X126250Y-115510
X127635Y-118350
X129020Y-115510
X130405Y-118350
X131790Y-115510
X133175Y-118350
X134560Y-115510
X135945Y-118350
X137330Y-115510
X138715Y-118350
X140100Y-115510
T4
X142260Y-73940
X142260Y-77940
X142260Y-81940
X142260Y-85940
X142260Y-89940
X142260Y-93940
X142260Y-97940
X142260Y-101940
X142260Y-105940
T5
X136760Y-89940
T6
X113755Y-116930
X147055Y-116930
T0
M30
