G04 #@! TF.GenerationSoftware,KiCad,Pcbnew,(5.0.1-3-g963ef8bb5)*
G04 #@! TF.CreationDate,2019-12-09T16:28:53+01:00*
G04 #@! TF.ProjectId,Ps1 to Neogeo Adpator,50733120746F204E656F67656F204164,rev?*
G04 #@! TF.SameCoordinates,Original*
G04 #@! TF.FileFunction,Legend,Bot*
G04 #@! TF.FilePolarity,Positive*
%FSLAX46Y46*%
G04 Gerber Fmt 4.6, Leading zero omitted, Abs format (unit mm)*
G04 Created by KiCad (PCBNEW (5.0.1-3-g963ef8bb5)) date Lundi 09 décembre 2019 à 16:28:53*
%MOMM*%
%LPD*%
G01*
G04 APERTURE LIST*
%ADD10C,0.150000*%
G04 APERTURE END LIST*
D10*
G04 #@! TO.C,www.delta-island.com*
G36*
X126964000Y-94555000D02*
X120464000Y-90805000D01*
X123464000Y-90805000D01*
X126964000Y-94555000D01*
G37*
X126964000Y-94555000D02*
X120464000Y-90805000D01*
X123464000Y-90805000D01*
X126964000Y-94555000D01*
G36*
X120464000Y-90805000D02*
X126964000Y-87055000D01*
X125464000Y-89555000D01*
X120464000Y-90805000D01*
G37*
X120464000Y-90805000D02*
X126964000Y-87055000D01*
X125464000Y-89555000D01*
X120464000Y-90805000D01*
G36*
X126964000Y-87055000D02*
X126964000Y-94555000D01*
X125464000Y-91805000D01*
X126964000Y-87055000D01*
G37*
X126964000Y-87055000D02*
X126964000Y-94555000D01*
X125464000Y-91805000D01*
X126964000Y-87055000D01*
X128749714Y-82590714D02*
X129416380Y-82781190D01*
X128940190Y-82971666D01*
X129416380Y-83162142D01*
X128749714Y-83352619D01*
X128749714Y-83638333D02*
X129416380Y-83828809D01*
X128940190Y-84019285D01*
X129416380Y-84209761D01*
X128749714Y-84400238D01*
X128749714Y-84685952D02*
X129416380Y-84876428D01*
X128940190Y-85066904D01*
X129416380Y-85257380D01*
X128749714Y-85447857D01*
X129321142Y-85828809D02*
X129368761Y-85876428D01*
X129416380Y-85828809D01*
X129368761Y-85781190D01*
X129321142Y-85828809D01*
X129416380Y-85828809D01*
X129416380Y-86733571D02*
X128416380Y-86733571D01*
X129368761Y-86733571D02*
X129416380Y-86638333D01*
X129416380Y-86447857D01*
X129368761Y-86352619D01*
X129321142Y-86305000D01*
X129225904Y-86257380D01*
X128940190Y-86257380D01*
X128844952Y-86305000D01*
X128797333Y-86352619D01*
X128749714Y-86447857D01*
X128749714Y-86638333D01*
X128797333Y-86733571D01*
X129368761Y-87590714D02*
X129416380Y-87495476D01*
X129416380Y-87305000D01*
X129368761Y-87209761D01*
X129273523Y-87162142D01*
X128892571Y-87162142D01*
X128797333Y-87209761D01*
X128749714Y-87305000D01*
X128749714Y-87495476D01*
X128797333Y-87590714D01*
X128892571Y-87638333D01*
X128987809Y-87638333D01*
X129083047Y-87162142D01*
X129416380Y-88209761D02*
X129368761Y-88114523D01*
X129273523Y-88066904D01*
X128416380Y-88066904D01*
X128749714Y-88447857D02*
X128749714Y-88828809D01*
X128416380Y-88590714D02*
X129273523Y-88590714D01*
X129368761Y-88638333D01*
X129416380Y-88733571D01*
X129416380Y-88828809D01*
X129416380Y-89590714D02*
X128892571Y-89590714D01*
X128797333Y-89543095D01*
X128749714Y-89447857D01*
X128749714Y-89257380D01*
X128797333Y-89162142D01*
X129368761Y-89590714D02*
X129416380Y-89495476D01*
X129416380Y-89257380D01*
X129368761Y-89162142D01*
X129273523Y-89114523D01*
X129178285Y-89114523D01*
X129083047Y-89162142D01*
X129035428Y-89257380D01*
X129035428Y-89495476D01*
X128987809Y-89590714D01*
X129035428Y-90066904D02*
X129035428Y-90828809D01*
X129416380Y-91305000D02*
X128749714Y-91305000D01*
X128416380Y-91305000D02*
X128464000Y-91257380D01*
X128511619Y-91305000D01*
X128464000Y-91352619D01*
X128416380Y-91305000D01*
X128511619Y-91305000D01*
X129368761Y-91733571D02*
X129416380Y-91828809D01*
X129416380Y-92019285D01*
X129368761Y-92114523D01*
X129273523Y-92162142D01*
X129225904Y-92162142D01*
X129130666Y-92114523D01*
X129083047Y-92019285D01*
X129083047Y-91876428D01*
X129035428Y-91781190D01*
X128940190Y-91733571D01*
X128892571Y-91733571D01*
X128797333Y-91781190D01*
X128749714Y-91876428D01*
X128749714Y-92019285D01*
X128797333Y-92114523D01*
X129416380Y-92733571D02*
X129368761Y-92638333D01*
X129273523Y-92590714D01*
X128416380Y-92590714D01*
X129416380Y-93543095D02*
X128892571Y-93543095D01*
X128797333Y-93495476D01*
X128749714Y-93400238D01*
X128749714Y-93209761D01*
X128797333Y-93114523D01*
X129368761Y-93543095D02*
X129416380Y-93447857D01*
X129416380Y-93209761D01*
X129368761Y-93114523D01*
X129273523Y-93066904D01*
X129178285Y-93066904D01*
X129083047Y-93114523D01*
X129035428Y-93209761D01*
X129035428Y-93447857D01*
X128987809Y-93543095D01*
X128749714Y-94019285D02*
X129416380Y-94019285D01*
X128844952Y-94019285D02*
X128797333Y-94066904D01*
X128749714Y-94162142D01*
X128749714Y-94305000D01*
X128797333Y-94400238D01*
X128892571Y-94447857D01*
X129416380Y-94447857D01*
X129416380Y-95352619D02*
X128416380Y-95352619D01*
X129368761Y-95352619D02*
X129416380Y-95257380D01*
X129416380Y-95066904D01*
X129368761Y-94971666D01*
X129321142Y-94924047D01*
X129225904Y-94876428D01*
X128940190Y-94876428D01*
X128844952Y-94924047D01*
X128797333Y-94971666D01*
X128749714Y-95066904D01*
X128749714Y-95257380D01*
X128797333Y-95352619D01*
X129321142Y-95828809D02*
X129368761Y-95876428D01*
X129416380Y-95828809D01*
X129368761Y-95781190D01*
X129321142Y-95828809D01*
X129416380Y-95828809D01*
X129368761Y-96733571D02*
X129416380Y-96638333D01*
X129416380Y-96447857D01*
X129368761Y-96352619D01*
X129321142Y-96305000D01*
X129225904Y-96257380D01*
X128940190Y-96257380D01*
X128844952Y-96305000D01*
X128797333Y-96352619D01*
X128749714Y-96447857D01*
X128749714Y-96638333D01*
X128797333Y-96733571D01*
X129416380Y-97305000D02*
X129368761Y-97209761D01*
X129321142Y-97162142D01*
X129225904Y-97114523D01*
X128940190Y-97114523D01*
X128844952Y-97162142D01*
X128797333Y-97209761D01*
X128749714Y-97305000D01*
X128749714Y-97447857D01*
X128797333Y-97543095D01*
X128844952Y-97590714D01*
X128940190Y-97638333D01*
X129225904Y-97638333D01*
X129321142Y-97590714D01*
X129368761Y-97543095D01*
X129416380Y-97447857D01*
X129416380Y-97305000D01*
X129416380Y-98066904D02*
X128749714Y-98066904D01*
X128844952Y-98066904D02*
X128797333Y-98114523D01*
X128749714Y-98209761D01*
X128749714Y-98352619D01*
X128797333Y-98447857D01*
X128892571Y-98495476D01*
X129416380Y-98495476D01*
X128892571Y-98495476D02*
X128797333Y-98543095D01*
X128749714Y-98638333D01*
X128749714Y-98781190D01*
X128797333Y-98876428D01*
X128892571Y-98924047D01*
X129416380Y-98924047D01*
G04 #@! TD*
M02*
